*
*
G04 PADS VX.1.2 Build Number: 698008 generated Gerber (RS-274-X) file*
G04 PC Version=2.1*
*
%IN "PCB - P18-001 Socket Sh"*%
*
%MOIN*%
*
%FSLAX35Y35*%
*
*
*
*
G04 PC Standard Apertures*
*
*
G04 Thermal Relief Aperture macro.*
%AMTER*
1,1,$1,0,0*
1,0,$1-$2,0,0*
21,0,$3,$4,0,0,45*
21,0,$3,$4,0,0,135*
%
*
*
G04 Annular Aperture macro.*
%AMANN*
1,1,$1,0,0*
1,0,$2,0,0*
%
*
*
G04 Odd Aperture macro.*
%AMODD*
1,1,$1,0,0*
1,0,$1-0.005,0,0*
%
*
*
G04 PC Custom Aperture Macros*
*
*
*
*
*
*
G04 PC Aperture Table*
*
%ADD010C,0.001*%
%ADD048C,0.01*%
*
*
*
*
G04 PC Circuitry*
G04 Layer Name PCB - P18-001 Socket Sh - circuitry*
%LPD*%
*
*
G04 PC Custom Flashes*
G04 Layer Name PCB - P18-001 Socket Sh - flashes*
%LPD*%
*
*
G04 PC Circuitry*
G04 Layer Name PCB - P18-001 Socket Sh - circuitry*
%LPD*%
*
G54D10*
G01X525600Y1047300D02*
X525603D01*
X525400Y1576900D02*
X525403D01*
X482300Y1577600D02*
X482303D01*
X1466500Y1574000D02*
X1466503D01*
X547100Y1551000D02*
X547103D01*
X1401600Y1550900D02*
X1401603D01*
X547100Y1078500D02*
X547103D01*
X547200Y1551200D02*
X547203D01*
G54D48*
X482300Y1744700D02*
X1466400D01*
Y1047200*
X482300*
Y1744700*
X742900Y1544250D02*
X777300Y1509850D01*
Y1074300*
X778300Y1073300*
X779300*
X781600Y1075600*
Y1511300*
X742700Y1550200*
X654300*
X653000Y1548900*
Y1546000*
X654800Y1544200*
X742900*
Y1544250*
X1275100Y1548200D02*
X1271800Y1544900D01*
X1230700*
X1176500Y1490700*
Y1078600*
X1173500Y1075600*
X1171800*
Y1495800*
X1227500Y1551300*
X1272500*
X1275100Y1548700*
Y1548200*
X403900Y1047300D02*
Y1305350D01*
Y1047300D02*
X401400Y1057300D01*
X406400*
X403900Y1047300*
Y1576900D02*
Y1318850D01*
Y1576900D02*
X406400Y1566900D01*
X401400*
X403900Y1576900*
X520600Y1047300D02*
X398900D01*
X520400Y1576900D02*
X398900D01*
X386514Y1313663D02*
X386968Y1313975D01*
X387650Y1314913*
X387650D02*
Y1308350D01*
X390150Y1314913D02*
X392650D01*
X392650D02*
X391286Y1312413D01*
X391286D02*
X391968D01*
X391968D02*
X392423Y1312100D01*
X392650Y1311788*
X392650D02*
X392877Y1310850D01*
Y1310225*
X392650Y1309288*
X392650D02*
X392195Y1308663D01*
X392195D02*
X391514Y1308350D01*
X390832*
X390150Y1308663*
X390150D02*
X389923Y1308975D01*
X389695Y1309600*
X397195Y1314913D02*
X394923Y1310538D01*
X394923D02*
X398332D01*
X397195Y1314913D02*
Y1308350D01*
X400605Y1308975D02*
X400377Y1308663D01*
X400377D02*
X400605Y1308350D01*
X400832Y1308663*
X400832D02*
X400605Y1308975D01*
X405832Y1314913D02*
X403559D01*
X403559D02*
X403332Y1312100D01*
X403559Y1312413*
X403559D02*
X404241Y1312725D01*
X404923*
X405605Y1312413*
X405605D02*
X406059Y1311788D01*
X406059D02*
X406286Y1310850D01*
X406059Y1310225*
X405832Y1309288*
X405832D02*
X405377Y1308663D01*
X405377D02*
X404695Y1308350D01*
X404014*
X403332Y1308663*
X403332D02*
X403105Y1308975D01*
X402877Y1309600*
X408332Y1312725D02*
Y1308350D01*
Y1311475D02*
X409014Y1312413D01*
X409014D02*
X409468Y1312725D01*
X410150*
X410605Y1312413*
X410605D02*
X410832Y1311475D01*
Y1308350*
Y1311475D02*
X411514Y1312413D01*
X411514D02*
X411968Y1312725D01*
X412650*
X413105Y1312413*
X413105D02*
X413332Y1311475D01*
Y1308350*
X415377Y1312725D02*
Y1308350D01*
Y1311475D02*
X416059Y1312413D01*
X416059D02*
X416514Y1312725D01*
X417195*
X417650Y1312413*
X417650D02*
X417877Y1311475D01*
Y1308350*
Y1311475D02*
X418559Y1312413D01*
X418559D02*
X419014Y1312725D01*
X419695*
X420150Y1312413*
X420150D02*
X420377Y1311475D01*
Y1308350*
X482300Y1879100D02*
X953105D01*
X482300D02*
X492300Y1881600D01*
Y1876600*
X482300Y1879100*
X1466500D02*
X995695D01*
X1466500D02*
X1456500Y1876600D01*
Y1881600*
X1466500Y1879100*
X482300Y1582600D02*
Y1884100D01*
X1466500Y1579000D02*
Y1884100D01*
X956332Y1880350D02*
Y1880663D01*
X956332D02*
X956559Y1881288D01*
X956559D02*
X956786Y1881600D01*
X957241Y1881913*
X957241D02*
X958150D01*
X958150D02*
X958605Y1881600D01*
X958832Y1881288*
X958832D02*
X959059Y1880663D01*
X959059D02*
Y1880038D01*
X959059D02*
X958832Y1879413D01*
X958832D02*
X958377Y1878475D01*
X956105Y1875350*
X959286*
X964286Y1881913D02*
X962014D01*
X962014D02*
X961786Y1879100D01*
X962014Y1879413*
X962014D02*
X962695Y1879725D01*
X963377*
X964059Y1879413*
X964059D02*
X964514Y1878788D01*
X964514D02*
X964741Y1877850D01*
X964514Y1877225*
X964286Y1876288*
X964286D02*
X963832Y1875663D01*
X963832D02*
X963150Y1875350D01*
X962468*
X961786Y1875663*
X961786D02*
X961559Y1875975D01*
X961332Y1876600*
X968150Y1881913D02*
X967468Y1881600D01*
X967014Y1880663*
X967014D02*
X966786Y1879100D01*
Y1878163*
X966786D02*
X967014Y1876600D01*
X967468Y1875663*
X967468D02*
X968150Y1875350D01*
X968605*
X969286Y1875663*
X969286D02*
X969741Y1876600D01*
X969968Y1878163*
X969968D02*
Y1879100D01*
X969741Y1880663*
X969741D02*
X969286Y1881600D01*
X968605Y1881913*
X968605D02*
X968150D01*
X972241Y1875975D02*
X972014Y1875663D01*
X972014D02*
X972241Y1875350D01*
X972468Y1875663*
X972468D02*
X972241Y1875975D01*
X975877Y1881913D02*
X975195Y1881600D01*
X974741Y1880663*
X974741D02*
X974514Y1879100D01*
Y1878163*
X974514D02*
X974741Y1876600D01*
X975195Y1875663*
X975195D02*
X975877Y1875350D01*
X976332*
X977014Y1875663*
X977014D02*
X977468Y1876600D01*
X977695Y1878163*
X977695D02*
Y1879100D01*
X977468Y1880663*
X977468D02*
X977014Y1881600D01*
X976332Y1881913*
X976332D02*
X975877D01*
X979741Y1879725D02*
Y1875350D01*
Y1878475D02*
X980423Y1879413D01*
X980423D02*
X980877Y1879725D01*
X981559*
X982014Y1879413*
X982014D02*
X982241Y1878475D01*
Y1875350*
Y1878475D02*
X982923Y1879413D01*
X982923D02*
X983377Y1879725D01*
X984059*
X984514Y1879413*
X984514D02*
X984741Y1878475D01*
Y1875350*
X986786Y1879725D02*
Y1875350D01*
Y1878475D02*
X987468Y1879413D01*
X987468D02*
X987923Y1879725D01*
X988605*
X989059Y1879413*
X989059D02*
X989286Y1878475D01*
Y1875350*
Y1878475D02*
X989968Y1879413D01*
X989968D02*
X990423Y1879725D01*
X991105*
X991559Y1879413*
X991559D02*
X991786Y1878475D01*
Y1875350*
X547100Y1830900D02*
X954191D01*
X547100D02*
X557100Y1833400D01*
Y1828400*
X547100Y1830900*
X1401600D02*
X994509D01*
X1401600D02*
X1391600Y1828400D01*
Y1833400*
X1401600Y1830900*
X547100Y1556000D02*
Y1835900D01*
X1401600Y1555900D02*
Y1835900D01*
X957418Y1832150D02*
Y1832463D01*
X957418D02*
X957645Y1833088D01*
X957645D02*
X957873Y1833400D01*
X958327Y1833713*
X958327D02*
X959236D01*
X959236D02*
X959691Y1833400D01*
X959918Y1833088*
X959918D02*
X960145Y1832463D01*
X960145D02*
Y1831838D01*
X960145D02*
X959918Y1831213D01*
X959918D02*
X959464Y1830275D01*
X957191Y1827150*
X960373*
X962418Y1832463D02*
X962873Y1832775D01*
X963555Y1833713*
X963555D02*
Y1827150D01*
X968782Y1833713D02*
X966509Y1827150D01*
X965600Y1833713D02*
X968782D01*
X971055Y1827775D02*
X970827Y1827463D01*
X970827D02*
X971055Y1827150D01*
X971282Y1827463*
X971282D02*
X971055Y1827775D01*
X974691Y1833713D02*
X974009Y1833400D01*
X973555Y1832463*
X973555D02*
X973327Y1830900D01*
Y1829963*
X973327D02*
X973555Y1828400D01*
X974009Y1827463*
X974009D02*
X974691Y1827150D01*
X975145*
X975827Y1827463*
X975827D02*
X976282Y1828400D01*
X976509Y1829963*
X976509D02*
Y1830900D01*
X976282Y1832463*
X976282D02*
X975827Y1833400D01*
X975145Y1833713*
X975145D02*
X974691D01*
X978555Y1831525D02*
Y1827150D01*
Y1830275D02*
X979236Y1831213D01*
X979236D02*
X979691Y1831525D01*
X980373*
X980827Y1831213*
X980827D02*
X981055Y1830275D01*
Y1827150*
Y1830275D02*
X981736Y1831213D01*
X981736D02*
X982191Y1831525D01*
X982873*
X983327Y1831213*
X983327D02*
X983555Y1830275D01*
Y1827150*
X985600Y1831525D02*
Y1827150D01*
Y1830275D02*
X986282Y1831213D01*
X986282D02*
X986736Y1831525D01*
X987418*
X987873Y1831213*
X987873D02*
X988100Y1830275D01*
Y1827150*
Y1830275D02*
X988782Y1831213D01*
X988782D02*
X989236Y1831525D01*
X989918*
X990373Y1831213*
X990373D02*
X990600Y1830275D01*
Y1827150*
X455200Y1078500D02*
Y1308100D01*
Y1078500D02*
X452700Y1088500D01*
X457700*
X455200Y1078500*
Y1551200D02*
Y1321600D01*
Y1551200D02*
X457700Y1541200D01*
X452700*
X455200Y1551200*
X542100Y1078500D02*
X450200D01*
X542200Y1551200D02*
X450200D01*
X439064Y1316413D02*
X439518Y1316725D01*
X440200Y1317663*
X440200D02*
Y1311100D01*
X442473Y1316100D02*
Y1316413D01*
X442473D02*
X442700Y1317038D01*
X442700D02*
X442927Y1317350D01*
X443382Y1317663*
X443382D02*
X444291D01*
X444291D02*
X444745Y1317350D01*
X444973Y1317038*
X444973D02*
X445200Y1316413D01*
X445200D02*
Y1315788D01*
X445200D02*
X444973Y1315163D01*
X444973D02*
X444518Y1314225D01*
X442245Y1311100*
X445427*
X448836Y1317663D02*
X448155Y1317350D01*
X447700Y1316413*
X447700D02*
X447473Y1314850D01*
Y1313913*
X447473D02*
X447700Y1312350D01*
X448155Y1311413*
X448155D02*
X448836Y1311100D01*
X449291*
X449973Y1311413*
X449973D02*
X450427Y1312350D01*
X450655Y1313913*
X450655D02*
Y1314850D01*
X450427Y1316413*
X450427D02*
X449973Y1317350D01*
X449291Y1317663*
X449291D02*
X448836D01*
X452927Y1311725D02*
X452700Y1311413D01*
X452700D02*
X452927Y1311100D01*
X453155Y1311413*
X453155D02*
X452927Y1311725D01*
X455200Y1316413D02*
X455655Y1316725D01*
X456336Y1317663*
X456336D02*
Y1311100D01*
X458382Y1315475D02*
Y1311100D01*
Y1314225D02*
X459064Y1315163D01*
X459064D02*
X459518Y1315475D01*
X460200*
X460655Y1315163*
X460655D02*
X460882Y1314225D01*
Y1311100*
Y1314225D02*
X461564Y1315163D01*
X461564D02*
X462018Y1315475D01*
X462700*
X463155Y1315163*
X463155D02*
X463382Y1314225D01*
Y1311100*
X465427Y1315475D02*
Y1311100D01*
Y1314225D02*
X466109Y1315163D01*
X466109D02*
X466564Y1315475D01*
X467245*
X467700Y1315163*
X467700D02*
X467927Y1314225D01*
Y1311100*
Y1314225D02*
X468609Y1315163D01*
X468609D02*
X469064Y1315475D01*
X469745*
X470200Y1315163*
X470200D02*
X470427Y1314225D01*
Y1311100*
X0Y0D02*
M02*
