*
*
G04 PADS VX.1.2 Build Number: 698008 generated Gerber (RS-274-X) file*
G04 PC Version=2.1*
*
%IN "PCB - P18-001 Socket Sh"*%
*
%MOIN*%
*
%FSLAX35Y35*%
*
*
*
*
G04 PC Standard Apertures*
*
*
G04 Thermal Relief Aperture macro.*
%AMTER*
1,1,$1,0,0*
1,0,$1-$2,0,0*
21,0,$3,$4,0,0,45*
21,0,$3,$4,0,0,135*
%
*
*
G04 Annular Aperture macro.*
%AMANN*
1,1,$1,0,0*
1,0,$2,0,0*
%
*
*
G04 Odd Aperture macro.*
%AMODD*
1,1,$1,0,0*
1,0,$1-0.005,0,0*
%
*
*
G04 PC Custom Aperture Macros*
*
*
*
*
*
*
G04 PC Aperture Table*
*
%ADD010C,0.001*%
%ADD048C,0.01*%
%ADD129C,0.04724*%
%ADD199R,0.06394X0.06394*%
%ADD200C,0.06394*%
%ADD201C,0.04331*%
%ADD203R,0.03543X0.04193*%
%ADD204R,0.03543X0.04173*%
%ADD207R,0.04193X0.03543*%
%ADD210R,0.04173X0.03543*%
%ADD213C,0.09055*%
%ADD214C,0.13386*%
%ADD215R,0.06693X0.05906*%
%ADD226C,0.02756*%
%ADD236C,0.06299*%
%ADD239R,0.05906X0.04921*%
%ADD243R,0.05194X0.05194*%
%ADD245C,0.0748*%
%ADD246C,0.05894*%
%ADD258C,0.08268*%
%ADD260R,0.04294X0.05118*%
%ADD261R,0.17717X0.08268*%
%ADD265R,0.0315X0.03543*%
%ADD266R,0.03543X0.02756*%
*
*
*
*
G04 PC Circuitry*
G04 Layer Name PCB - P18-001 Socket Sh - circuitry*
%LPD*%
*
*
G04 PC Custom Flashes*
G04 Layer Name PCB - P18-001 Socket Sh - flashes*
%LPD*%
*
*
G04 PC Circuitry*
G04 Layer Name PCB - P18-001 Socket Sh - circuitry*
%LPD*%
*
G54D10*
G01X525600Y1047300D02*
X525603D01*
X525400Y1576900D02*
X525403D01*
X482300Y1577600D02*
X482303D01*
X1466500Y1574000D02*
X1466503D01*
X547100Y1551000D02*
X547103D01*
X1401600Y1550900D02*
X1401603D01*
X547100Y1078500D02*
X547103D01*
X547200Y1551200D02*
X547203D01*
G54D48*
X743700Y1477893D02*
X726607Y1460800D01*
X702093*
X695093Y1467800*
X691507*
X687400Y1463693*
Y1460807*
X698307Y1449900*
X729593*
X750200Y1470507*
Y1474793*
X746593Y1478400*
X743700*
Y1477893*
X743100Y1431393D02*
X718907Y1407200D01*
X706393*
X695493Y1418100*
X692107*
X688100Y1414093*
Y1410407*
X702207Y1396300*
X722693*
X750600Y1424207*
Y1427993*
X746993Y1431600*
X743100*
Y1431393*
X743400Y1377993D02*
X721907Y1356500D01*
X706593*
X695593Y1367500*
X692007*
X688300Y1363793*
Y1359407*
X701807Y1345900*
X725693*
X750700Y1370907*
Y1375193*
X747693Y1378200*
X743400*
Y1377993*
X743500Y1330093D02*
X720607Y1307200D01*
X705993*
X695993Y1317200*
X691407*
X688000Y1313793*
Y1310507*
X701807Y1296700*
X723793*
X750100Y1323007*
Y1326293*
X745993Y1330400*
X743500*
Y1330093*
X743700Y1278493D02*
X721907Y1256700D01*
X706493*
X695993Y1267200*
X691507*
X688600Y1264293*
Y1259707*
X702207Y1246100*
X725393*
X750500Y1271207*
Y1275193*
X747193Y1278500*
X743700*
Y1278493*
X742800Y1227593D02*
X721207Y1206000D01*
X707093*
X695693Y1217400*
X691407*
X687900Y1213893*
Y1210707*
X703107Y1195500*
X724893*
X750500Y1221107*
Y1224393*
X746893Y1228000*
X742800*
Y1227593*
X743200Y1177893D02*
X720107Y1154800D01*
X708093*
X695393Y1167500*
X691307*
X688000Y1164193*
Y1160707*
X704607Y1144100*
X723393*
X750200Y1170907*
Y1174793*
X747093Y1177900*
X743200*
Y1177893*
X743400Y1127693D02*
X723107Y1107400D01*
X705493*
X695293Y1117600*
X691707*
X687600Y1113493*
Y1110407*
X700707Y1097300*
X727093*
X750500Y1120707*
Y1123993*
X746593Y1127900*
X743400*
Y1127693*
X1260100Y1468193D02*
X1239007Y1447100D01*
X1226093*
X1208993Y1464200*
X1205107*
X1202400Y1461493*
Y1457207*
X1222407Y1437200*
X1244293*
X1268000Y1460907*
Y1464493*
X1264393Y1468100*
X1260100*
Y1468193*
X1202000Y1413093D02*
Y1407007D01*
X1221007Y1388000*
X1244493*
X1267400Y1410907*
Y1414093*
X1264193Y1417300*
X1259807*
X1240607Y1398100*
X1225393*
X1208893Y1414600*
X1203507*
X1202000Y1413093*
Y1362093D02*
Y1356807D01*
X1219907Y1338900*
X1246893*
X1268000Y1360007*
Y1364193*
X1264293Y1367900*
X1258507*
X1239907Y1349300*
X1224493*
X1209693Y1364100*
X1204007*
X1202000Y1362093*
X1259700Y1317393D02*
X1241007Y1298700D01*
X1224693*
X1209193Y1314200*
X1205507*
X1202100Y1310793*
Y1307107*
X1220707Y1288500*
X1247993*
X1269300Y1309807*
Y1315093*
X1265693Y1318700*
X1259700*
Y1317393*
X1201700Y1262693D02*
Y1257507D01*
X1220707Y1238500*
X1245193*
X1267700Y1261007*
Y1263793*
X1264393Y1267100*
X1259607*
X1241607Y1249100*
X1223993*
X1207993Y1265100*
X1204107*
X1201700Y1262693*
X1259600Y1217493D02*
X1240507Y1198400D01*
X1224793*
X1208893Y1214300*
X1204607*
X1202000Y1211693*
Y1206907*
X1220807Y1188100*
X1245093*
X1267200Y1210207*
Y1215093*
X1264093Y1218200*
X1259600*
Y1217493*
X1202200Y1163293D02*
Y1157007D01*
X1221407Y1137800*
X1244793*
X1267200Y1160207*
Y1164693*
X1264493Y1167400*
X1259707*
X1240207Y1147900*
X1225493*
X1209193Y1164200*
X1203107*
X1202200Y1163293*
X1259500Y1117293D02*
X1240807Y1098600D01*
X1224793*
X1209393Y1114000*
X1205107*
X1202200Y1111093*
Y1107307*
X1221307Y1088200*
X1244893*
X1266900Y1110207*
Y1114393*
X1263693Y1117600*
X1259500*
Y1117293*
X600400Y1464793D02*
Y1452893D01*
X507200Y1359693*
Y1353507*
X509907Y1350800*
X515993*
X612000Y1446807*
Y1465393*
X609093Y1468300*
X603907*
X600400Y1464793*
X600000Y1416393D02*
Y1405293D01*
X537307Y1342600*
X510707*
X506400Y1338293*
Y1334807*
X510007Y1331200*
X543893*
X611700Y1399007*
Y1415593*
X608493Y1418800*
X602407*
X600000Y1416393*
X600200Y1366193D02*
Y1349393D01*
X573007Y1322200*
X511607*
X507700Y1318293*
Y1314507*
X511107Y1311100*
X577393*
X610500Y1344207*
Y1365893*
X607793Y1368600*
X602607*
X600200Y1366193*
X604200Y1317793D02*
X588907Y1302500D01*
X510707*
X507400Y1299193*
Y1294007*
X509807Y1291600*
X593193*
X611700Y1310107*
Y1314093*
X607993Y1317800*
X604200*
Y1317793*
X508000Y1280193D02*
Y1274407D01*
X510407Y1272000*
X587207*
X603007Y1256200*
X607193*
X610800Y1259807*
Y1264493*
X591393Y1283900*
X511707*
X508000Y1280193*
X508200Y1261193D02*
Y1255107D01*
X510807Y1252500*
X566807*
X599800Y1219507*
Y1209207*
X603007Y1206000*
X607693*
X611300Y1209607*
Y1224693*
X571693Y1264300*
X511307*
X508200Y1261193*
X508100Y1240993D02*
Y1235707D01*
X511207Y1232600*
X538107*
X600400Y1170307*
Y1159307*
X602907Y1156800*
X607693*
X610700Y1159807*
Y1176193*
X542793Y1244100*
X511207*
X508100Y1240993*
X508200Y1221093D02*
Y1216407D01*
X600300Y1124307*
Y1109207*
X602207Y1107300*
X608793*
X611000Y1109507*
Y1129793*
X515993Y1224800*
X511907*
X508200Y1221093*
X1448200Y1227793D02*
X1344100Y1123693D01*
Y1109307*
X1347707Y1105700*
X1352993*
X1356800Y1109507*
Y1119007*
X1454200Y1216407*
Y1221793*
X1448200Y1227793*
X1344800Y1158107D02*
Y1183493D01*
X1406007Y1244700*
X1449393*
X1454300Y1239793*
Y1235507*
X1451293Y1232500*
X1410293*
X1354900Y1177107*
Y1159707*
X1351293Y1156100*
X1346807*
X1344800Y1158107*
X1347707Y1206900D02*
X1352093D01*
X1355400Y1210207*
Y1222807*
X1385293Y1252700*
X1449393*
X1452800Y1256107*
Y1260193*
X1449793Y1263200*
X1379007*
X1343300Y1227493*
Y1211307*
X1347707Y1206900*
X1347607Y1257000D02*
X1352093D01*
X1367593Y1272500*
X1449793*
X1453700Y1276407*
Y1278693*
X1448993Y1283400*
X1363607*
X1344000Y1263793*
Y1260607*
X1347607Y1257000*
X1344400Y1315193D02*
Y1309107D01*
X1362507Y1291000*
X1448493*
X1452600Y1295107*
Y1299893*
X1449293Y1303200*
X1367293*
X1352093Y1318400*
X1347607*
X1344400Y1315193*
X1344800Y1365193D02*
Y1343507D01*
X1376707Y1311600*
X1447893*
X1452300Y1316007*
Y1319793*
X1449593Y1322500*
X1381693*
X1355800Y1348393*
Y1364393*
X1352393Y1367800*
X1347407*
X1344800Y1365193*
Y1415293D02*
Y1399807D01*
X1413707Y1330900*
X1449393*
X1453300Y1334807*
Y1339593*
X1450293Y1342600*
X1418093*
X1355900Y1404793*
Y1413593*
X1351393Y1418100*
X1347607*
X1344800Y1415293*
X1345000Y1467293D02*
Y1449307D01*
X1443907Y1350400*
X1448693*
X1452100Y1353807*
Y1359893*
X1356200Y1455793*
Y1466193*
X1353093Y1469300*
X1347007*
X1345000Y1467293*
X618600Y1566093D02*
X612100Y1559593D01*
Y1525307*
X620907Y1516500*
X732007*
X734000Y1514507*
Y1511193*
X710600Y1487793*
Y1471407*
X715007Y1467000*
X720893*
X724100Y1470207*
Y1482807*
X744093Y1502800*
X748707*
X753300Y1498207*
Y1469193*
X712100Y1427993*
Y1424107*
X715507Y1420700*
X720193*
X750993Y1451500*
X752707*
X753800Y1450407*
Y1417093*
X711500Y1374793*
Y1370707*
X714607Y1367600*
X719693*
X748393Y1396300*
X752207*
X754000Y1394507*
Y1368793*
X712300Y1327093*
Y1322107*
X714707Y1319700*
X720393*
X749593Y1348900*
X752107*
X753700Y1347307*
Y1316893*
X711400Y1274593*
Y1269707*
X714707Y1266400*
X719793*
X749293Y1295900*
X751707*
X753300Y1294307*
Y1266493*
X711300Y1224493*
Y1220107*
X714907Y1216500*
X719693*
X749293Y1246100*
X752107*
X753500Y1244707*
Y1216693*
X711200Y1174393*
Y1169907*
X714507Y1166600*
X720093*
X750293Y1196800*
X751907*
X753900Y1194807*
Y1166693*
X711900Y1124693*
Y1121107*
X715307Y1117700*
X719993*
X753993Y1151700*
X771593*
X775200Y1155307*
Y1509493*
X742193Y1542500*
X642493*
X639400Y1545593*
Y1564193*
X636293Y1567300*
X618600*
Y1566093*
X1317193Y1566100D02*
X1324200Y1559093D01*
Y1525907*
X1315193Y1516900*
X1243093*
X1216500Y1490307*
Y1485193*
X1240900Y1460793*
Y1457207*
X1236993Y1453300*
X1233107*
X1206807Y1479600*
X1205193*
X1199200Y1473607*
Y1451793*
X1240300Y1410693*
Y1407507*
X1236393Y1403600*
X1233107*
X1203407Y1433300*
X1201893*
X1199200Y1430607*
Y1402093*
X1240700Y1360593*
Y1357507*
X1236593Y1353400*
X1232807*
X1202307Y1383900*
X1200993*
X1199000Y1381907*
Y1352193*
X1240700Y1310493*
Y1307307*
X1236893Y1303500*
X1232707*
X1202407Y1333800*
X1200793*
X1198900Y1331907*
Y1301993*
X1241200Y1259693*
Y1257407*
X1236693Y1252900*
X1234007*
X1200807Y1286100*
X1199893*
X1198900Y1285107*
Y1251693*
X1240600Y1209993*
Y1206907*
X1237193Y1203500*
X1233107*
X1202507Y1234100*
X1200993*
X1198800Y1231907*
Y1201893*
X1240500Y1160193*
Y1156907*
X1236793Y1153200*
X1233407*
X1204707Y1181900*
X1201293*
X1199100Y1179707*
Y1152193*
X1240000Y1111293*
Y1106807*
X1236593Y1103400*
X1232807*
X1191807Y1144400*
X1184607*
X1179000Y1150007*
Y1490093*
X1231807Y1542900*
X1292907*
X1298000Y1547993*
Y1559593*
X1304507Y1566100*
X1317193*
X740006Y1474199D02*
X750200D01*
X739106Y1473299D02*
X750200D01*
X738206Y1472399D02*
X750200D01*
X737306Y1471499D02*
X750200D01*
X736406Y1470599D02*
X750200D01*
X740906Y1475099D02*
X749894D01*
X735506Y1469699D02*
X749392D01*
X741806Y1475999D02*
X748994D01*
X734606Y1468799D02*
X748492D01*
X742706Y1476899D02*
X748094D01*
X733706Y1467899D02*
X747592D01*
X743606Y1477799D02*
X747194D01*
X732806Y1466999D02*
X746692D01*
X731906Y1466099D02*
X745792D01*
X731006Y1465199D02*
X744892D01*
X730106Y1464299D02*
X743992D01*
X729206Y1463399D02*
X743092D01*
X728306Y1462499D02*
X742192D01*
X727406Y1461599D02*
X741292D01*
X687508Y1460699D02*
X740392D01*
X688408Y1459799D02*
X739492D01*
X689308Y1458899D02*
X738592D01*
X690208Y1457999D02*
X737692D01*
X691108Y1457099D02*
X736792D01*
X692008Y1456199D02*
X735892D01*
X692908Y1455299D02*
X734992D01*
X693808Y1454399D02*
X734092D01*
X694708Y1453499D02*
X733192D01*
X695608Y1452599D02*
X732292D01*
X696508Y1451699D02*
X731392D01*
X697408Y1450799D02*
X730492D01*
X687400Y1461599D02*
X701294D01*
X687400Y1462499D02*
X700394D01*
X687400Y1463399D02*
X699494D01*
X688006Y1464299D02*
X698594D01*
X688906Y1465199D02*
X697694D01*
X689806Y1466099D02*
X696794D01*
X690706Y1466999D02*
X695894D01*
X739506Y1427799D02*
X750600D01*
X738606Y1426899D02*
X750600D01*
X737706Y1425999D02*
X750600D01*
X736806Y1425099D02*
X750600D01*
X735906Y1424199D02*
X750592D01*
X740406Y1428699D02*
X749894D01*
X735006Y1423299D02*
X749692D01*
X741306Y1429599D02*
X748994D01*
X734106Y1422399D02*
X748792D01*
X742206Y1430499D02*
X748094D01*
X733206Y1421499D02*
X747892D01*
X743100Y1431399D02*
X747194D01*
X732306Y1420599D02*
X746992D01*
X731406Y1419699D02*
X746092D01*
X730506Y1418799D02*
X745192D01*
X729606Y1417899D02*
X744292D01*
X728706Y1416999D02*
X743392D01*
X727806Y1416099D02*
X742492D01*
X726906Y1415199D02*
X741592D01*
X726006Y1414299D02*
X740692D01*
X725106Y1413399D02*
X739792D01*
X724206Y1412499D02*
X738892D01*
X723306Y1411599D02*
X737992D01*
X722406Y1410699D02*
X737092D01*
X721506Y1409799D02*
X736192D01*
X720606Y1408899D02*
X735292D01*
X719706Y1407999D02*
X734392D01*
X691408Y1407099D02*
X733492D01*
X692308Y1406199D02*
X732592D01*
X693208Y1405299D02*
X731692D01*
X694108Y1404399D02*
X730792D01*
X695008Y1403499D02*
X729892D01*
X695908Y1402599D02*
X728992D01*
X696808Y1401699D02*
X728092D01*
X697708Y1400799D02*
X727192D01*
X698608Y1399899D02*
X726292D01*
X699508Y1398999D02*
X725392D01*
X700408Y1398099D02*
X724492D01*
X701308Y1397199D02*
X723592D01*
X690508Y1407999D02*
X705594D01*
X689608Y1408899D02*
X704694D01*
X688708Y1409799D02*
X703794D01*
X688100Y1410699D02*
X702894D01*
X688100Y1411599D02*
X701994D01*
X688100Y1412499D02*
X701094D01*
X688100Y1413399D02*
X700194D01*
X688306Y1414299D02*
X699294D01*
X689206Y1415199D02*
X698394D01*
X690106Y1416099D02*
X697494D01*
X691006Y1416999D02*
X696594D01*
X691906Y1417899D02*
X695694D01*
X740106Y1374699D02*
X750700D01*
X739206Y1373799D02*
X750700D01*
X738306Y1372899D02*
X750700D01*
X737406Y1371999D02*
X750700D01*
X736506Y1371099D02*
X750700D01*
X741006Y1375599D02*
X750294D01*
X735606Y1370199D02*
X749992D01*
X741906Y1376499D02*
X749394D01*
X734706Y1369299D02*
X749092D01*
X742806Y1377399D02*
X748494D01*
X733806Y1368399D02*
X748192D01*
X732906Y1367499D02*
X747292D01*
X732006Y1366599D02*
X746392D01*
X731106Y1365699D02*
X745492D01*
X730206Y1364799D02*
X744592D01*
X729306Y1363899D02*
X743692D01*
X728406Y1362999D02*
X742792D01*
X727506Y1362099D02*
X741892D01*
X726606Y1361199D02*
X740992D01*
X725706Y1360299D02*
X740092D01*
X724806Y1359399D02*
X739192D01*
X723906Y1358499D02*
X738292D01*
X723006Y1357599D02*
X737392D01*
X722106Y1356699D02*
X736492D01*
X691908Y1355799D02*
X735592D01*
X692808Y1354899D02*
X734692D01*
X693708Y1353999D02*
X733792D01*
X694608Y1353099D02*
X732892D01*
X695508Y1352199D02*
X731992D01*
X696408Y1351299D02*
X731092D01*
X697308Y1350399D02*
X730192D01*
X698208Y1349499D02*
X729292D01*
X699108Y1348599D02*
X728392D01*
X700008Y1347699D02*
X727492D01*
X700908Y1346799D02*
X726592D01*
X691008Y1356699D02*
X706394D01*
X690108Y1357599D02*
X705494D01*
X689208Y1358499D02*
X704594D01*
X688308Y1359399D02*
X703694D01*
X688300Y1360299D02*
X702794D01*
X688300Y1361199D02*
X701894D01*
X688300Y1362099D02*
X700994D01*
X688300Y1362999D02*
X700094D01*
X688406Y1363899D02*
X699194D01*
X689306Y1364799D02*
X698294D01*
X690206Y1365699D02*
X697394D01*
X691106Y1366599D02*
X696494D01*
X692006Y1367499D02*
X695594D01*
X738906Y1325499D02*
X750100D01*
X738006Y1324599D02*
X750100D01*
X737106Y1323699D02*
X750100D01*
X739806Y1326399D02*
X749994D01*
X736206Y1322799D02*
X749892D01*
X740706Y1327299D02*
X749094D01*
X735306Y1321899D02*
X748992D01*
X741606Y1328199D02*
X748194D01*
X734406Y1320999D02*
X748092D01*
X742506Y1329099D02*
X747294D01*
X733506Y1320099D02*
X747192D01*
X743406Y1329999D02*
X746394D01*
X732606Y1319199D02*
X746292D01*
X731706Y1318299D02*
X745392D01*
X730806Y1317399D02*
X744492D01*
X729906Y1316499D02*
X743592D01*
X729006Y1315599D02*
X742692D01*
X728106Y1314699D02*
X741792D01*
X727206Y1313799D02*
X740892D01*
X726306Y1312899D02*
X739992D01*
X725406Y1311999D02*
X739092D01*
X724506Y1311099D02*
X738192D01*
X723606Y1310199D02*
X737292D01*
X722706Y1309299D02*
X736392D01*
X721806Y1308399D02*
X735492D01*
X720906Y1307499D02*
X734592D01*
X691908Y1306599D02*
X733692D01*
X692808Y1305699D02*
X732792D01*
X693708Y1304799D02*
X731892D01*
X694608Y1303899D02*
X730992D01*
X695508Y1302999D02*
X730092D01*
X696408Y1302099D02*
X729192D01*
X697308Y1301199D02*
X728292D01*
X698208Y1300299D02*
X727392D01*
X699108Y1299399D02*
X726492D01*
X700008Y1298499D02*
X725592D01*
X700908Y1297599D02*
X724692D01*
X691008Y1307499D02*
X705694D01*
X690108Y1308399D02*
X704794D01*
X689208Y1309299D02*
X703894D01*
X688308Y1310199D02*
X702994D01*
X688000Y1311099D02*
X702094D01*
X688000Y1311999D02*
X701194D01*
X688000Y1312899D02*
X700294D01*
X688006Y1313799D02*
X699394D01*
X688906Y1314699D02*
X698494D01*
X689806Y1315599D02*
X697594D01*
X690706Y1316499D02*
X696694D01*
X740106Y1274899D02*
X750500D01*
X739206Y1273999D02*
X750500D01*
X738306Y1273099D02*
X750500D01*
X737406Y1272199D02*
X750500D01*
X736506Y1271299D02*
X750500D01*
X741006Y1275799D02*
X749894D01*
X735606Y1270399D02*
X749692D01*
X741906Y1276699D02*
X748994D01*
X734706Y1269499D02*
X748792D01*
X742806Y1277599D02*
X748094D01*
X733806Y1268599D02*
X747892D01*
X743700Y1278499D02*
X747194D01*
X732906Y1267699D02*
X746992D01*
X732006Y1266799D02*
X746092D01*
X731106Y1265899D02*
X745192D01*
X730206Y1264999D02*
X744292D01*
X729306Y1264099D02*
X743392D01*
X728406Y1263199D02*
X742492D01*
X727506Y1262299D02*
X741592D01*
X726606Y1261399D02*
X740692D01*
X725706Y1260499D02*
X739792D01*
X724806Y1259599D02*
X738892D01*
X723906Y1258699D02*
X737992D01*
X723006Y1257799D02*
X737092D01*
X722106Y1256899D02*
X736192D01*
X692308Y1255999D02*
X735292D01*
X693208Y1255099D02*
X734392D01*
X694108Y1254199D02*
X733492D01*
X695008Y1253299D02*
X732592D01*
X695908Y1252399D02*
X731692D01*
X696808Y1251499D02*
X730792D01*
X697708Y1250599D02*
X729892D01*
X698608Y1249699D02*
X728992D01*
X699508Y1248799D02*
X728092D01*
X700408Y1247899D02*
X727192D01*
X701308Y1246999D02*
X726292D01*
X691408Y1256899D02*
X706294D01*
X690508Y1257799D02*
X705394D01*
X689608Y1258699D02*
X704494D01*
X688708Y1259599D02*
X703594D01*
X688600Y1260499D02*
X702694D01*
X688600Y1261399D02*
X701794D01*
X688600Y1262299D02*
X700894D01*
X688600Y1263199D02*
X699994D01*
X688600Y1264099D02*
X699094D01*
X689306Y1264999D02*
X698194D01*
X690206Y1265899D02*
X697294D01*
X691106Y1266799D02*
X696394D01*
X739506Y1224299D02*
X750500D01*
X738606Y1223399D02*
X750500D01*
X737706Y1222499D02*
X750500D01*
X736806Y1221599D02*
X750500D01*
X735906Y1220699D02*
X750092D01*
X740406Y1225199D02*
X749694D01*
X735006Y1219799D02*
X749192D01*
X741306Y1226099D02*
X748794D01*
X734106Y1218899D02*
X748292D01*
X742206Y1226999D02*
X747894D01*
X733206Y1217999D02*
X747392D01*
X742800Y1227899D02*
X746994D01*
X732306Y1217099D02*
X746492D01*
X731406Y1216199D02*
X745592D01*
X730506Y1215299D02*
X744692D01*
X729606Y1214399D02*
X743792D01*
X728706Y1213499D02*
X742892D01*
X727806Y1212599D02*
X741992D01*
X726906Y1211699D02*
X741092D01*
X726006Y1210799D02*
X740192D01*
X725106Y1209899D02*
X739292D01*
X724206Y1208999D02*
X738392D01*
X723306Y1208099D02*
X737492D01*
X722406Y1207199D02*
X736592D01*
X721506Y1206299D02*
X735692D01*
X693208Y1205399D02*
X734792D01*
X694108Y1204499D02*
X733892D01*
X695008Y1203599D02*
X732992D01*
X695908Y1202699D02*
X732092D01*
X696808Y1201799D02*
X731192D01*
X697708Y1200899D02*
X730292D01*
X698608Y1199999D02*
X729392D01*
X699508Y1199099D02*
X728492D01*
X700408Y1198199D02*
X727592D01*
X701308Y1197299D02*
X726692D01*
X702208Y1196399D02*
X725792D01*
X692308Y1206299D02*
X706794D01*
X691408Y1207199D02*
X705894D01*
X690508Y1208099D02*
X704994D01*
X689608Y1208999D02*
X704094D01*
X688708Y1209899D02*
X703194D01*
X687900Y1210799D02*
X702294D01*
X687900Y1211699D02*
X701394D01*
X687900Y1212599D02*
X700494D01*
X687900Y1213499D02*
X699594D01*
X688406Y1214399D02*
X698694D01*
X689306Y1215299D02*
X697794D01*
X690206Y1216199D02*
X696894D01*
X691106Y1217099D02*
X695994D01*
X740006Y1174699D02*
X750200D01*
X739106Y1173799D02*
X750200D01*
X738206Y1172899D02*
X750200D01*
X737306Y1171999D02*
X750200D01*
X736406Y1171099D02*
X750200D01*
X735506Y1170199D02*
X749492D01*
X740906Y1175599D02*
X749394D01*
X734606Y1169299D02*
X748592D01*
X741806Y1176499D02*
X748494D01*
X733706Y1168399D02*
X747692D01*
X742706Y1177399D02*
X747594D01*
X732806Y1167499D02*
X746792D01*
X731906Y1166599D02*
X745892D01*
X731006Y1165699D02*
X744992D01*
X730106Y1164799D02*
X744092D01*
X729206Y1163899D02*
X743192D01*
X728306Y1162999D02*
X742292D01*
X727406Y1162099D02*
X741392D01*
X726506Y1161199D02*
X740492D01*
X725606Y1160299D02*
X739592D01*
X724706Y1159399D02*
X738692D01*
X723806Y1158499D02*
X737792D01*
X722906Y1157599D02*
X736892D01*
X722006Y1156699D02*
X735992D01*
X721106Y1155799D02*
X735092D01*
X720206Y1154899D02*
X734192D01*
X694708Y1153999D02*
X733292D01*
X695608Y1153099D02*
X732392D01*
X696508Y1152199D02*
X731492D01*
X697408Y1151299D02*
X730592D01*
X698308Y1150399D02*
X729692D01*
X699208Y1149499D02*
X728792D01*
X700108Y1148599D02*
X727892D01*
X701008Y1147699D02*
X726992D01*
X701908Y1146799D02*
X726092D01*
X702808Y1145899D02*
X725192D01*
X703708Y1144999D02*
X724292D01*
X693808Y1154899D02*
X707994D01*
X692908Y1155799D02*
X707094D01*
X692008Y1156699D02*
X706194D01*
X691108Y1157599D02*
X705294D01*
X690208Y1158499D02*
X704394D01*
X689308Y1159399D02*
X703494D01*
X688408Y1160299D02*
X702594D01*
X688000Y1161199D02*
X701694D01*
X688000Y1162099D02*
X700794D01*
X688000Y1162999D02*
X699894D01*
X688000Y1163899D02*
X698994D01*
X688606Y1164799D02*
X698094D01*
X689506Y1165699D02*
X697194D01*
X690406Y1166599D02*
X696294D01*
X691306Y1167499D02*
X695394D01*
X739106Y1123399D02*
X750500D01*
X738206Y1122499D02*
X750500D01*
X737306Y1121599D02*
X750500D01*
X736406Y1120699D02*
X750492D01*
X740006Y1124299D02*
X750194D01*
X735506Y1119799D02*
X749592D01*
X740906Y1125199D02*
X749294D01*
X734606Y1118899D02*
X748692D01*
X741806Y1126099D02*
X748394D01*
X733706Y1117999D02*
X747792D01*
X742706Y1126999D02*
X747494D01*
X732806Y1117099D02*
X746892D01*
X743400Y1127899D02*
X746594D01*
X731906Y1116199D02*
X745992D01*
X731006Y1115299D02*
X745092D01*
X730106Y1114399D02*
X744192D01*
X729206Y1113499D02*
X743292D01*
X728306Y1112599D02*
X742392D01*
X727406Y1111699D02*
X741492D01*
X726506Y1110799D02*
X740592D01*
X725606Y1109899D02*
X739692D01*
X724706Y1108999D02*
X738792D01*
X723806Y1108099D02*
X737892D01*
X690808Y1107199D02*
X736992D01*
X691708Y1106299D02*
X736092D01*
X692608Y1105399D02*
X735192D01*
X693508Y1104499D02*
X734292D01*
X694408Y1103599D02*
X733392D01*
X695308Y1102699D02*
X732492D01*
X696208Y1101799D02*
X731592D01*
X697108Y1100899D02*
X730692D01*
X698008Y1099999D02*
X729792D01*
X698908Y1099099D02*
X728892D01*
X699808Y1098199D02*
X727992D01*
X689908Y1108099D02*
X704794D01*
X689008Y1108999D02*
X703894D01*
X688108Y1109899D02*
X702994D01*
X687600Y1110799D02*
X702094D01*
X687600Y1111699D02*
X701194D01*
X687600Y1112599D02*
X700294D01*
X687606Y1113499D02*
X699394D01*
X688506Y1114399D02*
X698494D01*
X689406Y1115299D02*
X697594D01*
X690306Y1116199D02*
X696694D01*
X691206Y1117099D02*
X695794D01*
X1256106Y1464199D02*
X1268000D01*
X1255206Y1463299D02*
X1268000D01*
X1254306Y1462399D02*
X1268000D01*
X1253406Y1461499D02*
X1268000D01*
X1252506Y1460599D02*
X1267692D01*
X1257006Y1465099D02*
X1267394D01*
X1251606Y1459699D02*
X1266792D01*
X1257906Y1465999D02*
X1266494D01*
X1250706Y1458799D02*
X1265892D01*
X1258806Y1466899D02*
X1265594D01*
X1249806Y1457899D02*
X1264992D01*
X1259706Y1467799D02*
X1264694D01*
X1248906Y1456999D02*
X1264092D01*
X1248006Y1456099D02*
X1263192D01*
X1247106Y1455199D02*
X1262292D01*
X1246206Y1454299D02*
X1261392D01*
X1245306Y1453399D02*
X1260492D01*
X1244406Y1452499D02*
X1259592D01*
X1243506Y1451599D02*
X1258692D01*
X1242606Y1450699D02*
X1257792D01*
X1241706Y1449799D02*
X1256892D01*
X1240806Y1448899D02*
X1255992D01*
X1239906Y1447999D02*
X1255092D01*
X1212508Y1447099D02*
X1254192D01*
X1213408Y1446199D02*
X1253292D01*
X1214308Y1445299D02*
X1252392D01*
X1215208Y1444399D02*
X1251492D01*
X1216108Y1443499D02*
X1250592D01*
X1217008Y1442599D02*
X1249692D01*
X1217908Y1441699D02*
X1248792D01*
X1218808Y1440799D02*
X1247892D01*
X1219708Y1439899D02*
X1246992D01*
X1220608Y1438999D02*
X1246092D01*
X1221508Y1438099D02*
X1245192D01*
X1211608Y1447999D02*
X1225194D01*
X1210708Y1448899D02*
X1224294D01*
X1209808Y1449799D02*
X1223394D01*
X1208908Y1450699D02*
X1222494D01*
X1208008Y1451599D02*
X1221594D01*
X1207108Y1452499D02*
X1220694D01*
X1206208Y1453399D02*
X1219794D01*
X1205308Y1454299D02*
X1218894D01*
X1204408Y1455199D02*
X1217994D01*
X1203508Y1456099D02*
X1217094D01*
X1202608Y1456999D02*
X1216194D01*
X1202400Y1457899D02*
X1215294D01*
X1202400Y1458799D02*
X1214394D01*
X1202400Y1459699D02*
X1213494D01*
X1202400Y1460599D02*
X1212594D01*
X1202406Y1461499D02*
X1211694D01*
X1203306Y1462399D02*
X1210794D01*
X1204206Y1463299D02*
X1209894D01*
X1205106Y1464199D02*
X1208994D01*
X1255706Y1413199D02*
X1267400D01*
X1254806Y1412299D02*
X1267400D01*
X1253906Y1411399D02*
X1267400D01*
X1256606Y1414099D02*
X1267394D01*
X1253006Y1410499D02*
X1266992D01*
X1257506Y1414999D02*
X1266494D01*
X1252106Y1409599D02*
X1266092D01*
X1258406Y1415899D02*
X1265594D01*
X1251206Y1408699D02*
X1265192D01*
X1259306Y1416799D02*
X1264694D01*
X1250306Y1407799D02*
X1264292D01*
X1249406Y1406899D02*
X1263392D01*
X1248506Y1405999D02*
X1262492D01*
X1247606Y1405099D02*
X1261592D01*
X1246706Y1404199D02*
X1260692D01*
X1245806Y1403299D02*
X1259792D01*
X1244906Y1402399D02*
X1258892D01*
X1244006Y1401499D02*
X1257992D01*
X1243106Y1400599D02*
X1257092D01*
X1242206Y1399699D02*
X1256192D01*
X1241306Y1398799D02*
X1255292D01*
X1211108Y1397899D02*
X1254392D01*
X1212008Y1396999D02*
X1253492D01*
X1212908Y1396099D02*
X1252592D01*
X1213808Y1395199D02*
X1251692D01*
X1214708Y1394299D02*
X1250792D01*
X1215608Y1393399D02*
X1249892D01*
X1216508Y1392499D02*
X1248992D01*
X1217408Y1391599D02*
X1248092D01*
X1218308Y1390699D02*
X1247192D01*
X1219208Y1389799D02*
X1246292D01*
X1220108Y1388899D02*
X1245392D01*
X1210208Y1398799D02*
X1224694D01*
X1209308Y1399699D02*
X1223794D01*
X1208408Y1400599D02*
X1222894D01*
X1207508Y1401499D02*
X1221994D01*
X1206608Y1402399D02*
X1221094D01*
X1205708Y1403299D02*
X1220194D01*
X1204808Y1404199D02*
X1219294D01*
X1203908Y1405099D02*
X1218394D01*
X1203008Y1405999D02*
X1217494D01*
X1202108Y1406899D02*
X1216594D01*
X1202000Y1407799D02*
X1215694D01*
X1202000Y1408699D02*
X1214794D01*
X1202000Y1409599D02*
X1213894D01*
X1202000Y1410499D02*
X1212994D01*
X1202000Y1411399D02*
X1212094D01*
X1202000Y1412299D02*
X1211194D01*
X1202106Y1413199D02*
X1210294D01*
X1203006Y1414099D02*
X1209394D01*
X1254706Y1364099D02*
X1268000D01*
X1253806Y1363199D02*
X1268000D01*
X1252906Y1362299D02*
X1268000D01*
X1252006Y1361399D02*
X1268000D01*
X1251106Y1360499D02*
X1268000D01*
X1250206Y1359599D02*
X1267592D01*
X1255606Y1364999D02*
X1267194D01*
X1249306Y1358699D02*
X1266692D01*
X1256506Y1365899D02*
X1266294D01*
X1248406Y1357799D02*
X1265792D01*
X1257406Y1366799D02*
X1265394D01*
X1247506Y1356899D02*
X1264892D01*
X1258306Y1367699D02*
X1264494D01*
X1246606Y1355999D02*
X1263992D01*
X1245706Y1355099D02*
X1263092D01*
X1244806Y1354199D02*
X1262192D01*
X1243906Y1353299D02*
X1261292D01*
X1243006Y1352399D02*
X1260392D01*
X1242106Y1351499D02*
X1259492D01*
X1241206Y1350599D02*
X1258592D01*
X1240306Y1349699D02*
X1257692D01*
X1210008Y1348799D02*
X1256792D01*
X1210908Y1347899D02*
X1255892D01*
X1211808Y1346999D02*
X1254992D01*
X1212708Y1346099D02*
X1254092D01*
X1213608Y1345199D02*
X1253192D01*
X1214508Y1344299D02*
X1252292D01*
X1215408Y1343399D02*
X1251392D01*
X1216308Y1342499D02*
X1250492D01*
X1217208Y1341599D02*
X1249592D01*
X1218108Y1340699D02*
X1248692D01*
X1219008Y1339799D02*
X1247792D01*
X1209108Y1349699D02*
X1224094D01*
X1208208Y1350599D02*
X1223194D01*
X1207308Y1351499D02*
X1222294D01*
X1206408Y1352399D02*
X1221394D01*
X1205508Y1353299D02*
X1220494D01*
X1204608Y1354199D02*
X1219594D01*
X1203708Y1355099D02*
X1218694D01*
X1202808Y1355999D02*
X1217794D01*
X1202000Y1356899D02*
X1216894D01*
X1202000Y1357799D02*
X1215994D01*
X1202000Y1358699D02*
X1215094D01*
X1202000Y1359599D02*
X1214194D01*
X1202000Y1360499D02*
X1213294D01*
X1202000Y1361399D02*
X1212394D01*
X1202206Y1362299D02*
X1211494D01*
X1203106Y1363199D02*
X1210594D01*
X1204006Y1364099D02*
X1209694D01*
X1256906Y1314599D02*
X1269300D01*
X1256006Y1313699D02*
X1269300D01*
X1255106Y1312799D02*
X1269300D01*
X1254206Y1311899D02*
X1269300D01*
X1253306Y1310999D02*
X1269300D01*
X1252406Y1310099D02*
X1269300D01*
X1257806Y1315499D02*
X1268894D01*
X1251506Y1309199D02*
X1268692D01*
X1258706Y1316399D02*
X1267994D01*
X1250606Y1308299D02*
X1267792D01*
X1259606Y1317299D02*
X1267094D01*
X1249706Y1307399D02*
X1266892D01*
X1259700Y1318199D02*
X1266194D01*
X1248806Y1306499D02*
X1265992D01*
X1247906Y1305599D02*
X1265092D01*
X1247006Y1304699D02*
X1264192D01*
X1246106Y1303799D02*
X1263292D01*
X1245206Y1302899D02*
X1262392D01*
X1244306Y1301999D02*
X1261492D01*
X1243406Y1301099D02*
X1260592D01*
X1242506Y1300199D02*
X1259692D01*
X1241606Y1299299D02*
X1258792D01*
X1210808Y1298399D02*
X1257892D01*
X1211708Y1297499D02*
X1256992D01*
X1212608Y1296599D02*
X1256092D01*
X1213508Y1295699D02*
X1255192D01*
X1214408Y1294799D02*
X1254292D01*
X1215308Y1293899D02*
X1253392D01*
X1216208Y1292999D02*
X1252492D01*
X1217108Y1292099D02*
X1251592D01*
X1218008Y1291199D02*
X1250692D01*
X1218908Y1290299D02*
X1249792D01*
X1219808Y1289399D02*
X1248892D01*
X1209908Y1299299D02*
X1224094D01*
X1209008Y1300199D02*
X1223194D01*
X1208108Y1301099D02*
X1222294D01*
X1207208Y1301999D02*
X1221394D01*
X1206308Y1302899D02*
X1220494D01*
X1205408Y1303799D02*
X1219594D01*
X1204508Y1304699D02*
X1218694D01*
X1203608Y1305599D02*
X1217794D01*
X1202708Y1306499D02*
X1216894D01*
X1202100Y1307399D02*
X1215994D01*
X1202100Y1308299D02*
X1215094D01*
X1202100Y1309199D02*
X1214194D01*
X1202100Y1310099D02*
X1213294D01*
X1202306Y1310999D02*
X1212394D01*
X1203206Y1311899D02*
X1211494D01*
X1204106Y1312799D02*
X1210594D01*
X1205006Y1313699D02*
X1209694D01*
X1256206Y1263699D02*
X1267700D01*
X1255306Y1262799D02*
X1267700D01*
X1254406Y1261899D02*
X1267700D01*
X1253506Y1260999D02*
X1267692D01*
X1257106Y1264599D02*
X1266894D01*
X1252606Y1260099D02*
X1266792D01*
X1258006Y1265499D02*
X1265994D01*
X1251706Y1259199D02*
X1265892D01*
X1258906Y1266399D02*
X1265094D01*
X1250806Y1258299D02*
X1264992D01*
X1249906Y1257399D02*
X1264092D01*
X1249006Y1256499D02*
X1263192D01*
X1248106Y1255599D02*
X1262292D01*
X1247206Y1254699D02*
X1261392D01*
X1246306Y1253799D02*
X1260492D01*
X1245406Y1252899D02*
X1259592D01*
X1244506Y1251999D02*
X1258692D01*
X1243606Y1251099D02*
X1257792D01*
X1242706Y1250199D02*
X1256892D01*
X1241806Y1249299D02*
X1255992D01*
X1210808Y1248399D02*
X1255092D01*
X1211708Y1247499D02*
X1254192D01*
X1212608Y1246599D02*
X1253292D01*
X1213508Y1245699D02*
X1252392D01*
X1214408Y1244799D02*
X1251492D01*
X1215308Y1243899D02*
X1250592D01*
X1216208Y1242999D02*
X1249692D01*
X1217108Y1242099D02*
X1248792D01*
X1218008Y1241199D02*
X1247892D01*
X1218908Y1240299D02*
X1246992D01*
X1219808Y1239399D02*
X1246092D01*
X1209908Y1249299D02*
X1223794D01*
X1209008Y1250199D02*
X1222894D01*
X1208108Y1251099D02*
X1221994D01*
X1207208Y1251999D02*
X1221094D01*
X1206308Y1252899D02*
X1220194D01*
X1205408Y1253799D02*
X1219294D01*
X1204508Y1254699D02*
X1218394D01*
X1203608Y1255599D02*
X1217494D01*
X1202708Y1256499D02*
X1216594D01*
X1201808Y1257399D02*
X1215694D01*
X1201700Y1258299D02*
X1214794D01*
X1201700Y1259199D02*
X1213894D01*
X1201700Y1260099D02*
X1212994D01*
X1201700Y1260999D02*
X1212094D01*
X1201700Y1261899D02*
X1211194D01*
X1201806Y1262799D02*
X1210294D01*
X1202706Y1263699D02*
X1209394D01*
X1203606Y1264599D02*
X1208494D01*
X1256306Y1214199D02*
X1267200D01*
X1255406Y1213299D02*
X1267200D01*
X1254506Y1212399D02*
X1267200D01*
X1253606Y1211499D02*
X1267200D01*
X1252706Y1210599D02*
X1267200D01*
X1257206Y1215099D02*
X1267194D01*
X1251806Y1209699D02*
X1266692D01*
X1258106Y1215999D02*
X1266294D01*
X1250906Y1208799D02*
X1265792D01*
X1259006Y1216899D02*
X1265394D01*
X1250006Y1207899D02*
X1264892D01*
X1259600Y1217799D02*
X1264494D01*
X1249106Y1206999D02*
X1263992D01*
X1248206Y1206099D02*
X1263092D01*
X1247306Y1205199D02*
X1262192D01*
X1246406Y1204299D02*
X1261292D01*
X1245506Y1203399D02*
X1260392D01*
X1244606Y1202499D02*
X1259492D01*
X1243706Y1201599D02*
X1258592D01*
X1242806Y1200699D02*
X1257692D01*
X1241906Y1199799D02*
X1256792D01*
X1241006Y1198899D02*
X1255892D01*
X1210908Y1197999D02*
X1254992D01*
X1211808Y1197099D02*
X1254092D01*
X1212708Y1196199D02*
X1253192D01*
X1213608Y1195299D02*
X1252292D01*
X1214508Y1194399D02*
X1251392D01*
X1215408Y1193499D02*
X1250492D01*
X1216308Y1192599D02*
X1249592D01*
X1217208Y1191699D02*
X1248692D01*
X1218108Y1190799D02*
X1247792D01*
X1219008Y1189899D02*
X1246892D01*
X1219908Y1188999D02*
X1245992D01*
X1210008Y1198899D02*
X1224294D01*
X1209108Y1199799D02*
X1223394D01*
X1208208Y1200699D02*
X1222494D01*
X1207308Y1201599D02*
X1221594D01*
X1206408Y1202499D02*
X1220694D01*
X1205508Y1203399D02*
X1219794D01*
X1204608Y1204299D02*
X1218894D01*
X1203708Y1205199D02*
X1217994D01*
X1202808Y1206099D02*
X1217094D01*
X1202000Y1206999D02*
X1216194D01*
X1202000Y1207899D02*
X1215294D01*
X1202000Y1208799D02*
X1214394D01*
X1202000Y1209699D02*
X1213494D01*
X1202000Y1210599D02*
X1212594D01*
X1202000Y1211499D02*
X1211694D01*
X1202706Y1212399D02*
X1210794D01*
X1203606Y1213299D02*
X1209894D01*
X1204506Y1214199D02*
X1208994D01*
X1256206Y1163899D02*
X1267200D01*
X1255306Y1162999D02*
X1267200D01*
X1254406Y1162099D02*
X1267200D01*
X1253506Y1161199D02*
X1267200D01*
X1252606Y1160299D02*
X1267200D01*
X1257106Y1164799D02*
X1267094D01*
X1251706Y1159399D02*
X1266392D01*
X1258006Y1165699D02*
X1266194D01*
X1250806Y1158499D02*
X1265492D01*
X1258906Y1166599D02*
X1265294D01*
X1249906Y1157599D02*
X1264592D01*
X1249006Y1156699D02*
X1263692D01*
X1248106Y1155799D02*
X1262792D01*
X1247206Y1154899D02*
X1261892D01*
X1246306Y1153999D02*
X1260992D01*
X1245406Y1153099D02*
X1260092D01*
X1244506Y1152199D02*
X1259192D01*
X1243606Y1151299D02*
X1258292D01*
X1242706Y1150399D02*
X1257392D01*
X1241806Y1149499D02*
X1256492D01*
X1240906Y1148599D02*
X1255592D01*
X1211508Y1147699D02*
X1254692D01*
X1212408Y1146799D02*
X1253792D01*
X1213308Y1145899D02*
X1252892D01*
X1214208Y1144999D02*
X1251992D01*
X1215108Y1144099D02*
X1251092D01*
X1216008Y1143199D02*
X1250192D01*
X1216908Y1142299D02*
X1249292D01*
X1217808Y1141399D02*
X1248392D01*
X1218708Y1140499D02*
X1247492D01*
X1219608Y1139599D02*
X1246592D01*
X1220508Y1138699D02*
X1245692D01*
X1210608Y1148599D02*
X1224794D01*
X1209708Y1149499D02*
X1223894D01*
X1208808Y1150399D02*
X1222994D01*
X1207908Y1151299D02*
X1222094D01*
X1207008Y1152199D02*
X1221194D01*
X1206108Y1153099D02*
X1220294D01*
X1205208Y1153999D02*
X1219394D01*
X1204308Y1154899D02*
X1218494D01*
X1203408Y1155799D02*
X1217594D01*
X1202508Y1156699D02*
X1216694D01*
X1202200Y1157599D02*
X1215794D01*
X1202200Y1158499D02*
X1214894D01*
X1202200Y1159399D02*
X1213994D01*
X1202200Y1160299D02*
X1213094D01*
X1202200Y1161199D02*
X1212194D01*
X1202200Y1162099D02*
X1211294D01*
X1202200Y1162999D02*
X1210394D01*
X1202806Y1163899D02*
X1209494D01*
X1256506Y1114299D02*
X1266900D01*
X1255606Y1113399D02*
X1266900D01*
X1254706Y1112499D02*
X1266900D01*
X1253806Y1111599D02*
X1266900D01*
X1252906Y1110699D02*
X1266900D01*
X1252006Y1109799D02*
X1266492D01*
X1257406Y1115199D02*
X1266094D01*
X1251106Y1108899D02*
X1265592D01*
X1258306Y1116099D02*
X1265194D01*
X1250206Y1107999D02*
X1264692D01*
X1259206Y1116999D02*
X1264294D01*
X1249306Y1107099D02*
X1263792D01*
X1248406Y1106199D02*
X1262892D01*
X1247506Y1105299D02*
X1261992D01*
X1246606Y1104399D02*
X1261092D01*
X1245706Y1103499D02*
X1260192D01*
X1244806Y1102599D02*
X1259292D01*
X1243906Y1101699D02*
X1258392D01*
X1243006Y1100799D02*
X1257492D01*
X1242106Y1099899D02*
X1256592D01*
X1241206Y1098999D02*
X1255692D01*
X1211408Y1098099D02*
X1254792D01*
X1212308Y1097199D02*
X1253892D01*
X1213208Y1096299D02*
X1252992D01*
X1214108Y1095399D02*
X1252092D01*
X1215008Y1094499D02*
X1251192D01*
X1215908Y1093599D02*
X1250292D01*
X1216808Y1092699D02*
X1249392D01*
X1217708Y1091799D02*
X1248492D01*
X1218608Y1090899D02*
X1247592D01*
X1219508Y1089999D02*
X1246692D01*
X1220408Y1089099D02*
X1245792D01*
X1210508Y1098999D02*
X1224394D01*
X1209608Y1099899D02*
X1223494D01*
X1208708Y1100799D02*
X1222594D01*
X1207808Y1101699D02*
X1221694D01*
X1206908Y1102599D02*
X1220794D01*
X1206008Y1103499D02*
X1219894D01*
X1205108Y1104399D02*
X1218994D01*
X1204208Y1105299D02*
X1218094D01*
X1203308Y1106199D02*
X1217194D01*
X1202408Y1107099D02*
X1216294D01*
X1202200Y1107999D02*
X1215394D01*
X1202200Y1108899D02*
X1214494D01*
X1202200Y1109799D02*
X1213594D01*
X1202200Y1110699D02*
X1212694D01*
X1202706Y1111599D02*
X1211794D01*
X1203606Y1112499D02*
X1210894D01*
X1204506Y1113399D02*
X1209994D01*
X600706Y1465099D02*
X612000D01*
X600400Y1464199D02*
X612000D01*
X600400Y1463299D02*
X612000D01*
X600400Y1462399D02*
X612000D01*
X600400Y1461499D02*
X612000D01*
X600400Y1460599D02*
X612000D01*
X600400Y1459699D02*
X612000D01*
X600400Y1458799D02*
X612000D01*
X600400Y1457899D02*
X612000D01*
X600400Y1456999D02*
X612000D01*
X600400Y1456099D02*
X612000D01*
X600400Y1455199D02*
X612000D01*
X600400Y1454299D02*
X612000D01*
X600400Y1453399D02*
X612000D01*
X600006Y1452499D02*
X612000D01*
X599106Y1451599D02*
X612000D01*
X598206Y1450699D02*
X612000D01*
X597306Y1449799D02*
X612000D01*
X596406Y1448899D02*
X612000D01*
X595506Y1447999D02*
X612000D01*
X594606Y1447099D02*
X612000D01*
X601606Y1465999D02*
X611394D01*
X593706Y1446199D02*
X611392D01*
X602506Y1466899D02*
X610494D01*
X592806Y1445299D02*
X610492D01*
X603406Y1467799D02*
X609594D01*
X591906Y1444399D02*
X609592D01*
X591006Y1443499D02*
X608692D01*
X590106Y1442599D02*
X607792D01*
X589206Y1441699D02*
X606892D01*
X588306Y1440799D02*
X605992D01*
X587406Y1439899D02*
X605092D01*
X586506Y1438999D02*
X604192D01*
X585606Y1438099D02*
X603292D01*
X584706Y1437199D02*
X602392D01*
X583806Y1436299D02*
X601492D01*
X582906Y1435399D02*
X600592D01*
X582006Y1434499D02*
X599692D01*
X581106Y1433599D02*
X598792D01*
X580206Y1432699D02*
X597892D01*
X579306Y1431799D02*
X596992D01*
X578406Y1430899D02*
X596092D01*
X577506Y1429999D02*
X595192D01*
X576606Y1429099D02*
X594292D01*
X575706Y1428199D02*
X593392D01*
X574806Y1427299D02*
X592492D01*
X573906Y1426399D02*
X591592D01*
X573006Y1425499D02*
X590692D01*
X572106Y1424599D02*
X589792D01*
X571206Y1423699D02*
X588892D01*
X570306Y1422799D02*
X587992D01*
X569406Y1421899D02*
X587092D01*
X568506Y1420999D02*
X586192D01*
X567606Y1420099D02*
X585292D01*
X566706Y1419199D02*
X584392D01*
X565806Y1418299D02*
X583492D01*
X564906Y1417399D02*
X582592D01*
X564006Y1416499D02*
X581692D01*
X563106Y1415599D02*
X580792D01*
X562206Y1414699D02*
X579892D01*
X561306Y1413799D02*
X578992D01*
X560406Y1412899D02*
X578092D01*
X559506Y1411999D02*
X577192D01*
X558606Y1411099D02*
X576292D01*
X557706Y1410199D02*
X575392D01*
X556806Y1409299D02*
X574492D01*
X555906Y1408399D02*
X573592D01*
X555006Y1407499D02*
X572692D01*
X554106Y1406599D02*
X571792D01*
X553206Y1405699D02*
X570892D01*
X552306Y1404799D02*
X569992D01*
X551406Y1403899D02*
X569092D01*
X550506Y1402999D02*
X568192D01*
X549606Y1402099D02*
X567292D01*
X548706Y1401199D02*
X566392D01*
X547806Y1400299D02*
X565492D01*
X546906Y1399399D02*
X564592D01*
X546006Y1398499D02*
X563692D01*
X545106Y1397599D02*
X562792D01*
X544206Y1396699D02*
X561892D01*
X543306Y1395799D02*
X560992D01*
X542406Y1394899D02*
X560092D01*
X541506Y1393999D02*
X559192D01*
X540606Y1393099D02*
X558292D01*
X539706Y1392199D02*
X557392D01*
X538806Y1391299D02*
X556492D01*
X537906Y1390399D02*
X555592D01*
X537006Y1389499D02*
X554692D01*
X536106Y1388599D02*
X553792D01*
X535206Y1387699D02*
X552892D01*
X534306Y1386799D02*
X551992D01*
X533406Y1385899D02*
X551092D01*
X532506Y1384999D02*
X550192D01*
X531606Y1384099D02*
X549292D01*
X530706Y1383199D02*
X548392D01*
X529806Y1382299D02*
X547492D01*
X528906Y1381399D02*
X546592D01*
X528006Y1380499D02*
X545692D01*
X527106Y1379599D02*
X544792D01*
X526206Y1378699D02*
X543892D01*
X525306Y1377799D02*
X542992D01*
X524406Y1376899D02*
X542092D01*
X523506Y1375999D02*
X541192D01*
X522606Y1375099D02*
X540292D01*
X521706Y1374199D02*
X539392D01*
X520806Y1373299D02*
X538492D01*
X519906Y1372399D02*
X537592D01*
X519006Y1371499D02*
X536692D01*
X518106Y1370599D02*
X535792D01*
X517206Y1369699D02*
X534892D01*
X516306Y1368799D02*
X533992D01*
X515406Y1367899D02*
X533092D01*
X514506Y1366999D02*
X532192D01*
X513606Y1366099D02*
X531292D01*
X512706Y1365199D02*
X530392D01*
X511806Y1364299D02*
X529492D01*
X510906Y1363399D02*
X528592D01*
X510006Y1362499D02*
X527692D01*
X509106Y1361599D02*
X526792D01*
X508206Y1360699D02*
X525892D01*
X507306Y1359799D02*
X524992D01*
X507200Y1358899D02*
X524092D01*
X507200Y1357999D02*
X523192D01*
X507200Y1357099D02*
X522292D01*
X507200Y1356199D02*
X521392D01*
X507200Y1355299D02*
X520492D01*
X507200Y1354399D02*
X519592D01*
X507208Y1353499D02*
X518692D01*
X508108Y1352599D02*
X517792D01*
X509008Y1351699D02*
X516892D01*
X600000Y1414899D02*
X611700D01*
X600000Y1413999D02*
X611700D01*
X600000Y1413099D02*
X611700D01*
X600000Y1412199D02*
X611700D01*
X600000Y1411299D02*
X611700D01*
X600000Y1410399D02*
X611700D01*
X600000Y1409499D02*
X611700D01*
X600000Y1408599D02*
X611700D01*
X600000Y1407699D02*
X611700D01*
X600000Y1406799D02*
X611700D01*
X600000Y1405899D02*
X611700D01*
X599706Y1404999D02*
X611700D01*
X598806Y1404099D02*
X611700D01*
X597906Y1403199D02*
X611700D01*
X597006Y1402299D02*
X611700D01*
X596106Y1401399D02*
X611700D01*
X595206Y1400499D02*
X611700D01*
X594306Y1399599D02*
X611700D01*
X600000Y1415799D02*
X611494D01*
X593406Y1398699D02*
X611392D01*
X600306Y1416699D02*
X610594D01*
X592506Y1397799D02*
X610492D01*
X601206Y1417599D02*
X609694D01*
X591606Y1396899D02*
X609592D01*
X602106Y1418499D02*
X608794D01*
X590706Y1395999D02*
X608692D01*
X589806Y1395099D02*
X607792D01*
X588906Y1394199D02*
X606892D01*
X588006Y1393299D02*
X605992D01*
X587106Y1392399D02*
X605092D01*
X586206Y1391499D02*
X604192D01*
X585306Y1390599D02*
X603292D01*
X584406Y1389699D02*
X602392D01*
X583506Y1388799D02*
X601492D01*
X582606Y1387899D02*
X600592D01*
X581706Y1386999D02*
X599692D01*
X580806Y1386099D02*
X598792D01*
X579906Y1385199D02*
X597892D01*
X579006Y1384299D02*
X596992D01*
X578106Y1383399D02*
X596092D01*
X577206Y1382499D02*
X595192D01*
X576306Y1381599D02*
X594292D01*
X575406Y1380699D02*
X593392D01*
X574506Y1379799D02*
X592492D01*
X573606Y1378899D02*
X591592D01*
X572706Y1377999D02*
X590692D01*
X571806Y1377099D02*
X589792D01*
X570906Y1376199D02*
X588892D01*
X570006Y1375299D02*
X587992D01*
X569106Y1374399D02*
X587092D01*
X568206Y1373499D02*
X586192D01*
X567306Y1372599D02*
X585292D01*
X566406Y1371699D02*
X584392D01*
X565506Y1370799D02*
X583492D01*
X564606Y1369899D02*
X582592D01*
X563706Y1368999D02*
X581692D01*
X562806Y1368099D02*
X580792D01*
X561906Y1367199D02*
X579892D01*
X561006Y1366299D02*
X578992D01*
X560106Y1365399D02*
X578092D01*
X559206Y1364499D02*
X577192D01*
X558306Y1363599D02*
X576292D01*
X557406Y1362699D02*
X575392D01*
X556506Y1361799D02*
X574492D01*
X555606Y1360899D02*
X573592D01*
X554706Y1359999D02*
X572692D01*
X553806Y1359099D02*
X571792D01*
X552906Y1358199D02*
X570892D01*
X552006Y1357299D02*
X569992D01*
X551106Y1356399D02*
X569092D01*
X550206Y1355499D02*
X568192D01*
X549306Y1354599D02*
X567292D01*
X548406Y1353699D02*
X566392D01*
X547506Y1352799D02*
X565492D01*
X546606Y1351899D02*
X564592D01*
X545706Y1350999D02*
X563692D01*
X544806Y1350099D02*
X562792D01*
X543906Y1349199D02*
X561892D01*
X543006Y1348299D02*
X560992D01*
X542106Y1347399D02*
X560092D01*
X541206Y1346499D02*
X559192D01*
X540306Y1345599D02*
X558292D01*
X539406Y1344699D02*
X557392D01*
X538506Y1343799D02*
X556492D01*
X537606Y1342899D02*
X555592D01*
X510106Y1341999D02*
X554692D01*
X509206Y1341099D02*
X553792D01*
X508306Y1340199D02*
X552892D01*
X507406Y1339299D02*
X551992D01*
X506506Y1338399D02*
X551092D01*
X506400Y1337499D02*
X550192D01*
X506400Y1336599D02*
X549292D01*
X506400Y1335699D02*
X548392D01*
X506408Y1334799D02*
X547492D01*
X507308Y1333899D02*
X546592D01*
X508208Y1332999D02*
X545692D01*
X509108Y1332099D02*
X544792D01*
X600200Y1365099D02*
X610500D01*
X600200Y1364199D02*
X610500D01*
X600200Y1363299D02*
X610500D01*
X600200Y1362399D02*
X610500D01*
X600200Y1361499D02*
X610500D01*
X600200Y1360599D02*
X610500D01*
X600200Y1359699D02*
X610500D01*
X600200Y1358799D02*
X610500D01*
X600200Y1357899D02*
X610500D01*
X600200Y1356999D02*
X610500D01*
X600200Y1356099D02*
X610500D01*
X600200Y1355199D02*
X610500D01*
X600200Y1354299D02*
X610500D01*
X600200Y1353399D02*
X610500D01*
X600200Y1352499D02*
X610500D01*
X600200Y1351599D02*
X610500D01*
X600200Y1350699D02*
X610500D01*
X600200Y1349799D02*
X610500D01*
X599706Y1348899D02*
X610500D01*
X598806Y1347999D02*
X610500D01*
X597906Y1347099D02*
X610500D01*
X597006Y1346199D02*
X610500D01*
X596106Y1345299D02*
X610500D01*
X595206Y1344399D02*
X610500D01*
X600200Y1365999D02*
X610394D01*
X594306Y1343499D02*
X609792D01*
X600906Y1366899D02*
X609494D01*
X593406Y1342599D02*
X608892D01*
X601806Y1367799D02*
X608594D01*
X592506Y1341699D02*
X607992D01*
X591606Y1340799D02*
X607092D01*
X590706Y1339899D02*
X606192D01*
X589806Y1338999D02*
X605292D01*
X588906Y1338099D02*
X604392D01*
X588006Y1337199D02*
X603492D01*
X587106Y1336299D02*
X602592D01*
X586206Y1335399D02*
X601692D01*
X585306Y1334499D02*
X600792D01*
X584406Y1333599D02*
X599892D01*
X583506Y1332699D02*
X598992D01*
X582606Y1331799D02*
X598092D01*
X581706Y1330899D02*
X597192D01*
X580806Y1329999D02*
X596292D01*
X579906Y1329099D02*
X595392D01*
X579006Y1328199D02*
X594492D01*
X578106Y1327299D02*
X593592D01*
X577206Y1326399D02*
X592692D01*
X576306Y1325499D02*
X591792D01*
X575406Y1324599D02*
X590892D01*
X574506Y1323699D02*
X589992D01*
X573606Y1322799D02*
X589092D01*
X511306Y1321899D02*
X588192D01*
X510406Y1320999D02*
X587292D01*
X509506Y1320099D02*
X586392D01*
X508606Y1319199D02*
X585492D01*
X507706Y1318299D02*
X584592D01*
X507700Y1317399D02*
X583692D01*
X507700Y1316499D02*
X582792D01*
X507700Y1315599D02*
X581892D01*
X507700Y1314699D02*
X580992D01*
X508408Y1313799D02*
X580092D01*
X509308Y1312899D02*
X579192D01*
X510208Y1311999D02*
X578292D01*
X599606Y1313199D02*
X611700D01*
X598706Y1312299D02*
X611700D01*
X597806Y1311399D02*
X611700D01*
X596906Y1310499D02*
X611700D01*
X600506Y1314099D02*
X611694D01*
X596006Y1309599D02*
X611192D01*
X601406Y1314999D02*
X610794D01*
X595106Y1308699D02*
X610292D01*
X602306Y1315899D02*
X609894D01*
X594206Y1307799D02*
X609392D01*
X603206Y1316799D02*
X608994D01*
X593306Y1306899D02*
X608492D01*
X604106Y1317699D02*
X608094D01*
X592406Y1305999D02*
X607592D01*
X591506Y1305099D02*
X606692D01*
X590606Y1304199D02*
X605792D01*
X589706Y1303299D02*
X604892D01*
X510606Y1302399D02*
X603992D01*
X509706Y1301499D02*
X603092D01*
X508806Y1300599D02*
X602192D01*
X507906Y1299699D02*
X601292D01*
X507400Y1298799D02*
X600392D01*
X507400Y1297899D02*
X599492D01*
X507400Y1296999D02*
X598592D01*
X507400Y1296099D02*
X597692D01*
X507400Y1295199D02*
X596792D01*
X507400Y1294299D02*
X595892D01*
X508008Y1293399D02*
X594992D01*
X508908Y1292499D02*
X594092D01*
X594908Y1264299D02*
X610800D01*
X595808Y1263399D02*
X610800D01*
X596708Y1262499D02*
X610800D01*
X597608Y1261599D02*
X610800D01*
X598508Y1260699D02*
X610800D01*
X599408Y1259799D02*
X610792D01*
X594008Y1265199D02*
X610094D01*
X600308Y1258899D02*
X609892D01*
X593108Y1266099D02*
X609194D01*
X601208Y1257999D02*
X608992D01*
X592208Y1266999D02*
X608294D01*
X602108Y1257099D02*
X608092D01*
X591308Y1267899D02*
X607394D01*
X590408Y1268799D02*
X606494D01*
X589508Y1269699D02*
X605594D01*
X588608Y1270599D02*
X604694D01*
X587708Y1271499D02*
X603794D01*
X510008Y1272399D02*
X602894D01*
X509108Y1273299D02*
X601994D01*
X508208Y1274199D02*
X601094D01*
X508000Y1275099D02*
X600194D01*
X508000Y1275999D02*
X599294D01*
X508000Y1276899D02*
X598394D01*
X508000Y1277799D02*
X597494D01*
X508000Y1278699D02*
X596594D01*
X508000Y1279599D02*
X595694D01*
X508306Y1280499D02*
X594794D01*
X509206Y1281399D02*
X593894D01*
X510106Y1282299D02*
X592994D01*
X511006Y1283199D02*
X592094D01*
X595308Y1223999D02*
X611300D01*
X596208Y1223099D02*
X611300D01*
X597108Y1222199D02*
X611300D01*
X598008Y1221299D02*
X611300D01*
X598908Y1220399D02*
X611300D01*
X599800Y1219499D02*
X611300D01*
X599800Y1218599D02*
X611300D01*
X599800Y1217699D02*
X611300D01*
X599800Y1216799D02*
X611300D01*
X599800Y1215899D02*
X611300D01*
X599800Y1214999D02*
X611300D01*
X599800Y1214099D02*
X611300D01*
X599800Y1213199D02*
X611300D01*
X599800Y1212299D02*
X611300D01*
X599800Y1211399D02*
X611300D01*
X599800Y1210499D02*
X611300D01*
X599800Y1209599D02*
X611292D01*
X594408Y1224899D02*
X611094D01*
X600308Y1208699D02*
X610392D01*
X593508Y1225799D02*
X610194D01*
X601208Y1207799D02*
X609492D01*
X592608Y1226699D02*
X609294D01*
X602108Y1206899D02*
X608592D01*
X591708Y1227599D02*
X608394D01*
X590808Y1228499D02*
X607494D01*
X589908Y1229399D02*
X606594D01*
X589008Y1230299D02*
X605694D01*
X588108Y1231199D02*
X604794D01*
X587208Y1232099D02*
X603894D01*
X586308Y1232999D02*
X602994D01*
X585408Y1233899D02*
X602094D01*
X584508Y1234799D02*
X601194D01*
X583608Y1235699D02*
X600294D01*
X582708Y1236599D02*
X599394D01*
X581808Y1237499D02*
X598494D01*
X580908Y1238399D02*
X597594D01*
X580008Y1239299D02*
X596694D01*
X579108Y1240199D02*
X595794D01*
X578208Y1241099D02*
X594894D01*
X577308Y1241999D02*
X593994D01*
X576408Y1242899D02*
X593094D01*
X575508Y1243799D02*
X592194D01*
X574608Y1244699D02*
X591294D01*
X573708Y1245599D02*
X590394D01*
X572808Y1246499D02*
X589494D01*
X571908Y1247399D02*
X588594D01*
X571008Y1248299D02*
X587694D01*
X570108Y1249199D02*
X586794D01*
X569208Y1250099D02*
X585894D01*
X568308Y1250999D02*
X584994D01*
X567408Y1251899D02*
X584094D01*
X510508Y1252799D02*
X583194D01*
X509608Y1253699D02*
X582294D01*
X508708Y1254599D02*
X581394D01*
X508200Y1255499D02*
X580494D01*
X508200Y1256399D02*
X579594D01*
X508200Y1257299D02*
X578694D01*
X508200Y1258199D02*
X577794D01*
X508200Y1259099D02*
X576894D01*
X508200Y1259999D02*
X575994D01*
X508200Y1260899D02*
X575094D01*
X508806Y1261799D02*
X574194D01*
X509706Y1262699D02*
X573294D01*
X510606Y1263599D02*
X572394D01*
X595008Y1175699D02*
X610700D01*
X595908Y1174799D02*
X610700D01*
X596808Y1173899D02*
X610700D01*
X597708Y1172999D02*
X610700D01*
X598608Y1172099D02*
X610700D01*
X599508Y1171199D02*
X610700D01*
X600400Y1170299D02*
X610700D01*
X600400Y1169399D02*
X610700D01*
X600400Y1168499D02*
X610700D01*
X600400Y1167599D02*
X610700D01*
X600400Y1166699D02*
X610700D01*
X600400Y1165799D02*
X610700D01*
X600400Y1164899D02*
X610700D01*
X600400Y1163999D02*
X610700D01*
X600400Y1163099D02*
X610700D01*
X600400Y1162199D02*
X610700D01*
X600400Y1161299D02*
X610700D01*
X600400Y1160399D02*
X610700D01*
X600400Y1159499D02*
X610392D01*
X594108Y1176599D02*
X610294D01*
X601108Y1158599D02*
X609492D01*
X593208Y1177499D02*
X609394D01*
X602008Y1157699D02*
X608592D01*
X592308Y1178399D02*
X608494D01*
X591408Y1179299D02*
X607594D01*
X590508Y1180199D02*
X606694D01*
X589608Y1181099D02*
X605794D01*
X588708Y1181999D02*
X604894D01*
X587808Y1182899D02*
X603994D01*
X586908Y1183799D02*
X603094D01*
X586008Y1184699D02*
X602194D01*
X585108Y1185599D02*
X601294D01*
X584208Y1186499D02*
X600394D01*
X583308Y1187399D02*
X599494D01*
X582408Y1188299D02*
X598594D01*
X581508Y1189199D02*
X597694D01*
X580608Y1190099D02*
X596794D01*
X579708Y1190999D02*
X595894D01*
X578808Y1191899D02*
X594994D01*
X577908Y1192799D02*
X594094D01*
X577008Y1193699D02*
X593194D01*
X576108Y1194599D02*
X592294D01*
X575208Y1195499D02*
X591394D01*
X574308Y1196399D02*
X590494D01*
X573408Y1197299D02*
X589594D01*
X572508Y1198199D02*
X588694D01*
X571608Y1199099D02*
X587794D01*
X570708Y1199999D02*
X586894D01*
X569808Y1200899D02*
X585994D01*
X568908Y1201799D02*
X585094D01*
X568008Y1202699D02*
X584194D01*
X567108Y1203599D02*
X583294D01*
X566208Y1204499D02*
X582394D01*
X565308Y1205399D02*
X581494D01*
X564408Y1206299D02*
X580594D01*
X563508Y1207199D02*
X579694D01*
X562608Y1208099D02*
X578794D01*
X561708Y1208999D02*
X577894D01*
X560808Y1209899D02*
X576994D01*
X559908Y1210799D02*
X576094D01*
X559008Y1211699D02*
X575194D01*
X558108Y1212599D02*
X574294D01*
X557208Y1213499D02*
X573394D01*
X556308Y1214399D02*
X572494D01*
X555408Y1215299D02*
X571594D01*
X554508Y1216199D02*
X570694D01*
X553608Y1217099D02*
X569794D01*
X552708Y1217999D02*
X568894D01*
X551808Y1218899D02*
X567994D01*
X550908Y1219799D02*
X567094D01*
X550008Y1220699D02*
X566194D01*
X549108Y1221599D02*
X565294D01*
X548208Y1222499D02*
X564394D01*
X547308Y1223399D02*
X563494D01*
X546408Y1224299D02*
X562594D01*
X545508Y1225199D02*
X561694D01*
X544608Y1226099D02*
X560794D01*
X543708Y1226999D02*
X559894D01*
X542808Y1227899D02*
X558994D01*
X541908Y1228799D02*
X558094D01*
X541008Y1229699D02*
X557194D01*
X540108Y1230599D02*
X556294D01*
X539208Y1231499D02*
X555394D01*
X538308Y1232399D02*
X554494D01*
X510508Y1233299D02*
X553594D01*
X509608Y1234199D02*
X552694D01*
X508708Y1235099D02*
X551794D01*
X508100Y1235999D02*
X550894D01*
X508100Y1236899D02*
X549994D01*
X508100Y1237799D02*
X549094D01*
X508100Y1238699D02*
X548194D01*
X508100Y1239599D02*
X547294D01*
X508100Y1240499D02*
X546394D01*
X508506Y1241399D02*
X545494D01*
X509406Y1242299D02*
X544594D01*
X510306Y1243199D02*
X543694D01*
X511206Y1244099D02*
X542794D01*
X595708Y1128899D02*
X611000D01*
X596608Y1127999D02*
X611000D01*
X597508Y1127099D02*
X611000D01*
X598408Y1126199D02*
X611000D01*
X599308Y1125299D02*
X611000D01*
X600208Y1124399D02*
X611000D01*
X600300Y1123499D02*
X611000D01*
X600300Y1122599D02*
X611000D01*
X600300Y1121699D02*
X611000D01*
X600300Y1120799D02*
X611000D01*
X600300Y1119899D02*
X611000D01*
X600300Y1118999D02*
X611000D01*
X600300Y1118099D02*
X611000D01*
X600300Y1117199D02*
X611000D01*
X600300Y1116299D02*
X611000D01*
X600300Y1115399D02*
X611000D01*
X600300Y1114499D02*
X611000D01*
X600300Y1113599D02*
X611000D01*
X600300Y1112699D02*
X611000D01*
X600300Y1111799D02*
X611000D01*
X600300Y1110899D02*
X611000D01*
X600300Y1109999D02*
X611000D01*
X594808Y1129799D02*
X610994D01*
X600408Y1109099D02*
X610592D01*
X593908Y1130699D02*
X610094D01*
X601308Y1108199D02*
X609692D01*
X593008Y1131599D02*
X609194D01*
X592108Y1132499D02*
X608294D01*
X591208Y1133399D02*
X607394D01*
X590308Y1134299D02*
X606494D01*
X589408Y1135199D02*
X605594D01*
X588508Y1136099D02*
X604694D01*
X587608Y1136999D02*
X603794D01*
X586708Y1137899D02*
X602894D01*
X585808Y1138799D02*
X601994D01*
X584908Y1139699D02*
X601094D01*
X584008Y1140599D02*
X600194D01*
X583108Y1141499D02*
X599294D01*
X582208Y1142399D02*
X598394D01*
X581308Y1143299D02*
X597494D01*
X580408Y1144199D02*
X596594D01*
X579508Y1145099D02*
X595694D01*
X578608Y1145999D02*
X594794D01*
X577708Y1146899D02*
X593894D01*
X576808Y1147799D02*
X592994D01*
X575908Y1148699D02*
X592094D01*
X575008Y1149599D02*
X591194D01*
X574108Y1150499D02*
X590294D01*
X573208Y1151399D02*
X589394D01*
X572308Y1152299D02*
X588494D01*
X571408Y1153199D02*
X587594D01*
X570508Y1154099D02*
X586694D01*
X569608Y1154999D02*
X585794D01*
X568708Y1155899D02*
X584894D01*
X567808Y1156799D02*
X583994D01*
X566908Y1157699D02*
X583094D01*
X566008Y1158599D02*
X582194D01*
X565108Y1159499D02*
X581294D01*
X564208Y1160399D02*
X580394D01*
X563308Y1161299D02*
X579494D01*
X562408Y1162199D02*
X578594D01*
X561508Y1163099D02*
X577694D01*
X560608Y1163999D02*
X576794D01*
X559708Y1164899D02*
X575894D01*
X558808Y1165799D02*
X574994D01*
X557908Y1166699D02*
X574094D01*
X557008Y1167599D02*
X573194D01*
X556108Y1168499D02*
X572294D01*
X555208Y1169399D02*
X571394D01*
X554308Y1170299D02*
X570494D01*
X553408Y1171199D02*
X569594D01*
X552508Y1172099D02*
X568694D01*
X551608Y1172999D02*
X567794D01*
X550708Y1173899D02*
X566894D01*
X549808Y1174799D02*
X565994D01*
X548908Y1175699D02*
X565094D01*
X548008Y1176599D02*
X564194D01*
X547108Y1177499D02*
X563294D01*
X546208Y1178399D02*
X562394D01*
X545308Y1179299D02*
X561494D01*
X544408Y1180199D02*
X560594D01*
X543508Y1181099D02*
X559694D01*
X542608Y1181999D02*
X558794D01*
X541708Y1182899D02*
X557894D01*
X540808Y1183799D02*
X556994D01*
X539908Y1184699D02*
X556094D01*
X539008Y1185599D02*
X555194D01*
X538108Y1186499D02*
X554294D01*
X537208Y1187399D02*
X553394D01*
X536308Y1188299D02*
X552494D01*
X535408Y1189199D02*
X551594D01*
X534508Y1190099D02*
X550694D01*
X533608Y1190999D02*
X549794D01*
X532708Y1191899D02*
X548894D01*
X531808Y1192799D02*
X547994D01*
X530908Y1193699D02*
X547094D01*
X530008Y1194599D02*
X546194D01*
X529108Y1195499D02*
X545294D01*
X528208Y1196399D02*
X544394D01*
X527308Y1197299D02*
X543494D01*
X526408Y1198199D02*
X542594D01*
X525508Y1199099D02*
X541694D01*
X524608Y1199999D02*
X540794D01*
X523708Y1200899D02*
X539894D01*
X522808Y1201799D02*
X538994D01*
X521908Y1202699D02*
X538094D01*
X521008Y1203599D02*
X537194D01*
X520108Y1204499D02*
X536294D01*
X519208Y1205399D02*
X535394D01*
X518308Y1206299D02*
X534494D01*
X517408Y1207199D02*
X533594D01*
X516508Y1208099D02*
X532694D01*
X515608Y1208999D02*
X531794D01*
X514708Y1209899D02*
X530894D01*
X513808Y1210799D02*
X529994D01*
X512908Y1211699D02*
X529094D01*
X512008Y1212599D02*
X528194D01*
X511108Y1213499D02*
X527294D01*
X510208Y1214399D02*
X526394D01*
X509308Y1215299D02*
X525494D01*
X508408Y1216199D02*
X524594D01*
X508200Y1217099D02*
X523694D01*
X508200Y1217999D02*
X522794D01*
X508200Y1218899D02*
X521894D01*
X508200Y1219799D02*
X520994D01*
X508200Y1220699D02*
X520094D01*
X508706Y1221599D02*
X519194D01*
X509606Y1222499D02*
X518294D01*
X510506Y1223399D02*
X517394D01*
X511406Y1224299D02*
X516494D01*
X1441306Y1220899D02*
X1454200D01*
X1440406Y1219999D02*
X1454200D01*
X1439506Y1219099D02*
X1454200D01*
X1438606Y1218199D02*
X1454200D01*
X1437706Y1217299D02*
X1454200D01*
X1442206Y1221799D02*
X1454194D01*
X1436806Y1216399D02*
X1454192D01*
X1443106Y1222699D02*
X1453294D01*
X1435906Y1215499D02*
X1453292D01*
X1444006Y1223599D02*
X1452394D01*
X1435006Y1214599D02*
X1452392D01*
X1444906Y1224499D02*
X1451494D01*
X1434106Y1213699D02*
X1451492D01*
X1445806Y1225399D02*
X1450594D01*
X1433206Y1212799D02*
X1450592D01*
X1446706Y1226299D02*
X1449694D01*
X1432306Y1211899D02*
X1449692D01*
X1447606Y1227199D02*
X1448794D01*
X1431406Y1210999D02*
X1448792D01*
X1430506Y1210099D02*
X1447892D01*
X1429606Y1209199D02*
X1446992D01*
X1428706Y1208299D02*
X1446092D01*
X1427806Y1207399D02*
X1445192D01*
X1426906Y1206499D02*
X1444292D01*
X1426006Y1205599D02*
X1443392D01*
X1425106Y1204699D02*
X1442492D01*
X1424206Y1203799D02*
X1441592D01*
X1423306Y1202899D02*
X1440692D01*
X1422406Y1201999D02*
X1439792D01*
X1421506Y1201099D02*
X1438892D01*
X1420606Y1200199D02*
X1437992D01*
X1419706Y1199299D02*
X1437092D01*
X1418806Y1198399D02*
X1436192D01*
X1417906Y1197499D02*
X1435292D01*
X1417006Y1196599D02*
X1434392D01*
X1416106Y1195699D02*
X1433492D01*
X1415206Y1194799D02*
X1432592D01*
X1414306Y1193899D02*
X1431692D01*
X1413406Y1192999D02*
X1430792D01*
X1412506Y1192099D02*
X1429892D01*
X1411606Y1191199D02*
X1428992D01*
X1410706Y1190299D02*
X1428092D01*
X1409806Y1189399D02*
X1427192D01*
X1408906Y1188499D02*
X1426292D01*
X1408006Y1187599D02*
X1425392D01*
X1407106Y1186699D02*
X1424492D01*
X1406206Y1185799D02*
X1423592D01*
X1405306Y1184899D02*
X1422692D01*
X1404406Y1183999D02*
X1421792D01*
X1403506Y1183099D02*
X1420892D01*
X1402606Y1182199D02*
X1419992D01*
X1401706Y1181299D02*
X1419092D01*
X1400806Y1180399D02*
X1418192D01*
X1399906Y1179499D02*
X1417292D01*
X1399006Y1178599D02*
X1416392D01*
X1398106Y1177699D02*
X1415492D01*
X1397206Y1176799D02*
X1414592D01*
X1396306Y1175899D02*
X1413692D01*
X1395406Y1174999D02*
X1412792D01*
X1394506Y1174099D02*
X1411892D01*
X1393606Y1173199D02*
X1410992D01*
X1392706Y1172299D02*
X1410092D01*
X1391806Y1171399D02*
X1409192D01*
X1390906Y1170499D02*
X1408292D01*
X1390006Y1169599D02*
X1407392D01*
X1389106Y1168699D02*
X1406492D01*
X1388206Y1167799D02*
X1405592D01*
X1387306Y1166899D02*
X1404692D01*
X1386406Y1165999D02*
X1403792D01*
X1385506Y1165099D02*
X1402892D01*
X1384606Y1164199D02*
X1401992D01*
X1383706Y1163299D02*
X1401092D01*
X1382806Y1162399D02*
X1400192D01*
X1381906Y1161499D02*
X1399292D01*
X1381006Y1160599D02*
X1398392D01*
X1380106Y1159699D02*
X1397492D01*
X1379206Y1158799D02*
X1396592D01*
X1378306Y1157899D02*
X1395692D01*
X1377406Y1156999D02*
X1394792D01*
X1376506Y1156099D02*
X1393892D01*
X1375606Y1155199D02*
X1392992D01*
X1374706Y1154299D02*
X1392092D01*
X1373806Y1153399D02*
X1391192D01*
X1372906Y1152499D02*
X1390292D01*
X1372006Y1151599D02*
X1389392D01*
X1371106Y1150699D02*
X1388492D01*
X1370206Y1149799D02*
X1387592D01*
X1369306Y1148899D02*
X1386692D01*
X1368406Y1147999D02*
X1385792D01*
X1367506Y1147099D02*
X1384892D01*
X1366606Y1146199D02*
X1383992D01*
X1365706Y1145299D02*
X1383092D01*
X1364806Y1144399D02*
X1382192D01*
X1363906Y1143499D02*
X1381292D01*
X1363006Y1142599D02*
X1380392D01*
X1362106Y1141699D02*
X1379492D01*
X1361206Y1140799D02*
X1378592D01*
X1360306Y1139899D02*
X1377692D01*
X1359406Y1138999D02*
X1376792D01*
X1358506Y1138099D02*
X1375892D01*
X1357606Y1137199D02*
X1374992D01*
X1356706Y1136299D02*
X1374092D01*
X1355806Y1135399D02*
X1373192D01*
X1354906Y1134499D02*
X1372292D01*
X1354006Y1133599D02*
X1371392D01*
X1353106Y1132699D02*
X1370492D01*
X1352206Y1131799D02*
X1369592D01*
X1351306Y1130899D02*
X1368692D01*
X1350406Y1129999D02*
X1367792D01*
X1349506Y1129099D02*
X1366892D01*
X1348606Y1128199D02*
X1365992D01*
X1347706Y1127299D02*
X1365092D01*
X1346806Y1126399D02*
X1364192D01*
X1345906Y1125499D02*
X1363292D01*
X1345006Y1124599D02*
X1362392D01*
X1344106Y1123699D02*
X1361492D01*
X1344100Y1122799D02*
X1360592D01*
X1344100Y1121899D02*
X1359692D01*
X1344100Y1120999D02*
X1358792D01*
X1344100Y1120099D02*
X1357892D01*
X1344100Y1119199D02*
X1356992D01*
X1344100Y1118299D02*
X1356800D01*
X1344100Y1117399D02*
X1356800D01*
X1344100Y1116499D02*
X1356800D01*
X1344100Y1115599D02*
X1356800D01*
X1344100Y1114699D02*
X1356800D01*
X1344100Y1113799D02*
X1356800D01*
X1344100Y1112899D02*
X1356800D01*
X1344100Y1111999D02*
X1356800D01*
X1344100Y1111099D02*
X1356800D01*
X1344100Y1110199D02*
X1356800D01*
X1344108Y1109299D02*
X1356592D01*
X1345008Y1108399D02*
X1355692D01*
X1345908Y1107499D02*
X1354792D01*
X1346808Y1106599D02*
X1353892D01*
X1400206Y1238899D02*
X1454300D01*
X1399306Y1237999D02*
X1454300D01*
X1398406Y1237099D02*
X1454300D01*
X1397506Y1236199D02*
X1454300D01*
X1401106Y1239799D02*
X1454294D01*
X1396606Y1235299D02*
X1454092D01*
X1402006Y1240699D02*
X1453394D01*
X1395706Y1234399D02*
X1453192D01*
X1402906Y1241599D02*
X1452494D01*
X1394806Y1233499D02*
X1452292D01*
X1403806Y1242499D02*
X1451594D01*
X1393906Y1232599D02*
X1451392D01*
X1404706Y1243399D02*
X1450694D01*
X1405606Y1244299D02*
X1449794D01*
X1393006Y1231699D02*
X1409492D01*
X1392106Y1230799D02*
X1408592D01*
X1391206Y1229899D02*
X1407692D01*
X1390306Y1228999D02*
X1406792D01*
X1389406Y1228099D02*
X1405892D01*
X1388506Y1227199D02*
X1404992D01*
X1387606Y1226299D02*
X1404092D01*
X1386706Y1225399D02*
X1403192D01*
X1385806Y1224499D02*
X1402292D01*
X1384906Y1223599D02*
X1401392D01*
X1384006Y1222699D02*
X1400492D01*
X1383106Y1221799D02*
X1399592D01*
X1382206Y1220899D02*
X1398692D01*
X1381306Y1219999D02*
X1397792D01*
X1380406Y1219099D02*
X1396892D01*
X1379506Y1218199D02*
X1395992D01*
X1378606Y1217299D02*
X1395092D01*
X1377706Y1216399D02*
X1394192D01*
X1376806Y1215499D02*
X1393292D01*
X1375906Y1214599D02*
X1392392D01*
X1375006Y1213699D02*
X1391492D01*
X1374106Y1212799D02*
X1390592D01*
X1373206Y1211899D02*
X1389692D01*
X1372306Y1210999D02*
X1388792D01*
X1371406Y1210099D02*
X1387892D01*
X1370506Y1209199D02*
X1386992D01*
X1369606Y1208299D02*
X1386092D01*
X1368706Y1207399D02*
X1385192D01*
X1367806Y1206499D02*
X1384292D01*
X1366906Y1205599D02*
X1383392D01*
X1366006Y1204699D02*
X1382492D01*
X1365106Y1203799D02*
X1381592D01*
X1364206Y1202899D02*
X1380692D01*
X1363306Y1201999D02*
X1379792D01*
X1362406Y1201099D02*
X1378892D01*
X1361506Y1200199D02*
X1377992D01*
X1360606Y1199299D02*
X1377092D01*
X1359706Y1198399D02*
X1376192D01*
X1358806Y1197499D02*
X1375292D01*
X1357906Y1196599D02*
X1374392D01*
X1357006Y1195699D02*
X1373492D01*
X1356106Y1194799D02*
X1372592D01*
X1355206Y1193899D02*
X1371692D01*
X1354306Y1192999D02*
X1370792D01*
X1353406Y1192099D02*
X1369892D01*
X1352506Y1191199D02*
X1368992D01*
X1351606Y1190299D02*
X1368092D01*
X1350706Y1189399D02*
X1367192D01*
X1349806Y1188499D02*
X1366292D01*
X1348906Y1187599D02*
X1365392D01*
X1348006Y1186699D02*
X1364492D01*
X1347106Y1185799D02*
X1363592D01*
X1346206Y1184899D02*
X1362692D01*
X1345306Y1183999D02*
X1361792D01*
X1344800Y1183099D02*
X1360892D01*
X1344800Y1182199D02*
X1359992D01*
X1344800Y1181299D02*
X1359092D01*
X1344800Y1180399D02*
X1358192D01*
X1344800Y1179499D02*
X1357292D01*
X1344800Y1178599D02*
X1356392D01*
X1344800Y1177699D02*
X1355492D01*
X1344800Y1176799D02*
X1354900D01*
X1344800Y1175899D02*
X1354900D01*
X1344800Y1174999D02*
X1354900D01*
X1344800Y1174099D02*
X1354900D01*
X1344800Y1173199D02*
X1354900D01*
X1344800Y1172299D02*
X1354900D01*
X1344800Y1171399D02*
X1354900D01*
X1344800Y1170499D02*
X1354900D01*
X1344800Y1169599D02*
X1354900D01*
X1344800Y1168699D02*
X1354900D01*
X1344800Y1167799D02*
X1354900D01*
X1344800Y1166899D02*
X1354900D01*
X1344800Y1165999D02*
X1354900D01*
X1344800Y1165099D02*
X1354900D01*
X1344800Y1164199D02*
X1354900D01*
X1344800Y1163299D02*
X1354900D01*
X1344800Y1162399D02*
X1354900D01*
X1344800Y1161499D02*
X1354900D01*
X1344800Y1160599D02*
X1354900D01*
X1344800Y1159699D02*
X1354892D01*
X1344800Y1158799D02*
X1353992D01*
X1345008Y1157899D02*
X1353092D01*
X1345908Y1156999D02*
X1352192D01*
X1375806Y1259999D02*
X1452800D01*
X1374906Y1259099D02*
X1452800D01*
X1374006Y1258199D02*
X1452800D01*
X1373106Y1257299D02*
X1452800D01*
X1372206Y1256399D02*
X1452800D01*
X1371306Y1255499D02*
X1452192D01*
X1376706Y1260899D02*
X1452094D01*
X1370406Y1254599D02*
X1451292D01*
X1377606Y1261799D02*
X1451194D01*
X1369506Y1253699D02*
X1450392D01*
X1378506Y1262699D02*
X1450294D01*
X1368606Y1252799D02*
X1449492D01*
X1367706Y1251899D02*
X1384492D01*
X1366806Y1250999D02*
X1383592D01*
X1365906Y1250099D02*
X1382692D01*
X1365006Y1249199D02*
X1381792D01*
X1364106Y1248299D02*
X1380892D01*
X1363206Y1247399D02*
X1379992D01*
X1362306Y1246499D02*
X1379092D01*
X1361406Y1245599D02*
X1378192D01*
X1360506Y1244699D02*
X1377292D01*
X1359606Y1243799D02*
X1376392D01*
X1358706Y1242899D02*
X1375492D01*
X1357806Y1241999D02*
X1374592D01*
X1356906Y1241099D02*
X1373692D01*
X1356006Y1240199D02*
X1372792D01*
X1355106Y1239299D02*
X1371892D01*
X1354206Y1238399D02*
X1370992D01*
X1353306Y1237499D02*
X1370092D01*
X1352406Y1236599D02*
X1369192D01*
X1351506Y1235699D02*
X1368292D01*
X1350606Y1234799D02*
X1367392D01*
X1349706Y1233899D02*
X1366492D01*
X1348806Y1232999D02*
X1365592D01*
X1347906Y1232099D02*
X1364692D01*
X1347006Y1231199D02*
X1363792D01*
X1346106Y1230299D02*
X1362892D01*
X1345206Y1229399D02*
X1361992D01*
X1344306Y1228499D02*
X1361092D01*
X1343406Y1227599D02*
X1360192D01*
X1343300Y1226699D02*
X1359292D01*
X1343300Y1225799D02*
X1358392D01*
X1343300Y1224899D02*
X1357492D01*
X1343300Y1223999D02*
X1356592D01*
X1343300Y1223099D02*
X1355692D01*
X1343300Y1222199D02*
X1355400D01*
X1343300Y1221299D02*
X1355400D01*
X1343300Y1220399D02*
X1355400D01*
X1343300Y1219499D02*
X1355400D01*
X1343300Y1218599D02*
X1355400D01*
X1343300Y1217699D02*
X1355400D01*
X1343300Y1216799D02*
X1355400D01*
X1343300Y1215899D02*
X1355400D01*
X1343300Y1214999D02*
X1355400D01*
X1343300Y1214099D02*
X1355400D01*
X1343300Y1213199D02*
X1355400D01*
X1343300Y1212299D02*
X1355400D01*
X1343300Y1211399D02*
X1355400D01*
X1344108Y1210499D02*
X1355400D01*
X1345008Y1209599D02*
X1354792D01*
X1345908Y1208699D02*
X1353892D01*
X1346808Y1207799D02*
X1352992D01*
X1358806Y1278599D02*
X1453700D01*
X1357906Y1277699D02*
X1453700D01*
X1357006Y1276799D02*
X1453700D01*
X1356106Y1275899D02*
X1453192D01*
X1359706Y1279499D02*
X1452894D01*
X1355206Y1274999D02*
X1452292D01*
X1360606Y1280399D02*
X1451994D01*
X1354306Y1274099D02*
X1451392D01*
X1361506Y1281299D02*
X1451094D01*
X1353406Y1273199D02*
X1450492D01*
X1362406Y1282199D02*
X1450194D01*
X1363306Y1283099D02*
X1449294D01*
X1352506Y1272299D02*
X1367392D01*
X1351606Y1271399D02*
X1366492D01*
X1350706Y1270499D02*
X1365592D01*
X1349806Y1269599D02*
X1364692D01*
X1348906Y1268699D02*
X1363792D01*
X1348006Y1267799D02*
X1362892D01*
X1347106Y1266899D02*
X1361992D01*
X1346206Y1265999D02*
X1361092D01*
X1345306Y1265099D02*
X1360192D01*
X1344406Y1264199D02*
X1359292D01*
X1344000Y1263299D02*
X1358392D01*
X1344000Y1262399D02*
X1357492D01*
X1344000Y1261499D02*
X1356592D01*
X1344008Y1260599D02*
X1355692D01*
X1344908Y1259699D02*
X1354792D01*
X1345808Y1258799D02*
X1353892D01*
X1346708Y1257899D02*
X1352992D01*
X1354408Y1299099D02*
X1452600D01*
X1355308Y1298199D02*
X1452600D01*
X1356208Y1297299D02*
X1452600D01*
X1357108Y1296399D02*
X1452600D01*
X1358008Y1295499D02*
X1452600D01*
X1353508Y1299999D02*
X1452494D01*
X1358908Y1294599D02*
X1452092D01*
X1352608Y1300899D02*
X1451594D01*
X1359808Y1293699D02*
X1451192D01*
X1351708Y1301799D02*
X1450694D01*
X1360708Y1292799D02*
X1450292D01*
X1350808Y1302699D02*
X1449794D01*
X1361608Y1291899D02*
X1449392D01*
X1349908Y1303599D02*
X1366894D01*
X1349008Y1304499D02*
X1365994D01*
X1348108Y1305399D02*
X1365094D01*
X1347208Y1306299D02*
X1364194D01*
X1346308Y1307199D02*
X1363294D01*
X1345408Y1308099D02*
X1362394D01*
X1344508Y1308999D02*
X1361494D01*
X1344400Y1309899D02*
X1360594D01*
X1344400Y1310799D02*
X1359694D01*
X1344400Y1311699D02*
X1358794D01*
X1344400Y1312599D02*
X1357894D01*
X1344400Y1313499D02*
X1356994D01*
X1344400Y1314399D02*
X1356094D01*
X1344506Y1315299D02*
X1355194D01*
X1345406Y1316199D02*
X1354294D01*
X1346306Y1317099D02*
X1353394D01*
X1347206Y1317999D02*
X1352494D01*
X1368608Y1319699D02*
X1452300D01*
X1369508Y1318799D02*
X1452300D01*
X1370408Y1317899D02*
X1452300D01*
X1371308Y1316999D02*
X1452300D01*
X1372208Y1316099D02*
X1452300D01*
X1367708Y1320599D02*
X1451494D01*
X1373108Y1315199D02*
X1451492D01*
X1366808Y1321499D02*
X1450594D01*
X1374008Y1314299D02*
X1450592D01*
X1365908Y1322399D02*
X1449694D01*
X1374908Y1313399D02*
X1449692D01*
X1375808Y1312499D02*
X1448792D01*
X1365008Y1323299D02*
X1380894D01*
X1364108Y1324199D02*
X1379994D01*
X1363208Y1325099D02*
X1379094D01*
X1362308Y1325999D02*
X1378194D01*
X1361408Y1326899D02*
X1377294D01*
X1360508Y1327799D02*
X1376394D01*
X1359608Y1328699D02*
X1375494D01*
X1358708Y1329599D02*
X1374594D01*
X1357808Y1330499D02*
X1373694D01*
X1356908Y1331399D02*
X1372794D01*
X1356008Y1332299D02*
X1371894D01*
X1355108Y1333199D02*
X1370994D01*
X1354208Y1334099D02*
X1370094D01*
X1353308Y1334999D02*
X1369194D01*
X1352408Y1335899D02*
X1368294D01*
X1351508Y1336799D02*
X1367394D01*
X1350608Y1337699D02*
X1366494D01*
X1349708Y1338599D02*
X1365594D01*
X1348808Y1339499D02*
X1364694D01*
X1347908Y1340399D02*
X1363794D01*
X1347008Y1341299D02*
X1362894D01*
X1346108Y1342199D02*
X1361994D01*
X1345208Y1343099D02*
X1361094D01*
X1344800Y1343999D02*
X1360194D01*
X1344800Y1344899D02*
X1359294D01*
X1344800Y1345799D02*
X1358394D01*
X1344800Y1346699D02*
X1357494D01*
X1344800Y1347599D02*
X1356594D01*
X1344800Y1363799D02*
X1355800D01*
X1344800Y1362899D02*
X1355800D01*
X1344800Y1361999D02*
X1355800D01*
X1344800Y1361099D02*
X1355800D01*
X1344800Y1360199D02*
X1355800D01*
X1344800Y1359299D02*
X1355800D01*
X1344800Y1358399D02*
X1355800D01*
X1344800Y1357499D02*
X1355800D01*
X1344800Y1356599D02*
X1355800D01*
X1344800Y1355699D02*
X1355800D01*
X1344800Y1354799D02*
X1355800D01*
X1344800Y1353899D02*
X1355800D01*
X1344800Y1352999D02*
X1355800D01*
X1344800Y1352099D02*
X1355800D01*
X1344800Y1351199D02*
X1355800D01*
X1344800Y1350299D02*
X1355800D01*
X1344800Y1349399D02*
X1355800D01*
X1344800Y1348499D02*
X1355800D01*
X1344800Y1364699D02*
X1355494D01*
X1345206Y1365599D02*
X1354594D01*
X1346106Y1366499D02*
X1353694D01*
X1347006Y1367399D02*
X1352794D01*
X1405608Y1338999D02*
X1453300D01*
X1406508Y1338099D02*
X1453300D01*
X1407408Y1337199D02*
X1453300D01*
X1408308Y1336299D02*
X1453300D01*
X1409208Y1335399D02*
X1453300D01*
X1404708Y1339899D02*
X1452994D01*
X1410108Y1334499D02*
X1452992D01*
X1403808Y1340799D02*
X1452094D01*
X1411008Y1333599D02*
X1452092D01*
X1402908Y1341699D02*
X1451194D01*
X1411908Y1332699D02*
X1451192D01*
X1402008Y1342599D02*
X1450294D01*
X1412808Y1331799D02*
X1450292D01*
X1401108Y1343499D02*
X1417194D01*
X1400208Y1344399D02*
X1416294D01*
X1399308Y1345299D02*
X1415394D01*
X1398408Y1346199D02*
X1414494D01*
X1397508Y1347099D02*
X1413594D01*
X1396608Y1347999D02*
X1412694D01*
X1395708Y1348899D02*
X1411794D01*
X1394808Y1349799D02*
X1410894D01*
X1393908Y1350699D02*
X1409994D01*
X1393008Y1351599D02*
X1409094D01*
X1392108Y1352499D02*
X1408194D01*
X1391208Y1353399D02*
X1407294D01*
X1390308Y1354299D02*
X1406394D01*
X1389408Y1355199D02*
X1405494D01*
X1388508Y1356099D02*
X1404594D01*
X1387608Y1356999D02*
X1403694D01*
X1386708Y1357899D02*
X1402794D01*
X1385808Y1358799D02*
X1401894D01*
X1384908Y1359699D02*
X1400994D01*
X1384008Y1360599D02*
X1400094D01*
X1383108Y1361499D02*
X1399194D01*
X1382208Y1362399D02*
X1398294D01*
X1381308Y1363299D02*
X1397394D01*
X1380408Y1364199D02*
X1396494D01*
X1379508Y1365099D02*
X1395594D01*
X1378608Y1365999D02*
X1394694D01*
X1377708Y1366899D02*
X1393794D01*
X1376808Y1367799D02*
X1392894D01*
X1375908Y1368699D02*
X1391994D01*
X1375008Y1369599D02*
X1391094D01*
X1374108Y1370499D02*
X1390194D01*
X1373208Y1371399D02*
X1389294D01*
X1372308Y1372299D02*
X1388394D01*
X1371408Y1373199D02*
X1387494D01*
X1370508Y1374099D02*
X1386594D01*
X1369608Y1374999D02*
X1385694D01*
X1368708Y1375899D02*
X1384794D01*
X1367808Y1376799D02*
X1383894D01*
X1366908Y1377699D02*
X1382994D01*
X1366008Y1378599D02*
X1382094D01*
X1365108Y1379499D02*
X1381194D01*
X1364208Y1380399D02*
X1380294D01*
X1363308Y1381299D02*
X1379394D01*
X1362408Y1382199D02*
X1378494D01*
X1361508Y1383099D02*
X1377594D01*
X1360608Y1383999D02*
X1376694D01*
X1359708Y1384899D02*
X1375794D01*
X1358808Y1385799D02*
X1374894D01*
X1357908Y1386699D02*
X1373994D01*
X1357008Y1387599D02*
X1373094D01*
X1356108Y1388499D02*
X1372194D01*
X1355208Y1389399D02*
X1371294D01*
X1354308Y1390299D02*
X1370394D01*
X1353408Y1391199D02*
X1369494D01*
X1352508Y1392099D02*
X1368594D01*
X1351608Y1392999D02*
X1367694D01*
X1350708Y1393899D02*
X1366794D01*
X1349808Y1394799D02*
X1365894D01*
X1348908Y1395699D02*
X1364994D01*
X1348008Y1396599D02*
X1364094D01*
X1347108Y1397499D02*
X1363194D01*
X1346208Y1398399D02*
X1362294D01*
X1345308Y1399299D02*
X1361394D01*
X1344800Y1400199D02*
X1360494D01*
X1344800Y1401099D02*
X1359594D01*
X1344800Y1401999D02*
X1358694D01*
X1344800Y1402899D02*
X1357794D01*
X1344800Y1403799D02*
X1356894D01*
X1344800Y1404699D02*
X1355994D01*
X1344800Y1412799D02*
X1355900D01*
X1344800Y1411899D02*
X1355900D01*
X1344800Y1410999D02*
X1355900D01*
X1344800Y1410099D02*
X1355900D01*
X1344800Y1409199D02*
X1355900D01*
X1344800Y1408299D02*
X1355900D01*
X1344800Y1407399D02*
X1355900D01*
X1344800Y1406499D02*
X1355900D01*
X1344800Y1405599D02*
X1355900D01*
X1344800Y1413699D02*
X1355794D01*
X1344800Y1414599D02*
X1354894D01*
X1345006Y1415499D02*
X1353994D01*
X1345906Y1416399D02*
X1353094D01*
X1346806Y1417299D02*
X1352194D01*
X1434908Y1359399D02*
X1452100D01*
X1435808Y1358499D02*
X1452100D01*
X1436708Y1357599D02*
X1452100D01*
X1437608Y1356699D02*
X1452100D01*
X1438508Y1355799D02*
X1452100D01*
X1439408Y1354899D02*
X1452100D01*
X1440308Y1353999D02*
X1452100D01*
X1434008Y1360299D02*
X1451694D01*
X1441208Y1353099D02*
X1451392D01*
X1433108Y1361199D02*
X1450794D01*
X1442108Y1352199D02*
X1450492D01*
X1432208Y1362099D02*
X1449894D01*
X1443008Y1351299D02*
X1449592D01*
X1431308Y1362999D02*
X1448994D01*
X1430408Y1363899D02*
X1448094D01*
X1429508Y1364799D02*
X1447194D01*
X1428608Y1365699D02*
X1446294D01*
X1427708Y1366599D02*
X1445394D01*
X1426808Y1367499D02*
X1444494D01*
X1425908Y1368399D02*
X1443594D01*
X1425008Y1369299D02*
X1442694D01*
X1424108Y1370199D02*
X1441794D01*
X1423208Y1371099D02*
X1440894D01*
X1422308Y1371999D02*
X1439994D01*
X1421408Y1372899D02*
X1439094D01*
X1420508Y1373799D02*
X1438194D01*
X1419608Y1374699D02*
X1437294D01*
X1418708Y1375599D02*
X1436394D01*
X1417808Y1376499D02*
X1435494D01*
X1416908Y1377399D02*
X1434594D01*
X1416008Y1378299D02*
X1433694D01*
X1415108Y1379199D02*
X1432794D01*
X1414208Y1380099D02*
X1431894D01*
X1413308Y1380999D02*
X1430994D01*
X1412408Y1381899D02*
X1430094D01*
X1411508Y1382799D02*
X1429194D01*
X1410608Y1383699D02*
X1428294D01*
X1409708Y1384599D02*
X1427394D01*
X1408808Y1385499D02*
X1426494D01*
X1407908Y1386399D02*
X1425594D01*
X1407008Y1387299D02*
X1424694D01*
X1406108Y1388199D02*
X1423794D01*
X1405208Y1389099D02*
X1422894D01*
X1404308Y1389999D02*
X1421994D01*
X1403408Y1390899D02*
X1421094D01*
X1402508Y1391799D02*
X1420194D01*
X1401608Y1392699D02*
X1419294D01*
X1400708Y1393599D02*
X1418394D01*
X1399808Y1394499D02*
X1417494D01*
X1398908Y1395399D02*
X1416594D01*
X1398008Y1396299D02*
X1415694D01*
X1397108Y1397199D02*
X1414794D01*
X1396208Y1398099D02*
X1413894D01*
X1395308Y1398999D02*
X1412994D01*
X1394408Y1399899D02*
X1412094D01*
X1393508Y1400799D02*
X1411194D01*
X1392608Y1401699D02*
X1410294D01*
X1391708Y1402599D02*
X1409394D01*
X1390808Y1403499D02*
X1408494D01*
X1389908Y1404399D02*
X1407594D01*
X1389008Y1405299D02*
X1406694D01*
X1388108Y1406199D02*
X1405794D01*
X1387208Y1407099D02*
X1404894D01*
X1386308Y1407999D02*
X1403994D01*
X1385408Y1408899D02*
X1403094D01*
X1384508Y1409799D02*
X1402194D01*
X1383608Y1410699D02*
X1401294D01*
X1382708Y1411599D02*
X1400394D01*
X1381808Y1412499D02*
X1399494D01*
X1380908Y1413399D02*
X1398594D01*
X1380008Y1414299D02*
X1397694D01*
X1379108Y1415199D02*
X1396794D01*
X1378208Y1416099D02*
X1395894D01*
X1377308Y1416999D02*
X1394994D01*
X1376408Y1417899D02*
X1394094D01*
X1375508Y1418799D02*
X1393194D01*
X1374608Y1419699D02*
X1392294D01*
X1373708Y1420599D02*
X1391394D01*
X1372808Y1421499D02*
X1390494D01*
X1371908Y1422399D02*
X1389594D01*
X1371008Y1423299D02*
X1388694D01*
X1370108Y1424199D02*
X1387794D01*
X1369208Y1425099D02*
X1386894D01*
X1368308Y1425999D02*
X1385994D01*
X1367408Y1426899D02*
X1385094D01*
X1366508Y1427799D02*
X1384194D01*
X1365608Y1428699D02*
X1383294D01*
X1364708Y1429599D02*
X1382394D01*
X1363808Y1430499D02*
X1381494D01*
X1362908Y1431399D02*
X1380594D01*
X1362008Y1432299D02*
X1379694D01*
X1361108Y1433199D02*
X1378794D01*
X1360208Y1434099D02*
X1377894D01*
X1359308Y1434999D02*
X1376994D01*
X1358408Y1435899D02*
X1376094D01*
X1357508Y1436799D02*
X1375194D01*
X1356608Y1437699D02*
X1374294D01*
X1355708Y1438599D02*
X1373394D01*
X1354808Y1439499D02*
X1372494D01*
X1353908Y1440399D02*
X1371594D01*
X1353008Y1441299D02*
X1370694D01*
X1352108Y1442199D02*
X1369794D01*
X1351208Y1443099D02*
X1368894D01*
X1350308Y1443999D02*
X1367994D01*
X1349408Y1444899D02*
X1367094D01*
X1348508Y1445799D02*
X1366194D01*
X1347608Y1446699D02*
X1365294D01*
X1346708Y1447599D02*
X1364394D01*
X1345808Y1448499D02*
X1363494D01*
X1345000Y1449399D02*
X1362594D01*
X1345000Y1450299D02*
X1361694D01*
X1345000Y1451199D02*
X1360794D01*
X1345000Y1452099D02*
X1359894D01*
X1345000Y1452999D02*
X1358994D01*
X1345000Y1453899D02*
X1358094D01*
X1345000Y1454799D02*
X1357194D01*
X1345000Y1455699D02*
X1356294D01*
X1345000Y1465599D02*
X1356200D01*
X1345000Y1464699D02*
X1356200D01*
X1345000Y1463799D02*
X1356200D01*
X1345000Y1462899D02*
X1356200D01*
X1345000Y1461999D02*
X1356200D01*
X1345000Y1461099D02*
X1356200D01*
X1345000Y1460199D02*
X1356200D01*
X1345000Y1459299D02*
X1356200D01*
X1345000Y1458399D02*
X1356200D01*
X1345000Y1457499D02*
X1356200D01*
X1345000Y1456599D02*
X1356200D01*
X1345000Y1466499D02*
X1355894D01*
X1345106Y1467399D02*
X1354994D01*
X1346006Y1468299D02*
X1354094D01*
X1346906Y1469199D02*
X1353194D01*
X732006Y1509199D02*
X775200D01*
X731106Y1508299D02*
X775200D01*
X730206Y1507399D02*
X775200D01*
X729306Y1506499D02*
X775200D01*
X728406Y1505599D02*
X775200D01*
X727506Y1504699D02*
X775200D01*
X726606Y1503799D02*
X775200D01*
X725706Y1502899D02*
X775200D01*
X749508Y1501999D02*
X775200D01*
X750408Y1501099D02*
X775200D01*
X751308Y1500199D02*
X775200D01*
X752208Y1499299D02*
X775200D01*
X753108Y1498399D02*
X775200D01*
X753300Y1497499D02*
X775200D01*
X753300Y1496599D02*
X775200D01*
X753300Y1495699D02*
X775200D01*
X753300Y1494799D02*
X775200D01*
X753300Y1493899D02*
X775200D01*
X753300Y1492999D02*
X775200D01*
X753300Y1492099D02*
X775200D01*
X753300Y1491199D02*
X775200D01*
X753300Y1490299D02*
X775200D01*
X753300Y1489399D02*
X775200D01*
X753300Y1488499D02*
X775200D01*
X753300Y1487599D02*
X775200D01*
X753300Y1486699D02*
X775200D01*
X753300Y1485799D02*
X775200D01*
X753300Y1484899D02*
X775200D01*
X753300Y1483999D02*
X775200D01*
X753300Y1483099D02*
X775200D01*
X753300Y1482199D02*
X775200D01*
X753300Y1481299D02*
X775200D01*
X753300Y1480399D02*
X775200D01*
X753300Y1479499D02*
X775200D01*
X753300Y1478599D02*
X775200D01*
X753300Y1477699D02*
X775200D01*
X753300Y1476799D02*
X775200D01*
X753300Y1475899D02*
X775200D01*
X753300Y1474999D02*
X775200D01*
X753300Y1474099D02*
X775200D01*
X753300Y1473199D02*
X775200D01*
X753300Y1472299D02*
X775200D01*
X753300Y1471399D02*
X775200D01*
X753300Y1470499D02*
X775200D01*
X753300Y1469599D02*
X775200D01*
X752806Y1468699D02*
X775200D01*
X751906Y1467799D02*
X775200D01*
X751006Y1466899D02*
X775200D01*
X750106Y1465999D02*
X775200D01*
X749206Y1465099D02*
X775200D01*
X748306Y1464199D02*
X775200D01*
X747406Y1463299D02*
X775200D01*
X746506Y1462399D02*
X775200D01*
X745606Y1461499D02*
X775200D01*
X744706Y1460599D02*
X775200D01*
X743806Y1459699D02*
X775200D01*
X742906Y1458799D02*
X775200D01*
X742006Y1457899D02*
X775200D01*
X741106Y1456999D02*
X775200D01*
X740206Y1456099D02*
X775200D01*
X739306Y1455199D02*
X775200D01*
X738406Y1454299D02*
X775200D01*
X737506Y1453399D02*
X775200D01*
X736606Y1452499D02*
X775200D01*
X735706Y1451599D02*
X775200D01*
X753508Y1450699D02*
X775200D01*
X753800Y1449799D02*
X775200D01*
X753800Y1448899D02*
X775200D01*
X753800Y1447999D02*
X775200D01*
X753800Y1447099D02*
X775200D01*
X753800Y1446199D02*
X775200D01*
X753800Y1445299D02*
X775200D01*
X753800Y1444399D02*
X775200D01*
X753800Y1443499D02*
X775200D01*
X753800Y1442599D02*
X775200D01*
X753800Y1441699D02*
X775200D01*
X753800Y1440799D02*
X775200D01*
X753800Y1439899D02*
X775200D01*
X753800Y1438999D02*
X775200D01*
X753800Y1438099D02*
X775200D01*
X753800Y1437199D02*
X775200D01*
X753800Y1436299D02*
X775200D01*
X753800Y1435399D02*
X775200D01*
X753800Y1434499D02*
X775200D01*
X753800Y1433599D02*
X775200D01*
X753800Y1432699D02*
X775200D01*
X753800Y1431799D02*
X775200D01*
X753800Y1430899D02*
X775200D01*
X753800Y1429999D02*
X775200D01*
X753800Y1429099D02*
X775200D01*
X753800Y1428199D02*
X775200D01*
X753800Y1427299D02*
X775200D01*
X753800Y1426399D02*
X775200D01*
X753800Y1425499D02*
X775200D01*
X753800Y1424599D02*
X775200D01*
X753800Y1423699D02*
X775200D01*
X753800Y1422799D02*
X775200D01*
X753800Y1421899D02*
X775200D01*
X753800Y1420999D02*
X775200D01*
X753800Y1420099D02*
X775200D01*
X753800Y1419199D02*
X775200D01*
X753800Y1418299D02*
X775200D01*
X753800Y1417399D02*
X775200D01*
X753206Y1416499D02*
X775200D01*
X752306Y1415599D02*
X775200D01*
X751406Y1414699D02*
X775200D01*
X750506Y1413799D02*
X775200D01*
X749606Y1412899D02*
X775200D01*
X748706Y1411999D02*
X775200D01*
X747806Y1411099D02*
X775200D01*
X746906Y1410199D02*
X775200D01*
X746006Y1409299D02*
X775200D01*
X745106Y1408399D02*
X775200D01*
X744206Y1407499D02*
X775200D01*
X743306Y1406599D02*
X775200D01*
X742406Y1405699D02*
X775200D01*
X741506Y1404799D02*
X775200D01*
X740606Y1403899D02*
X775200D01*
X739706Y1402999D02*
X775200D01*
X738806Y1402099D02*
X775200D01*
X737906Y1401199D02*
X775200D01*
X737006Y1400299D02*
X775200D01*
X736106Y1399399D02*
X775200D01*
X735206Y1398499D02*
X775200D01*
X734306Y1397599D02*
X775200D01*
X733406Y1396699D02*
X775200D01*
X752708Y1395799D02*
X775200D01*
X753608Y1394899D02*
X775200D01*
X754000Y1393999D02*
X775200D01*
X754000Y1393099D02*
X775200D01*
X754000Y1392199D02*
X775200D01*
X754000Y1391299D02*
X775200D01*
X754000Y1390399D02*
X775200D01*
X754000Y1389499D02*
X775200D01*
X754000Y1388599D02*
X775200D01*
X754000Y1387699D02*
X775200D01*
X754000Y1386799D02*
X775200D01*
X754000Y1385899D02*
X775200D01*
X754000Y1384999D02*
X775200D01*
X754000Y1384099D02*
X775200D01*
X754000Y1383199D02*
X775200D01*
X754000Y1382299D02*
X775200D01*
X754000Y1381399D02*
X775200D01*
X754000Y1380499D02*
X775200D01*
X754000Y1379599D02*
X775200D01*
X754000Y1378699D02*
X775200D01*
X754000Y1377799D02*
X775200D01*
X754000Y1376899D02*
X775200D01*
X754000Y1375999D02*
X775200D01*
X754000Y1375099D02*
X775200D01*
X754000Y1374199D02*
X775200D01*
X754000Y1373299D02*
X775200D01*
X754000Y1372399D02*
X775200D01*
X754000Y1371499D02*
X775200D01*
X754000Y1370599D02*
X775200D01*
X754000Y1369699D02*
X775200D01*
X754000Y1368799D02*
X775200D01*
X753106Y1367899D02*
X775200D01*
X752206Y1366999D02*
X775200D01*
X751306Y1366099D02*
X775200D01*
X750406Y1365199D02*
X775200D01*
X749506Y1364299D02*
X775200D01*
X748606Y1363399D02*
X775200D01*
X747706Y1362499D02*
X775200D01*
X746806Y1361599D02*
X775200D01*
X745906Y1360699D02*
X775200D01*
X745006Y1359799D02*
X775200D01*
X744106Y1358899D02*
X775200D01*
X743206Y1357999D02*
X775200D01*
X742306Y1357099D02*
X775200D01*
X741406Y1356199D02*
X775200D01*
X740506Y1355299D02*
X775200D01*
X739606Y1354399D02*
X775200D01*
X738706Y1353499D02*
X775200D01*
X737806Y1352599D02*
X775200D01*
X736906Y1351699D02*
X775200D01*
X736006Y1350799D02*
X775200D01*
X735106Y1349899D02*
X775200D01*
X734206Y1348999D02*
X775200D01*
X752908Y1348099D02*
X775200D01*
X753700Y1347199D02*
X775200D01*
X753700Y1346299D02*
X775200D01*
X753700Y1345399D02*
X775200D01*
X753700Y1344499D02*
X775200D01*
X753700Y1343599D02*
X775200D01*
X753700Y1342699D02*
X775200D01*
X753700Y1341799D02*
X775200D01*
X753700Y1340899D02*
X775200D01*
X753700Y1339999D02*
X775200D01*
X753700Y1339099D02*
X775200D01*
X753700Y1338199D02*
X775200D01*
X753700Y1337299D02*
X775200D01*
X753700Y1336399D02*
X775200D01*
X753700Y1335499D02*
X775200D01*
X753700Y1334599D02*
X775200D01*
X753700Y1333699D02*
X775200D01*
X753700Y1332799D02*
X775200D01*
X753700Y1331899D02*
X775200D01*
X753700Y1330999D02*
X775200D01*
X753700Y1330099D02*
X775200D01*
X753700Y1329199D02*
X775200D01*
X753700Y1328299D02*
X775200D01*
X753700Y1327399D02*
X775200D01*
X753700Y1326499D02*
X775200D01*
X753700Y1325599D02*
X775200D01*
X753700Y1324699D02*
X775200D01*
X753700Y1323799D02*
X775200D01*
X753700Y1322899D02*
X775200D01*
X753700Y1321999D02*
X775200D01*
X753700Y1321099D02*
X775200D01*
X753700Y1320199D02*
X775200D01*
X753700Y1319299D02*
X775200D01*
X753700Y1318399D02*
X775200D01*
X753700Y1317499D02*
X775200D01*
X753406Y1316599D02*
X775200D01*
X752506Y1315699D02*
X775200D01*
X751606Y1314799D02*
X775200D01*
X750706Y1313899D02*
X775200D01*
X749806Y1312999D02*
X775200D01*
X748906Y1312099D02*
X775200D01*
X748006Y1311199D02*
X775200D01*
X747106Y1310299D02*
X775200D01*
X746206Y1309399D02*
X775200D01*
X745306Y1308499D02*
X775200D01*
X744406Y1307599D02*
X775200D01*
X743506Y1306699D02*
X775200D01*
X742606Y1305799D02*
X775200D01*
X741706Y1304899D02*
X775200D01*
X740806Y1303999D02*
X775200D01*
X739906Y1303099D02*
X775200D01*
X739006Y1302199D02*
X775200D01*
X738106Y1301299D02*
X775200D01*
X737206Y1300399D02*
X775200D01*
X736306Y1299499D02*
X775200D01*
X735406Y1298599D02*
X775200D01*
X734506Y1297699D02*
X775200D01*
X733606Y1296799D02*
X775200D01*
X751708Y1295899D02*
X775200D01*
X752608Y1294999D02*
X775200D01*
X753300Y1294099D02*
X775200D01*
X753300Y1293199D02*
X775200D01*
X753300Y1292299D02*
X775200D01*
X753300Y1291399D02*
X775200D01*
X753300Y1290499D02*
X775200D01*
X753300Y1289599D02*
X775200D01*
X753300Y1288699D02*
X775200D01*
X753300Y1287799D02*
X775200D01*
X753300Y1286899D02*
X775200D01*
X753300Y1285999D02*
X775200D01*
X753300Y1285099D02*
X775200D01*
X753300Y1284199D02*
X775200D01*
X753300Y1283299D02*
X775200D01*
X753300Y1282399D02*
X775200D01*
X753300Y1281499D02*
X775200D01*
X753300Y1280599D02*
X775200D01*
X753300Y1279699D02*
X775200D01*
X753300Y1278799D02*
X775200D01*
X753300Y1277899D02*
X775200D01*
X753300Y1276999D02*
X775200D01*
X753300Y1276099D02*
X775200D01*
X753300Y1275199D02*
X775200D01*
X753300Y1274299D02*
X775200D01*
X753300Y1273399D02*
X775200D01*
X753300Y1272499D02*
X775200D01*
X753300Y1271599D02*
X775200D01*
X753300Y1270699D02*
X775200D01*
X753300Y1269799D02*
X775200D01*
X753300Y1268899D02*
X775200D01*
X753300Y1267999D02*
X775200D01*
X753300Y1267099D02*
X775200D01*
X753006Y1266199D02*
X775200D01*
X752106Y1265299D02*
X775200D01*
X751206Y1264399D02*
X775200D01*
X750306Y1263499D02*
X775200D01*
X749406Y1262599D02*
X775200D01*
X748506Y1261699D02*
X775200D01*
X747606Y1260799D02*
X775200D01*
X746706Y1259899D02*
X775200D01*
X745806Y1258999D02*
X775200D01*
X744906Y1258099D02*
X775200D01*
X744006Y1257199D02*
X775200D01*
X743106Y1256299D02*
X775200D01*
X742206Y1255399D02*
X775200D01*
X741306Y1254499D02*
X775200D01*
X740406Y1253599D02*
X775200D01*
X739506Y1252699D02*
X775200D01*
X738606Y1251799D02*
X775200D01*
X737706Y1250899D02*
X775200D01*
X736806Y1249999D02*
X775200D01*
X735906Y1249099D02*
X775200D01*
X735006Y1248199D02*
X775200D01*
X734106Y1247299D02*
X775200D01*
X733206Y1246399D02*
X775200D01*
X752708Y1245499D02*
X775200D01*
X753500Y1244599D02*
X775200D01*
X753500Y1243699D02*
X775200D01*
X753500Y1242799D02*
X775200D01*
X753500Y1241899D02*
X775200D01*
X753500Y1240999D02*
X775200D01*
X753500Y1240099D02*
X775200D01*
X753500Y1239199D02*
X775200D01*
X753500Y1238299D02*
X775200D01*
X753500Y1237399D02*
X775200D01*
X753500Y1236499D02*
X775200D01*
X753500Y1235599D02*
X775200D01*
X753500Y1234699D02*
X775200D01*
X753500Y1233799D02*
X775200D01*
X753500Y1232899D02*
X775200D01*
X753500Y1231999D02*
X775200D01*
X753500Y1231099D02*
X775200D01*
X753500Y1230199D02*
X775200D01*
X753500Y1229299D02*
X775200D01*
X753500Y1228399D02*
X775200D01*
X753500Y1227499D02*
X775200D01*
X753500Y1226599D02*
X775200D01*
X753500Y1225699D02*
X775200D01*
X753500Y1224799D02*
X775200D01*
X753500Y1223899D02*
X775200D01*
X753500Y1222999D02*
X775200D01*
X753500Y1222099D02*
X775200D01*
X753500Y1221199D02*
X775200D01*
X753500Y1220299D02*
X775200D01*
X753500Y1219399D02*
X775200D01*
X753500Y1218499D02*
X775200D01*
X753500Y1217599D02*
X775200D01*
X753500Y1216699D02*
X775200D01*
X752606Y1215799D02*
X775200D01*
X751706Y1214899D02*
X775200D01*
X750806Y1213999D02*
X775200D01*
X749906Y1213099D02*
X775200D01*
X749006Y1212199D02*
X775200D01*
X748106Y1211299D02*
X775200D01*
X747206Y1210399D02*
X775200D01*
X746306Y1209499D02*
X775200D01*
X745406Y1208599D02*
X775200D01*
X744506Y1207699D02*
X775200D01*
X743606Y1206799D02*
X775200D01*
X742706Y1205899D02*
X775200D01*
X741806Y1204999D02*
X775200D01*
X740906Y1204099D02*
X775200D01*
X740006Y1203199D02*
X775200D01*
X739106Y1202299D02*
X775200D01*
X738206Y1201399D02*
X775200D01*
X737306Y1200499D02*
X775200D01*
X736406Y1199599D02*
X775200D01*
X735506Y1198699D02*
X775200D01*
X734606Y1197799D02*
X775200D01*
X733706Y1196899D02*
X775200D01*
X752708Y1195999D02*
X775200D01*
X753608Y1195099D02*
X775200D01*
X753900Y1194199D02*
X775200D01*
X753900Y1193299D02*
X775200D01*
X753900Y1192399D02*
X775200D01*
X753900Y1191499D02*
X775200D01*
X753900Y1190599D02*
X775200D01*
X753900Y1189699D02*
X775200D01*
X753900Y1188799D02*
X775200D01*
X753900Y1187899D02*
X775200D01*
X753900Y1186999D02*
X775200D01*
X753900Y1186099D02*
X775200D01*
X753900Y1185199D02*
X775200D01*
X753900Y1184299D02*
X775200D01*
X753900Y1183399D02*
X775200D01*
X753900Y1182499D02*
X775200D01*
X753900Y1181599D02*
X775200D01*
X753900Y1180699D02*
X775200D01*
X753900Y1179799D02*
X775200D01*
X753900Y1178899D02*
X775200D01*
X753900Y1177999D02*
X775200D01*
X753900Y1177099D02*
X775200D01*
X753900Y1176199D02*
X775200D01*
X753900Y1175299D02*
X775200D01*
X753900Y1174399D02*
X775200D01*
X753900Y1173499D02*
X775200D01*
X753900Y1172599D02*
X775200D01*
X753900Y1171699D02*
X775200D01*
X753900Y1170799D02*
X775200D01*
X753900Y1169899D02*
X775200D01*
X753900Y1168999D02*
X775200D01*
X753900Y1168099D02*
X775200D01*
X753900Y1167199D02*
X775200D01*
X753506Y1166299D02*
X775200D01*
X752606Y1165399D02*
X775200D01*
X751706Y1164499D02*
X775200D01*
X750806Y1163599D02*
X775200D01*
X749906Y1162699D02*
X775200D01*
X749006Y1161799D02*
X775200D01*
X748106Y1160899D02*
X775200D01*
X747206Y1159999D02*
X775200D01*
X746306Y1159099D02*
X775200D01*
X745406Y1158199D02*
X775200D01*
X744506Y1157299D02*
X775200D01*
X743606Y1156399D02*
X775200D01*
X742706Y1155499D02*
X775200D01*
X732906Y1510099D02*
X774594D01*
X741806Y1154599D02*
X774492D01*
X733806Y1510999D02*
X773694D01*
X740906Y1153699D02*
X773592D01*
X734000Y1511899D02*
X772794D01*
X740006Y1152799D02*
X772692D01*
X734000Y1512799D02*
X771894D01*
X739106Y1151899D02*
X771792D01*
X734000Y1513699D02*
X770994D01*
X733908Y1514599D02*
X770094D01*
X733008Y1515499D02*
X769194D01*
X732108Y1516399D02*
X768294D01*
X620108Y1517299D02*
X767394D01*
X619208Y1518199D02*
X766494D01*
X618308Y1519099D02*
X765594D01*
X617408Y1519999D02*
X764694D01*
X616508Y1520899D02*
X763794D01*
X615608Y1521799D02*
X762894D01*
X614708Y1522699D02*
X761994D01*
X613808Y1523599D02*
X761094D01*
X612908Y1524499D02*
X760194D01*
X612100Y1525399D02*
X759294D01*
X612100Y1526299D02*
X758394D01*
X612100Y1527199D02*
X757494D01*
X612100Y1528099D02*
X756594D01*
X612100Y1528999D02*
X755694D01*
X612100Y1529899D02*
X754794D01*
X612100Y1530799D02*
X753894D01*
X738206Y1150999D02*
X753292D01*
X612100Y1531699D02*
X752994D01*
X737306Y1150099D02*
X752392D01*
X612100Y1532599D02*
X752094D01*
X736406Y1149199D02*
X751492D01*
X612100Y1533499D02*
X751194D01*
X735506Y1148299D02*
X750592D01*
X612100Y1534399D02*
X750294D01*
X734806Y1450699D02*
X750192D01*
X734606Y1147399D02*
X749692D01*
X732806Y1195999D02*
X749492D01*
X612100Y1535299D02*
X749394D01*
X733906Y1449799D02*
X749292D01*
X732706Y1295899D02*
X749292D01*
X733306Y1348099D02*
X748792D01*
X733706Y1146499D02*
X748792D01*
X732306Y1245499D02*
X748692D01*
X731906Y1195099D02*
X748592D01*
X612100Y1536199D02*
X748494D01*
X733006Y1448899D02*
X748392D01*
X731806Y1294999D02*
X748392D01*
X732506Y1395799D02*
X747892D01*
X732406Y1347199D02*
X747892D01*
X732806Y1145599D02*
X747892D01*
X731406Y1244599D02*
X747792D01*
X731006Y1194199D02*
X747692D01*
X612100Y1537099D02*
X747594D01*
X732106Y1447999D02*
X747492D01*
X730906Y1294099D02*
X747492D01*
X731606Y1394899D02*
X746992D01*
X731506Y1346299D02*
X746992D01*
X731906Y1144699D02*
X746992D01*
X730506Y1243699D02*
X746892D01*
X730106Y1193299D02*
X746792D01*
X612100Y1537999D02*
X746694D01*
X731206Y1447099D02*
X746592D01*
X730006Y1293199D02*
X746592D01*
X730706Y1393999D02*
X746092D01*
X730606Y1345399D02*
X746092D01*
X731006Y1143799D02*
X746092D01*
X729606Y1242799D02*
X745992D01*
X729206Y1192399D02*
X745892D01*
X612100Y1538899D02*
X745794D01*
X730306Y1446199D02*
X745692D01*
X729106Y1292299D02*
X745692D01*
X729806Y1393099D02*
X745192D01*
X729706Y1344499D02*
X745192D01*
X730106Y1142899D02*
X745192D01*
X728706Y1241899D02*
X745092D01*
X728306Y1191499D02*
X744992D01*
X612100Y1539799D02*
X744894D01*
X729406Y1445299D02*
X744792D01*
X728206Y1291399D02*
X744792D01*
X728906Y1392199D02*
X744292D01*
X728806Y1343599D02*
X744292D01*
X729206Y1141999D02*
X744292D01*
X727806Y1240999D02*
X744192D01*
X727406Y1190599D02*
X744092D01*
X612100Y1540699D02*
X743994D01*
X728506Y1444399D02*
X743892D01*
X727306Y1290499D02*
X743892D01*
X728006Y1391299D02*
X743392D01*
X727906Y1342699D02*
X743392D01*
X728306Y1141099D02*
X743392D01*
X724806Y1501999D02*
X743292D01*
X726906Y1240099D02*
X743292D01*
X726506Y1189699D02*
X743192D01*
X612100Y1541599D02*
X743094D01*
X727606Y1443499D02*
X742992D01*
X726406Y1289599D02*
X742992D01*
X727106Y1390399D02*
X742492D01*
X727006Y1341799D02*
X742492D01*
X727406Y1140199D02*
X742492D01*
X723906Y1501099D02*
X742392D01*
X726006Y1239199D02*
X742392D01*
X725606Y1188799D02*
X742292D01*
X612100Y1542499D02*
X742194D01*
X726706Y1442599D02*
X742092D01*
X725506Y1288699D02*
X742092D01*
X726206Y1389499D02*
X741592D01*
X726106Y1340899D02*
X741592D01*
X726506Y1139299D02*
X741592D01*
X723006Y1500199D02*
X741492D01*
X725106Y1238299D02*
X741492D01*
X724706Y1187899D02*
X741392D01*
X725806Y1441699D02*
X741192D01*
X724606Y1287799D02*
X741192D01*
X725306Y1388599D02*
X740692D01*
X725206Y1339999D02*
X740692D01*
X725606Y1138399D02*
X740692D01*
X722106Y1499299D02*
X740592D01*
X724206Y1237399D02*
X740592D01*
X723806Y1186999D02*
X740492D01*
X724906Y1440799D02*
X740292D01*
X723706Y1286899D02*
X740292D01*
X724406Y1387699D02*
X739792D01*
X724306Y1339099D02*
X739792D01*
X724706Y1137499D02*
X739792D01*
X721206Y1498399D02*
X739692D01*
X723306Y1236499D02*
X739692D01*
X722906Y1186099D02*
X739592D01*
X724006Y1439899D02*
X739392D01*
X722806Y1285999D02*
X739392D01*
X723506Y1386799D02*
X738892D01*
X723406Y1338199D02*
X738892D01*
X723806Y1136599D02*
X738892D01*
X720306Y1497499D02*
X738792D01*
X722406Y1235599D02*
X738792D01*
X722006Y1185199D02*
X738692D01*
X723106Y1438999D02*
X738492D01*
X721906Y1285099D02*
X738492D01*
X722606Y1385899D02*
X737992D01*
X722506Y1337299D02*
X737992D01*
X722906Y1135699D02*
X737992D01*
X719406Y1496599D02*
X737892D01*
X721506Y1234699D02*
X737892D01*
X721106Y1184299D02*
X737792D01*
X722206Y1438099D02*
X737592D01*
X721006Y1284199D02*
X737592D01*
X721706Y1384999D02*
X737092D01*
X721606Y1336399D02*
X737092D01*
X722006Y1134799D02*
X737092D01*
X718506Y1495699D02*
X736992D01*
X720606Y1233799D02*
X736992D01*
X720206Y1183399D02*
X736892D01*
X721306Y1437199D02*
X736692D01*
X720106Y1283299D02*
X736692D01*
X720806Y1384099D02*
X736192D01*
X720706Y1335499D02*
X736192D01*
X721106Y1133899D02*
X736192D01*
X717606Y1494799D02*
X736092D01*
X719706Y1232899D02*
X736092D01*
X719306Y1182499D02*
X735992D01*
X720406Y1436299D02*
X735792D01*
X719206Y1282399D02*
X735792D01*
X719906Y1383199D02*
X735292D01*
X719806Y1334599D02*
X735292D01*
X720206Y1132999D02*
X735292D01*
X716706Y1493899D02*
X735192D01*
X718806Y1231999D02*
X735192D01*
X718406Y1181599D02*
X735092D01*
X719506Y1435399D02*
X734892D01*
X718306Y1281499D02*
X734892D01*
X719006Y1382299D02*
X734392D01*
X718906Y1333699D02*
X734392D01*
X719306Y1132099D02*
X734392D01*
X715806Y1492999D02*
X734292D01*
X717906Y1231099D02*
X734292D01*
X717506Y1180699D02*
X734192D01*
X718606Y1434499D02*
X733992D01*
X717406Y1280599D02*
X733992D01*
X718106Y1381399D02*
X733492D01*
X718006Y1332799D02*
X733492D01*
X718406Y1131199D02*
X733492D01*
X714906Y1492099D02*
X733392D01*
X717006Y1230199D02*
X733392D01*
X716606Y1179799D02*
X733292D01*
X717706Y1433599D02*
X733092D01*
X716506Y1279699D02*
X733092D01*
X717206Y1380499D02*
X732592D01*
X717106Y1331899D02*
X732592D01*
X717506Y1130299D02*
X732592D01*
X714006Y1491199D02*
X732492D01*
X716106Y1229299D02*
X732492D01*
X715706Y1178899D02*
X732392D01*
X716806Y1432699D02*
X732192D01*
X715606Y1278799D02*
X732192D01*
X716306Y1379599D02*
X731692D01*
X716206Y1330999D02*
X731692D01*
X716606Y1129399D02*
X731692D01*
X713106Y1490299D02*
X731592D01*
X715206Y1228399D02*
X731592D01*
X714806Y1177999D02*
X731492D01*
X715906Y1431799D02*
X731292D01*
X714706Y1277899D02*
X731292D01*
X715406Y1378699D02*
X730792D01*
X715306Y1330099D02*
X730792D01*
X715706Y1128499D02*
X730792D01*
X712206Y1489399D02*
X730692D01*
X714306Y1227499D02*
X730692D01*
X713906Y1177099D02*
X730592D01*
X715006Y1430899D02*
X730392D01*
X713806Y1276999D02*
X730392D01*
X714506Y1377799D02*
X729892D01*
X714406Y1329199D02*
X729892D01*
X714806Y1127599D02*
X729892D01*
X711306Y1488499D02*
X729792D01*
X713406Y1226599D02*
X729792D01*
X713006Y1176199D02*
X729692D01*
X714106Y1429999D02*
X729492D01*
X712906Y1276099D02*
X729492D01*
X713606Y1376899D02*
X728992D01*
X713506Y1328299D02*
X728992D01*
X713906Y1126699D02*
X728992D01*
X710600Y1487599D02*
X728892D01*
X712506Y1225699D02*
X728892D01*
X712106Y1175299D02*
X728792D01*
X713206Y1429099D02*
X728592D01*
X712006Y1275199D02*
X728592D01*
X712706Y1375999D02*
X728092D01*
X712606Y1327399D02*
X728092D01*
X713006Y1125799D02*
X728092D01*
X710600Y1486699D02*
X727992D01*
X711606Y1224799D02*
X727992D01*
X711206Y1174399D02*
X727892D01*
X712306Y1428199D02*
X727692D01*
X711400Y1274299D02*
X727692D01*
X711806Y1375099D02*
X727192D01*
X712300Y1326499D02*
X727192D01*
X712106Y1124899D02*
X727192D01*
X710600Y1485799D02*
X727092D01*
X711300Y1223899D02*
X727092D01*
X711200Y1173499D02*
X726992D01*
X712100Y1427299D02*
X726792D01*
X711400Y1273399D02*
X726792D01*
X711500Y1374199D02*
X726292D01*
X712300Y1325599D02*
X726292D01*
X711900Y1123999D02*
X726292D01*
X710600Y1484899D02*
X726192D01*
X711300Y1222999D02*
X726192D01*
X711200Y1172599D02*
X726092D01*
X712100Y1426399D02*
X725892D01*
X711400Y1272499D02*
X725892D01*
X711500Y1373299D02*
X725392D01*
X712300Y1324699D02*
X725392D01*
X711900Y1123099D02*
X725392D01*
X710600Y1483999D02*
X725292D01*
X711300Y1222099D02*
X725292D01*
X711200Y1171699D02*
X725192D01*
X712100Y1425499D02*
X724992D01*
X711400Y1271599D02*
X724992D01*
X711500Y1372399D02*
X724492D01*
X712300Y1323799D02*
X724492D01*
X711900Y1122199D02*
X724492D01*
X710600Y1483099D02*
X724392D01*
X711300Y1221199D02*
X724392D01*
X711200Y1170799D02*
X724292D01*
X710600Y1482199D02*
X724100D01*
X710600Y1481299D02*
X724100D01*
X710600Y1480399D02*
X724100D01*
X710600Y1479499D02*
X724100D01*
X710600Y1478599D02*
X724100D01*
X710600Y1477699D02*
X724100D01*
X710600Y1476799D02*
X724100D01*
X710600Y1475899D02*
X724100D01*
X710600Y1474999D02*
X724100D01*
X710600Y1474099D02*
X724100D01*
X710600Y1473199D02*
X724100D01*
X710600Y1472299D02*
X724100D01*
X710608Y1471399D02*
X724100D01*
X711508Y1470499D02*
X724100D01*
X712100Y1424599D02*
X724092D01*
X711400Y1270699D02*
X724092D01*
X711500Y1371499D02*
X723592D01*
X712300Y1322899D02*
X723592D01*
X711900Y1121299D02*
X723592D01*
X712408Y1469599D02*
X723492D01*
X711300Y1220299D02*
X723492D01*
X711208Y1169899D02*
X723392D01*
X712508Y1423699D02*
X723192D01*
X711400Y1269799D02*
X723192D01*
X711608Y1370599D02*
X722692D01*
X712408Y1321999D02*
X722692D01*
X712608Y1120399D02*
X722692D01*
X713308Y1468699D02*
X722592D01*
X712008Y1219399D02*
X722592D01*
X712108Y1168999D02*
X722492D01*
X713408Y1422799D02*
X722292D01*
X712208Y1268899D02*
X722292D01*
X712508Y1369699D02*
X721792D01*
X713308Y1321099D02*
X721792D01*
X713508Y1119499D02*
X721792D01*
X714208Y1467799D02*
X721692D01*
X712908Y1218499D02*
X721692D01*
X713008Y1168099D02*
X721592D01*
X714308Y1421899D02*
X721392D01*
X713108Y1267999D02*
X721392D01*
X713408Y1368799D02*
X720892D01*
X714208Y1320199D02*
X720892D01*
X714408Y1118599D02*
X720892D01*
X713808Y1217599D02*
X720792D01*
X713908Y1167199D02*
X720692D01*
X715208Y1420999D02*
X720492D01*
X714008Y1267099D02*
X720492D01*
X714308Y1367899D02*
X719992D01*
X714708Y1216699D02*
X719892D01*
X612100Y1543399D02*
X641594D01*
X612100Y1544299D02*
X640694D01*
X612100Y1545199D02*
X639794D01*
X616606Y1564099D02*
X639400D01*
X615706Y1563199D02*
X639400D01*
X614806Y1562299D02*
X639400D01*
X613906Y1561399D02*
X639400D01*
X613006Y1560499D02*
X639400D01*
X612106Y1559599D02*
X639400D01*
X612100Y1558699D02*
X639400D01*
X612100Y1557799D02*
X639400D01*
X612100Y1556899D02*
X639400D01*
X612100Y1555999D02*
X639400D01*
X612100Y1555099D02*
X639400D01*
X612100Y1554199D02*
X639400D01*
X612100Y1553299D02*
X639400D01*
X612100Y1552399D02*
X639400D01*
X612100Y1551499D02*
X639400D01*
X612100Y1550599D02*
X639400D01*
X612100Y1549699D02*
X639400D01*
X612100Y1548799D02*
X639400D01*
X612100Y1547899D02*
X639400D01*
X612100Y1546999D02*
X639400D01*
X612100Y1546099D02*
X639400D01*
X617506Y1564999D02*
X638594D01*
X618406Y1565899D02*
X637694D01*
X618600Y1566799D02*
X636794D01*
X1298000Y1558799D02*
X1324200D01*
X1298000Y1557899D02*
X1324200D01*
X1298000Y1556999D02*
X1324200D01*
X1298000Y1556099D02*
X1324200D01*
X1298000Y1555199D02*
X1324200D01*
X1298000Y1554299D02*
X1324200D01*
X1298000Y1553399D02*
X1324200D01*
X1298000Y1552499D02*
X1324200D01*
X1298000Y1551599D02*
X1324200D01*
X1298000Y1550699D02*
X1324200D01*
X1298000Y1549799D02*
X1324200D01*
X1298000Y1548899D02*
X1324200D01*
X1298000Y1547999D02*
X1324200D01*
X1297106Y1547099D02*
X1324200D01*
X1296206Y1546199D02*
X1324200D01*
X1295306Y1545299D02*
X1324200D01*
X1294406Y1544399D02*
X1324200D01*
X1293506Y1543499D02*
X1324200D01*
X1231506Y1542599D02*
X1324200D01*
X1230606Y1541699D02*
X1324200D01*
X1229706Y1540799D02*
X1324200D01*
X1228806Y1539899D02*
X1324200D01*
X1227906Y1538999D02*
X1324200D01*
X1227006Y1538099D02*
X1324200D01*
X1226106Y1537199D02*
X1324200D01*
X1225206Y1536299D02*
X1324200D01*
X1224306Y1535399D02*
X1324200D01*
X1223406Y1534499D02*
X1324200D01*
X1222506Y1533599D02*
X1324200D01*
X1221606Y1532699D02*
X1324200D01*
X1220706Y1531799D02*
X1324200D01*
X1219806Y1530899D02*
X1324200D01*
X1218906Y1529999D02*
X1324200D01*
X1218006Y1529099D02*
X1324200D01*
X1217106Y1528199D02*
X1324200D01*
X1216206Y1527299D02*
X1324200D01*
X1215306Y1526399D02*
X1324200D01*
X1214406Y1525499D02*
X1323792D01*
X1298106Y1559699D02*
X1323594D01*
X1213506Y1524599D02*
X1322892D01*
X1299006Y1560599D02*
X1322694D01*
X1212606Y1523699D02*
X1321992D01*
X1299906Y1561499D02*
X1321794D01*
X1211706Y1522799D02*
X1321092D01*
X1300806Y1562399D02*
X1320894D01*
X1210806Y1521899D02*
X1320192D01*
X1301706Y1563299D02*
X1319994D01*
X1209906Y1520999D02*
X1319292D01*
X1302606Y1564199D02*
X1319094D01*
X1209006Y1520099D02*
X1318392D01*
X1303506Y1565099D02*
X1318194D01*
X1208106Y1519199D02*
X1317492D01*
X1304406Y1565999D02*
X1317294D01*
X1207206Y1518299D02*
X1316592D01*
X1206306Y1517399D02*
X1315692D01*
X1205406Y1516499D02*
X1242692D01*
X1204506Y1515599D02*
X1241792D01*
X1227808Y1259099D02*
X1241200D01*
X1228708Y1258199D02*
X1241200D01*
X1229608Y1257299D02*
X1241092D01*
X1225708Y1460699D02*
X1240900D01*
X1226608Y1459799D02*
X1240900D01*
X1227508Y1458899D02*
X1240900D01*
X1228408Y1457999D02*
X1240900D01*
X1226908Y1259999D02*
X1240894D01*
X1203606Y1514699D02*
X1240892D01*
X1229308Y1457099D02*
X1240792D01*
X1226308Y1359899D02*
X1240700D01*
X1227208Y1358999D02*
X1240700D01*
X1228108Y1358099D02*
X1240700D01*
X1225808Y1310399D02*
X1240700D01*
X1226708Y1309499D02*
X1240700D01*
X1227608Y1308599D02*
X1240700D01*
X1228508Y1307699D02*
X1240700D01*
X1227008Y1209599D02*
X1240600D01*
X1227908Y1208699D02*
X1240600D01*
X1228808Y1207799D02*
X1240600D01*
X1229708Y1206899D02*
X1240592D01*
X1226508Y1160099D02*
X1240500D01*
X1227408Y1159199D02*
X1240500D01*
X1228308Y1158299D02*
X1240500D01*
X1229208Y1157399D02*
X1240500D01*
X1225408Y1360799D02*
X1240494D01*
X1229008Y1357199D02*
X1240392D01*
X1226408Y1410299D02*
X1240300D01*
X1227308Y1409399D02*
X1240300D01*
X1228208Y1408499D02*
X1240300D01*
X1229108Y1407599D02*
X1240300D01*
X1229408Y1306799D02*
X1240192D01*
X1230508Y1256399D02*
X1240192D01*
X1224808Y1461599D02*
X1240094D01*
X1226108Y1210499D02*
X1240094D01*
X1230108Y1156499D02*
X1240092D01*
X1225608Y1110599D02*
X1240000D01*
X1226508Y1109699D02*
X1240000D01*
X1227408Y1108799D02*
X1240000D01*
X1228308Y1107899D02*
X1240000D01*
X1229208Y1106999D02*
X1240000D01*
X1226008Y1260899D02*
X1239994D01*
X1202706Y1513799D02*
X1239992D01*
X1224908Y1311299D02*
X1239894D01*
X1230208Y1456199D02*
X1239892D01*
X1225508Y1411199D02*
X1239794D01*
X1224708Y1111499D02*
X1239794D01*
X1225608Y1160999D02*
X1239694D01*
X1230608Y1205999D02*
X1239692D01*
X1224508Y1361699D02*
X1239594D01*
X1230008Y1406699D02*
X1239492D01*
X1229908Y1356299D02*
X1239492D01*
X1230308Y1305899D02*
X1239292D01*
X1231408Y1255499D02*
X1239292D01*
X1230108Y1106099D02*
X1239292D01*
X1223908Y1462499D02*
X1239194D01*
X1225208Y1211399D02*
X1239194D01*
X1231008Y1155599D02*
X1239192D01*
X1225108Y1261799D02*
X1239094D01*
X1201806Y1512899D02*
X1239092D01*
X1224008Y1312199D02*
X1238994D01*
X1231108Y1455299D02*
X1238992D01*
X1224608Y1412099D02*
X1238894D01*
X1223808Y1112399D02*
X1238894D01*
X1224708Y1161899D02*
X1238794D01*
X1231508Y1205099D02*
X1238792D01*
X1223608Y1362599D02*
X1238694D01*
X1230908Y1405799D02*
X1238592D01*
X1230808Y1355399D02*
X1238592D01*
X1231208Y1304999D02*
X1238392D01*
X1232308Y1254599D02*
X1238392D01*
X1231008Y1105199D02*
X1238392D01*
X1223008Y1463399D02*
X1238294D01*
X1224308Y1212299D02*
X1238294D01*
X1231908Y1154699D02*
X1238292D01*
X1224208Y1262699D02*
X1238194D01*
X1200906Y1511999D02*
X1238192D01*
X1223108Y1313099D02*
X1238094D01*
X1232008Y1454399D02*
X1238092D01*
X1223708Y1412999D02*
X1237994D01*
X1222908Y1113299D02*
X1237994D01*
X1223808Y1162799D02*
X1237894D01*
X1232408Y1204199D02*
X1237892D01*
X1222708Y1363499D02*
X1237794D01*
X1231808Y1404899D02*
X1237692D01*
X1231708Y1354499D02*
X1237692D01*
X1232108Y1304099D02*
X1237492D01*
X1233208Y1253699D02*
X1237492D01*
X1231908Y1104299D02*
X1237492D01*
X1222108Y1464299D02*
X1237394D01*
X1223408Y1213199D02*
X1237394D01*
X1232808Y1153799D02*
X1237392D01*
X1223308Y1263599D02*
X1237294D01*
X1200006Y1511099D02*
X1237292D01*
X1222208Y1313999D02*
X1237194D01*
X1232908Y1453499D02*
X1237192D01*
X1222808Y1413899D02*
X1237094D01*
X1222008Y1114199D02*
X1237094D01*
X1222908Y1163699D02*
X1236994D01*
X1221808Y1364399D02*
X1236894D01*
X1232708Y1403999D02*
X1236792D01*
X1232608Y1353599D02*
X1236792D01*
X1221208Y1465199D02*
X1236494D01*
X1222508Y1214099D02*
X1236494D01*
X1222408Y1264499D02*
X1236394D01*
X1199106Y1510199D02*
X1236392D01*
X1221308Y1314899D02*
X1236294D01*
X1221908Y1414799D02*
X1236194D01*
X1221108Y1115099D02*
X1236194D01*
X1222008Y1164599D02*
X1236094D01*
X1220908Y1365299D02*
X1235994D01*
X1220308Y1466099D02*
X1235594D01*
X1221608Y1214999D02*
X1235594D01*
X1221508Y1265399D02*
X1235494D01*
X1198206Y1509299D02*
X1235492D01*
X1220408Y1315799D02*
X1235394D01*
X1221008Y1415699D02*
X1235294D01*
X1220208Y1115999D02*
X1235294D01*
X1221108Y1165499D02*
X1235194D01*
X1220008Y1366199D02*
X1235094D01*
X1219408Y1466999D02*
X1234694D01*
X1220708Y1215899D02*
X1234694D01*
X1220608Y1266299D02*
X1234594D01*
X1197306Y1508399D02*
X1234592D01*
X1219508Y1316699D02*
X1234494D01*
X1220108Y1416599D02*
X1234394D01*
X1219308Y1116899D02*
X1234394D01*
X1220208Y1166399D02*
X1234294D01*
X1219108Y1367099D02*
X1234194D01*
X1218508Y1467899D02*
X1233794D01*
X1219808Y1216799D02*
X1233794D01*
X1219708Y1267199D02*
X1233694D01*
X1196406Y1507499D02*
X1233692D01*
X1218608Y1317599D02*
X1233594D01*
X1219208Y1417499D02*
X1233494D01*
X1218408Y1117799D02*
X1233494D01*
X1219308Y1167299D02*
X1233394D01*
X1218208Y1367999D02*
X1233294D01*
X1217608Y1468799D02*
X1232894D01*
X1218908Y1217699D02*
X1232894D01*
X1218808Y1268099D02*
X1232794D01*
X1195506Y1506599D02*
X1232792D01*
X1217708Y1318499D02*
X1232694D01*
X1218308Y1418399D02*
X1232594D01*
X1217508Y1118699D02*
X1232594D01*
X1218408Y1168199D02*
X1232494D01*
X1217308Y1368899D02*
X1232394D01*
X1216708Y1469699D02*
X1231994D01*
X1218008Y1218599D02*
X1231994D01*
X1217908Y1268999D02*
X1231894D01*
X1194606Y1505699D02*
X1231892D01*
X1216808Y1319399D02*
X1231794D01*
X1217408Y1419299D02*
X1231694D01*
X1216608Y1119599D02*
X1231694D01*
X1217508Y1169099D02*
X1231594D01*
X1216408Y1369799D02*
X1231494D01*
X1215808Y1470599D02*
X1231094D01*
X1217108Y1219499D02*
X1231094D01*
X1217008Y1269899D02*
X1230994D01*
X1193706Y1504799D02*
X1230992D01*
X1215908Y1320299D02*
X1230894D01*
X1216508Y1420199D02*
X1230794D01*
X1215708Y1120499D02*
X1230794D01*
X1216608Y1169999D02*
X1230694D01*
X1215508Y1370699D02*
X1230594D01*
X1214908Y1471499D02*
X1230194D01*
X1216208Y1220399D02*
X1230194D01*
X1216108Y1270799D02*
X1230094D01*
X1192806Y1503899D02*
X1230092D01*
X1215008Y1321199D02*
X1229994D01*
X1215608Y1421099D02*
X1229894D01*
X1214808Y1121399D02*
X1229894D01*
X1215708Y1170899D02*
X1229794D01*
X1214608Y1371599D02*
X1229694D01*
X1214008Y1472399D02*
X1229294D01*
X1215308Y1221299D02*
X1229294D01*
X1215208Y1271699D02*
X1229194D01*
X1191906Y1502999D02*
X1229192D01*
X1214108Y1322099D02*
X1229094D01*
X1214708Y1421999D02*
X1228994D01*
X1213908Y1122299D02*
X1228994D01*
X1214808Y1171799D02*
X1228894D01*
X1213708Y1372499D02*
X1228794D01*
X1213108Y1473299D02*
X1228394D01*
X1214408Y1222199D02*
X1228394D01*
X1214308Y1272599D02*
X1228294D01*
X1191006Y1502099D02*
X1228292D01*
X1213208Y1322999D02*
X1228194D01*
X1213808Y1422899D02*
X1228094D01*
X1213008Y1123199D02*
X1228094D01*
X1213908Y1172699D02*
X1227994D01*
X1212808Y1373399D02*
X1227894D01*
X1212208Y1474199D02*
X1227494D01*
X1213508Y1223099D02*
X1227494D01*
X1213408Y1273499D02*
X1227394D01*
X1190106Y1501199D02*
X1227392D01*
X1212308Y1323899D02*
X1227294D01*
X1212908Y1423799D02*
X1227194D01*
X1212108Y1124099D02*
X1227194D01*
X1213008Y1173599D02*
X1227094D01*
X1211908Y1374299D02*
X1226994D01*
X1211308Y1475099D02*
X1226594D01*
X1212608Y1223999D02*
X1226594D01*
X1212508Y1274399D02*
X1226494D01*
X1189206Y1500299D02*
X1226492D01*
X1211408Y1324799D02*
X1226394D01*
X1212008Y1424699D02*
X1226294D01*
X1211208Y1124999D02*
X1226294D01*
X1212108Y1174499D02*
X1226194D01*
X1211008Y1375199D02*
X1226094D01*
X1210408Y1475999D02*
X1225694D01*
X1211708Y1224899D02*
X1225694D01*
X1211608Y1275299D02*
X1225594D01*
X1188306Y1499399D02*
X1225592D01*
X1210508Y1325699D02*
X1225494D01*
X1211108Y1425599D02*
X1225394D01*
X1210308Y1125899D02*
X1225394D01*
X1211208Y1175399D02*
X1225294D01*
X1210108Y1376099D02*
X1225194D01*
X1209508Y1476899D02*
X1224794D01*
X1210808Y1225799D02*
X1224794D01*
X1210708Y1276199D02*
X1224694D01*
X1187406Y1498499D02*
X1224692D01*
X1209608Y1326599D02*
X1224594D01*
X1210208Y1426499D02*
X1224494D01*
X1209408Y1126799D02*
X1224494D01*
X1210308Y1176299D02*
X1224394D01*
X1209208Y1376999D02*
X1224294D01*
X1208608Y1477799D02*
X1223894D01*
X1209908Y1226699D02*
X1223894D01*
X1209808Y1277099D02*
X1223794D01*
X1186506Y1497599D02*
X1223792D01*
X1208708Y1327499D02*
X1223694D01*
X1209308Y1427399D02*
X1223594D01*
X1208508Y1127699D02*
X1223594D01*
X1209408Y1177199D02*
X1223494D01*
X1208308Y1377899D02*
X1223394D01*
X1207708Y1478699D02*
X1222994D01*
X1209008Y1227599D02*
X1222994D01*
X1208908Y1277999D02*
X1222894D01*
X1185606Y1496699D02*
X1222892D01*
X1207808Y1328399D02*
X1222794D01*
X1208408Y1428299D02*
X1222694D01*
X1207608Y1128599D02*
X1222694D01*
X1208508Y1178099D02*
X1222594D01*
X1207408Y1378799D02*
X1222494D01*
X1206808Y1479599D02*
X1222094D01*
X1208108Y1228499D02*
X1222094D01*
X1208008Y1278899D02*
X1221994D01*
X1184706Y1495799D02*
X1221992D01*
X1206908Y1329299D02*
X1221894D01*
X1207508Y1429199D02*
X1221794D01*
X1206708Y1129499D02*
X1221794D01*
X1207608Y1178999D02*
X1221694D01*
X1206508Y1379699D02*
X1221594D01*
X1179000Y1480499D02*
X1221194D01*
X1207208Y1229399D02*
X1221194D01*
X1207108Y1279799D02*
X1221094D01*
X1183806Y1494899D02*
X1221092D01*
X1206008Y1330199D02*
X1220994D01*
X1206608Y1430099D02*
X1220894D01*
X1205808Y1130399D02*
X1220894D01*
X1206708Y1179899D02*
X1220794D01*
X1205608Y1380599D02*
X1220694D01*
X1179000Y1481399D02*
X1220294D01*
X1206308Y1230299D02*
X1220294D01*
X1206208Y1280699D02*
X1220194D01*
X1182906Y1493999D02*
X1220192D01*
X1205108Y1331099D02*
X1220094D01*
X1205708Y1430999D02*
X1219994D01*
X1204908Y1131299D02*
X1219994D01*
X1205808Y1180799D02*
X1219894D01*
X1204708Y1381499D02*
X1219794D01*
X1179000Y1482299D02*
X1219394D01*
X1205408Y1231199D02*
X1219394D01*
X1205308Y1281599D02*
X1219294D01*
X1182006Y1493099D02*
X1219292D01*
X1204208Y1331999D02*
X1219194D01*
X1204808Y1431899D02*
X1219094D01*
X1204008Y1132199D02*
X1219094D01*
X1204908Y1181699D02*
X1218994D01*
X1203808Y1382399D02*
X1218894D01*
X1179000Y1483199D02*
X1218494D01*
X1204508Y1232099D02*
X1218494D01*
X1204408Y1282499D02*
X1218394D01*
X1181106Y1492199D02*
X1218392D01*
X1203308Y1332899D02*
X1218294D01*
X1203908Y1432799D02*
X1218194D01*
X1203108Y1133099D02*
X1218194D01*
X1179000Y1182599D02*
X1218094D01*
X1202908Y1383299D02*
X1217994D01*
X1179000Y1484099D02*
X1217594D01*
X1203608Y1232999D02*
X1217594D01*
X1203508Y1283399D02*
X1217494D01*
X1180206Y1491299D02*
X1217492D01*
X1202408Y1333799D02*
X1217394D01*
X1179000Y1433699D02*
X1217294D01*
X1202208Y1133999D02*
X1217294D01*
X1179000Y1183499D02*
X1217194D01*
X1179000Y1384199D02*
X1217094D01*
X1179000Y1484999D02*
X1216694D01*
X1202708Y1233899D02*
X1216694D01*
X1202608Y1284299D02*
X1216594D01*
X1179306Y1490399D02*
X1216592D01*
X1179000Y1489499D02*
X1216500D01*
X1179000Y1488599D02*
X1216500D01*
X1179000Y1487699D02*
X1216500D01*
X1179000Y1486799D02*
X1216500D01*
X1179000Y1485899D02*
X1216500D01*
X1179000Y1334699D02*
X1216494D01*
X1179000Y1434599D02*
X1216394D01*
X1201308Y1134899D02*
X1216394D01*
X1179000Y1184399D02*
X1216294D01*
X1179000Y1385099D02*
X1216194D01*
X1179000Y1234799D02*
X1215794D01*
X1201708Y1285199D02*
X1215694D01*
X1179000Y1335599D02*
X1215594D01*
X1179000Y1435499D02*
X1215494D01*
X1200408Y1135799D02*
X1215494D01*
X1179000Y1185299D02*
X1215394D01*
X1179000Y1385999D02*
X1215294D01*
X1179000Y1235699D02*
X1214894D01*
X1200808Y1286099D02*
X1214794D01*
X1179000Y1336499D02*
X1214694D01*
X1179000Y1436399D02*
X1214594D01*
X1199508Y1136699D02*
X1214594D01*
X1179000Y1186199D02*
X1214494D01*
X1179000Y1386899D02*
X1214394D01*
X1179000Y1236599D02*
X1213994D01*
X1179000Y1286999D02*
X1213894D01*
X1179000Y1337399D02*
X1213794D01*
X1179000Y1437299D02*
X1213694D01*
X1198608Y1137599D02*
X1213694D01*
X1179000Y1187099D02*
X1213594D01*
X1179000Y1387799D02*
X1213494D01*
X1179000Y1237499D02*
X1213094D01*
X1179000Y1287899D02*
X1212994D01*
X1179000Y1338299D02*
X1212894D01*
X1179000Y1438199D02*
X1212794D01*
X1197708Y1138499D02*
X1212794D01*
X1179000Y1187999D02*
X1212694D01*
X1179000Y1388699D02*
X1212594D01*
X1179000Y1238399D02*
X1212194D01*
X1179000Y1288799D02*
X1212094D01*
X1179000Y1339199D02*
X1211994D01*
X1179000Y1439099D02*
X1211894D01*
X1196808Y1139399D02*
X1211894D01*
X1179000Y1188899D02*
X1211794D01*
X1179000Y1389599D02*
X1211694D01*
X1179000Y1239299D02*
X1211294D01*
X1179000Y1289699D02*
X1211194D01*
X1179000Y1340099D02*
X1211094D01*
X1179000Y1439999D02*
X1210994D01*
X1195908Y1140299D02*
X1210994D01*
X1179000Y1189799D02*
X1210894D01*
X1179000Y1390499D02*
X1210794D01*
X1179000Y1240199D02*
X1210394D01*
X1179000Y1290599D02*
X1210294D01*
X1179000Y1340999D02*
X1210194D01*
X1179000Y1440899D02*
X1210094D01*
X1195008Y1141199D02*
X1210094D01*
X1179000Y1190699D02*
X1209994D01*
X1179000Y1391399D02*
X1209894D01*
X1179000Y1241099D02*
X1209494D01*
X1179000Y1291499D02*
X1209394D01*
X1179000Y1341899D02*
X1209294D01*
X1179000Y1441799D02*
X1209194D01*
X1194108Y1142099D02*
X1209194D01*
X1179000Y1191599D02*
X1209094D01*
X1179000Y1392299D02*
X1208994D01*
X1179000Y1241999D02*
X1208594D01*
X1179000Y1292399D02*
X1208494D01*
X1179000Y1342799D02*
X1208394D01*
X1179000Y1442699D02*
X1208294D01*
X1193208Y1142999D02*
X1208294D01*
X1179000Y1192499D02*
X1208194D01*
X1179000Y1393199D02*
X1208094D01*
X1179000Y1242899D02*
X1207694D01*
X1179000Y1293299D02*
X1207594D01*
X1179000Y1343699D02*
X1207494D01*
X1179000Y1443599D02*
X1207394D01*
X1192308Y1143899D02*
X1207394D01*
X1179000Y1193399D02*
X1207294D01*
X1179000Y1394099D02*
X1207194D01*
X1179000Y1243799D02*
X1206794D01*
X1179000Y1294199D02*
X1206694D01*
X1179000Y1344599D02*
X1206594D01*
X1179000Y1444499D02*
X1206494D01*
X1184208Y1144799D02*
X1206494D01*
X1179000Y1194299D02*
X1206394D01*
X1179000Y1394999D02*
X1206294D01*
X1179000Y1244699D02*
X1205894D01*
X1179000Y1295099D02*
X1205794D01*
X1179000Y1345499D02*
X1205694D01*
X1179000Y1445399D02*
X1205594D01*
X1183308Y1145699D02*
X1205594D01*
X1179000Y1195199D02*
X1205494D01*
X1179000Y1395899D02*
X1205394D01*
X1179000Y1479599D02*
X1205192D01*
X1179000Y1245599D02*
X1204994D01*
X1179000Y1295999D02*
X1204894D01*
X1179000Y1346399D02*
X1204794D01*
X1179000Y1446299D02*
X1204694D01*
X1182408Y1146599D02*
X1204694D01*
X1179000Y1196099D02*
X1204594D01*
X1179000Y1396799D02*
X1204494D01*
X1179000Y1478699D02*
X1204292D01*
X1179000Y1246499D02*
X1204094D01*
X1179000Y1296899D02*
X1203994D01*
X1179000Y1347299D02*
X1203894D01*
X1179000Y1447199D02*
X1203794D01*
X1181508Y1147499D02*
X1203794D01*
X1179000Y1196999D02*
X1203694D01*
X1179000Y1397699D02*
X1203594D01*
X1179000Y1477799D02*
X1203392D01*
X1179000Y1247399D02*
X1203194D01*
X1179000Y1297799D02*
X1203094D01*
X1179000Y1348199D02*
X1202994D01*
X1179000Y1448099D02*
X1202894D01*
X1180608Y1148399D02*
X1202894D01*
X1179000Y1197899D02*
X1202794D01*
X1179000Y1398599D02*
X1202694D01*
X1179000Y1476899D02*
X1202492D01*
X1179000Y1248299D02*
X1202294D01*
X1179000Y1298699D02*
X1202194D01*
X1179000Y1349099D02*
X1202094D01*
X1179000Y1448999D02*
X1201994D01*
X1179708Y1149299D02*
X1201994D01*
X1179000Y1198799D02*
X1201894D01*
X1179000Y1399499D02*
X1201794D01*
X1179000Y1475999D02*
X1201592D01*
X1179000Y1249199D02*
X1201394D01*
X1179000Y1432799D02*
X1201392D01*
X1179000Y1299599D02*
X1201294D01*
X1179000Y1349999D02*
X1201194D01*
X1179000Y1449899D02*
X1201094D01*
X1179000Y1150199D02*
X1201094D01*
X1179000Y1181699D02*
X1201092D01*
X1179000Y1199699D02*
X1200994D01*
X1179000Y1400399D02*
X1200894D01*
X1179000Y1333799D02*
X1200792D01*
X1179000Y1233899D02*
X1200792D01*
X1179000Y1475099D02*
X1200692D01*
X1179000Y1250099D02*
X1200494D01*
X1179000Y1431899D02*
X1200492D01*
X1179000Y1300499D02*
X1200394D01*
X1179000Y1383299D02*
X1200392D01*
X1179000Y1350899D02*
X1200294D01*
X1179000Y1450799D02*
X1200194D01*
X1179000Y1151099D02*
X1200194D01*
X1179000Y1180799D02*
X1200192D01*
X1179000Y1200599D02*
X1200094D01*
X1179000Y1401299D02*
X1199994D01*
X1179000Y1332899D02*
X1199892D01*
X1179000Y1286099D02*
X1199892D01*
X1179000Y1232999D02*
X1199892D01*
X1179000Y1474199D02*
X1199792D01*
X1179000Y1250999D02*
X1199594D01*
X1179000Y1430999D02*
X1199592D01*
X1179000Y1301399D02*
X1199494D01*
X1179000Y1382399D02*
X1199492D01*
X1179000Y1351799D02*
X1199394D01*
X1179000Y1451699D02*
X1199294D01*
X1179000Y1151999D02*
X1199294D01*
X1179000Y1179899D02*
X1199292D01*
X1179000Y1473299D02*
X1199200D01*
X1179000Y1472399D02*
X1199200D01*
X1179000Y1471499D02*
X1199200D01*
X1179000Y1470599D02*
X1199200D01*
X1179000Y1469699D02*
X1199200D01*
X1179000Y1468799D02*
X1199200D01*
X1179000Y1467899D02*
X1199200D01*
X1179000Y1466999D02*
X1199200D01*
X1179000Y1466099D02*
X1199200D01*
X1179000Y1465199D02*
X1199200D01*
X1179000Y1464299D02*
X1199200D01*
X1179000Y1463399D02*
X1199200D01*
X1179000Y1462499D02*
X1199200D01*
X1179000Y1461599D02*
X1199200D01*
X1179000Y1460699D02*
X1199200D01*
X1179000Y1459799D02*
X1199200D01*
X1179000Y1458899D02*
X1199200D01*
X1179000Y1457999D02*
X1199200D01*
X1179000Y1457099D02*
X1199200D01*
X1179000Y1456199D02*
X1199200D01*
X1179000Y1455299D02*
X1199200D01*
X1179000Y1454399D02*
X1199200D01*
X1179000Y1453499D02*
X1199200D01*
X1179000Y1452599D02*
X1199200D01*
X1179000Y1430099D02*
X1199200D01*
X1179000Y1429199D02*
X1199200D01*
X1179000Y1428299D02*
X1199200D01*
X1179000Y1427399D02*
X1199200D01*
X1179000Y1426499D02*
X1199200D01*
X1179000Y1425599D02*
X1199200D01*
X1179000Y1424699D02*
X1199200D01*
X1179000Y1423799D02*
X1199200D01*
X1179000Y1422899D02*
X1199200D01*
X1179000Y1421999D02*
X1199200D01*
X1179000Y1421099D02*
X1199200D01*
X1179000Y1420199D02*
X1199200D01*
X1179000Y1419299D02*
X1199200D01*
X1179000Y1418399D02*
X1199200D01*
X1179000Y1417499D02*
X1199200D01*
X1179000Y1416599D02*
X1199200D01*
X1179000Y1415699D02*
X1199200D01*
X1179000Y1414799D02*
X1199200D01*
X1179000Y1413899D02*
X1199200D01*
X1179000Y1412999D02*
X1199200D01*
X1179000Y1412099D02*
X1199200D01*
X1179000Y1411199D02*
X1199200D01*
X1179000Y1410299D02*
X1199200D01*
X1179000Y1409399D02*
X1199200D01*
X1179000Y1408499D02*
X1199200D01*
X1179000Y1407599D02*
X1199200D01*
X1179000Y1406699D02*
X1199200D01*
X1179000Y1405799D02*
X1199200D01*
X1179000Y1404899D02*
X1199200D01*
X1179000Y1403999D02*
X1199200D01*
X1179000Y1403099D02*
X1199200D01*
X1179000Y1402199D02*
X1199200D01*
X1179000Y1201499D02*
X1199194D01*
X1179000Y1178999D02*
X1199100D01*
X1179000Y1178099D02*
X1199100D01*
X1179000Y1177199D02*
X1199100D01*
X1179000Y1176299D02*
X1199100D01*
X1179000Y1175399D02*
X1199100D01*
X1179000Y1174499D02*
X1199100D01*
X1179000Y1173599D02*
X1199100D01*
X1179000Y1172699D02*
X1199100D01*
X1179000Y1171799D02*
X1199100D01*
X1179000Y1170899D02*
X1199100D01*
X1179000Y1169999D02*
X1199100D01*
X1179000Y1169099D02*
X1199100D01*
X1179000Y1168199D02*
X1199100D01*
X1179000Y1167299D02*
X1199100D01*
X1179000Y1166399D02*
X1199100D01*
X1179000Y1165499D02*
X1199100D01*
X1179000Y1164599D02*
X1199100D01*
X1179000Y1163699D02*
X1199100D01*
X1179000Y1162799D02*
X1199100D01*
X1179000Y1161899D02*
X1199100D01*
X1179000Y1160999D02*
X1199100D01*
X1179000Y1160099D02*
X1199100D01*
X1179000Y1159199D02*
X1199100D01*
X1179000Y1158299D02*
X1199100D01*
X1179000Y1157399D02*
X1199100D01*
X1179000Y1156499D02*
X1199100D01*
X1179000Y1155599D02*
X1199100D01*
X1179000Y1154699D02*
X1199100D01*
X1179000Y1153799D02*
X1199100D01*
X1179000Y1152899D02*
X1199100D01*
X1179000Y1381499D02*
X1199000D01*
X1179000Y1380599D02*
X1199000D01*
X1179000Y1379699D02*
X1199000D01*
X1179000Y1378799D02*
X1199000D01*
X1179000Y1377899D02*
X1199000D01*
X1179000Y1376999D02*
X1199000D01*
X1179000Y1376099D02*
X1199000D01*
X1179000Y1375199D02*
X1199000D01*
X1179000Y1374299D02*
X1199000D01*
X1179000Y1373399D02*
X1199000D01*
X1179000Y1372499D02*
X1199000D01*
X1179000Y1371599D02*
X1199000D01*
X1179000Y1370699D02*
X1199000D01*
X1179000Y1369799D02*
X1199000D01*
X1179000Y1368899D02*
X1199000D01*
X1179000Y1367999D02*
X1199000D01*
X1179000Y1367099D02*
X1199000D01*
X1179000Y1366199D02*
X1199000D01*
X1179000Y1365299D02*
X1199000D01*
X1179000Y1364399D02*
X1199000D01*
X1179000Y1363499D02*
X1199000D01*
X1179000Y1362599D02*
X1199000D01*
X1179000Y1361699D02*
X1199000D01*
X1179000Y1360799D02*
X1199000D01*
X1179000Y1359899D02*
X1199000D01*
X1179000Y1358999D02*
X1199000D01*
X1179000Y1358099D02*
X1199000D01*
X1179000Y1357199D02*
X1199000D01*
X1179000Y1356299D02*
X1199000D01*
X1179000Y1355399D02*
X1199000D01*
X1179000Y1354499D02*
X1199000D01*
X1179000Y1353599D02*
X1199000D01*
X1179000Y1352699D02*
X1199000D01*
X1179000Y1331999D02*
X1198992D01*
X1179000Y1285199D02*
X1198992D01*
X1179000Y1232099D02*
X1198992D01*
X1179000Y1331099D02*
X1198900D01*
X1179000Y1330199D02*
X1198900D01*
X1179000Y1329299D02*
X1198900D01*
X1179000Y1328399D02*
X1198900D01*
X1179000Y1327499D02*
X1198900D01*
X1179000Y1326599D02*
X1198900D01*
X1179000Y1325699D02*
X1198900D01*
X1179000Y1324799D02*
X1198900D01*
X1179000Y1323899D02*
X1198900D01*
X1179000Y1322999D02*
X1198900D01*
X1179000Y1322099D02*
X1198900D01*
X1179000Y1321199D02*
X1198900D01*
X1179000Y1320299D02*
X1198900D01*
X1179000Y1319399D02*
X1198900D01*
X1179000Y1318499D02*
X1198900D01*
X1179000Y1317599D02*
X1198900D01*
X1179000Y1316699D02*
X1198900D01*
X1179000Y1315799D02*
X1198900D01*
X1179000Y1314899D02*
X1198900D01*
X1179000Y1313999D02*
X1198900D01*
X1179000Y1313099D02*
X1198900D01*
X1179000Y1312199D02*
X1198900D01*
X1179000Y1311299D02*
X1198900D01*
X1179000Y1310399D02*
X1198900D01*
X1179000Y1309499D02*
X1198900D01*
X1179000Y1308599D02*
X1198900D01*
X1179000Y1307699D02*
X1198900D01*
X1179000Y1306799D02*
X1198900D01*
X1179000Y1305899D02*
X1198900D01*
X1179000Y1304999D02*
X1198900D01*
X1179000Y1304099D02*
X1198900D01*
X1179000Y1303199D02*
X1198900D01*
X1179000Y1302299D02*
X1198900D01*
X1179000Y1284299D02*
X1198900D01*
X1179000Y1283399D02*
X1198900D01*
X1179000Y1282499D02*
X1198900D01*
X1179000Y1281599D02*
X1198900D01*
X1179000Y1280699D02*
X1198900D01*
X1179000Y1279799D02*
X1198900D01*
X1179000Y1278899D02*
X1198900D01*
X1179000Y1277999D02*
X1198900D01*
X1179000Y1277099D02*
X1198900D01*
X1179000Y1276199D02*
X1198900D01*
X1179000Y1275299D02*
X1198900D01*
X1179000Y1274399D02*
X1198900D01*
X1179000Y1273499D02*
X1198900D01*
X1179000Y1272599D02*
X1198900D01*
X1179000Y1271699D02*
X1198900D01*
X1179000Y1270799D02*
X1198900D01*
X1179000Y1269899D02*
X1198900D01*
X1179000Y1268999D02*
X1198900D01*
X1179000Y1268099D02*
X1198900D01*
X1179000Y1267199D02*
X1198900D01*
X1179000Y1266299D02*
X1198900D01*
X1179000Y1265399D02*
X1198900D01*
X1179000Y1264499D02*
X1198900D01*
X1179000Y1263599D02*
X1198900D01*
X1179000Y1262699D02*
X1198900D01*
X1179000Y1261799D02*
X1198900D01*
X1179000Y1260899D02*
X1198900D01*
X1179000Y1259999D02*
X1198900D01*
X1179000Y1259099D02*
X1198900D01*
X1179000Y1258199D02*
X1198900D01*
X1179000Y1257299D02*
X1198900D01*
X1179000Y1256399D02*
X1198900D01*
X1179000Y1255499D02*
X1198900D01*
X1179000Y1254599D02*
X1198900D01*
X1179000Y1253699D02*
X1198900D01*
X1179000Y1252799D02*
X1198900D01*
X1179000Y1251899D02*
X1198900D01*
X1179000Y1231199D02*
X1198800D01*
X1179000Y1230299D02*
X1198800D01*
X1179000Y1229399D02*
X1198800D01*
X1179000Y1228499D02*
X1198800D01*
X1179000Y1227599D02*
X1198800D01*
X1179000Y1226699D02*
X1198800D01*
X1179000Y1225799D02*
X1198800D01*
X1179000Y1224899D02*
X1198800D01*
X1179000Y1223999D02*
X1198800D01*
X1179000Y1223099D02*
X1198800D01*
X1179000Y1222199D02*
X1198800D01*
X1179000Y1221299D02*
X1198800D01*
X1179000Y1220399D02*
X1198800D01*
X1179000Y1219499D02*
X1198800D01*
X1179000Y1218599D02*
X1198800D01*
X1179000Y1217699D02*
X1198800D01*
X1179000Y1216799D02*
X1198800D01*
X1179000Y1215899D02*
X1198800D01*
X1179000Y1214999D02*
X1198800D01*
X1179000Y1214099D02*
X1198800D01*
X1179000Y1213199D02*
X1198800D01*
X1179000Y1212299D02*
X1198800D01*
X1179000Y1211399D02*
X1198800D01*
X1179000Y1210499D02*
X1198800D01*
X1179000Y1209599D02*
X1198800D01*
X1179000Y1208699D02*
X1198800D01*
X1179000Y1207799D02*
X1198800D01*
X1179000Y1206899D02*
X1198800D01*
X1179000Y1205999D02*
X1198800D01*
X1179000Y1205099D02*
X1198800D01*
X1179000Y1204199D02*
X1198800D01*
X1179000Y1203299D02*
X1198800D01*
X1179000Y1202399D02*
X1198800D01*
X482300Y1744700D02*
X1466400D01*
Y1047200*
X482300*
Y1744700*
X742900Y1544250D02*
X777300Y1509850D01*
Y1074300*
X778300Y1073300*
X779300*
X781600Y1075600*
Y1511300*
X742700Y1550200*
X654300*
X653000Y1548900*
Y1546000*
X654800Y1544200*
X742900*
Y1544250*
X1275100Y1548200D02*
X1271800Y1544900D01*
X1230700*
X1176500Y1490700*
Y1078600*
X1173500Y1075600*
X1171800*
Y1495800*
X1227500Y1551300*
X1272500*
X1275100Y1548700*
Y1548200*
X403900Y1047300D02*
Y1305350D01*
Y1047300D02*
X401400Y1057300D01*
X406400*
X403900Y1047300*
Y1576900D02*
Y1318850D01*
Y1576900D02*
X406400Y1566900D01*
X401400*
X403900Y1576900*
X520600Y1047300D02*
X398900D01*
X520400Y1576900D02*
X398900D01*
X386514Y1313663D02*
X386968Y1313975D01*
X387650Y1314913*
X387650D02*
Y1308350D01*
X390150Y1314913D02*
X392650D01*
X392650D02*
X391286Y1312413D01*
X391286D02*
X391968D01*
X391968D02*
X392423Y1312100D01*
X392650Y1311788*
X392650D02*
X392877Y1310850D01*
Y1310225*
X392650Y1309288*
X392650D02*
X392195Y1308663D01*
X392195D02*
X391514Y1308350D01*
X390832*
X390150Y1308663*
X390150D02*
X389923Y1308975D01*
X389695Y1309600*
X397195Y1314913D02*
X394923Y1310538D01*
X394923D02*
X398332D01*
X397195Y1314913D02*
Y1308350D01*
X400605Y1308975D02*
X400377Y1308663D01*
X400377D02*
X400605Y1308350D01*
X400832Y1308663*
X400832D02*
X400605Y1308975D01*
X405832Y1314913D02*
X403559D01*
X403559D02*
X403332Y1312100D01*
X403559Y1312413*
X403559D02*
X404241Y1312725D01*
X404923*
X405605Y1312413*
X405605D02*
X406059Y1311788D01*
X406059D02*
X406286Y1310850D01*
X406059Y1310225*
X405832Y1309288*
X405832D02*
X405377Y1308663D01*
X405377D02*
X404695Y1308350D01*
X404014*
X403332Y1308663*
X403332D02*
X403105Y1308975D01*
X402877Y1309600*
X408332Y1312725D02*
Y1308350D01*
Y1311475D02*
X409014Y1312413D01*
X409014D02*
X409468Y1312725D01*
X410150*
X410605Y1312413*
X410605D02*
X410832Y1311475D01*
Y1308350*
Y1311475D02*
X411514Y1312413D01*
X411514D02*
X411968Y1312725D01*
X412650*
X413105Y1312413*
X413105D02*
X413332Y1311475D01*
Y1308350*
X415377Y1312725D02*
Y1308350D01*
Y1311475D02*
X416059Y1312413D01*
X416059D02*
X416514Y1312725D01*
X417195*
X417650Y1312413*
X417650D02*
X417877Y1311475D01*
Y1308350*
Y1311475D02*
X418559Y1312413D01*
X418559D02*
X419014Y1312725D01*
X419695*
X420150Y1312413*
X420150D02*
X420377Y1311475D01*
Y1308350*
X482300Y1879100D02*
X953105D01*
X482300D02*
X492300Y1881600D01*
Y1876600*
X482300Y1879100*
X1466500D02*
X995695D01*
X1466500D02*
X1456500Y1876600D01*
Y1881600*
X1466500Y1879100*
X482300Y1582600D02*
Y1884100D01*
X1466500Y1579000D02*
Y1884100D01*
X956332Y1880350D02*
Y1880663D01*
X956332D02*
X956559Y1881288D01*
X956559D02*
X956786Y1881600D01*
X957241Y1881913*
X957241D02*
X958150D01*
X958150D02*
X958605Y1881600D01*
X958832Y1881288*
X958832D02*
X959059Y1880663D01*
X959059D02*
Y1880038D01*
X959059D02*
X958832Y1879413D01*
X958832D02*
X958377Y1878475D01*
X956105Y1875350*
X959286*
X964286Y1881913D02*
X962014D01*
X962014D02*
X961786Y1879100D01*
X962014Y1879413*
X962014D02*
X962695Y1879725D01*
X963377*
X964059Y1879413*
X964059D02*
X964514Y1878788D01*
X964514D02*
X964741Y1877850D01*
X964514Y1877225*
X964286Y1876288*
X964286D02*
X963832Y1875663D01*
X963832D02*
X963150Y1875350D01*
X962468*
X961786Y1875663*
X961786D02*
X961559Y1875975D01*
X961332Y1876600*
X968150Y1881913D02*
X967468Y1881600D01*
X967014Y1880663*
X967014D02*
X966786Y1879100D01*
Y1878163*
X966786D02*
X967014Y1876600D01*
X967468Y1875663*
X967468D02*
X968150Y1875350D01*
X968605*
X969286Y1875663*
X969286D02*
X969741Y1876600D01*
X969968Y1878163*
X969968D02*
Y1879100D01*
X969741Y1880663*
X969741D02*
X969286Y1881600D01*
X968605Y1881913*
X968605D02*
X968150D01*
X972241Y1875975D02*
X972014Y1875663D01*
X972014D02*
X972241Y1875350D01*
X972468Y1875663*
X972468D02*
X972241Y1875975D01*
X975877Y1881913D02*
X975195Y1881600D01*
X974741Y1880663*
X974741D02*
X974514Y1879100D01*
Y1878163*
X974514D02*
X974741Y1876600D01*
X975195Y1875663*
X975195D02*
X975877Y1875350D01*
X976332*
X977014Y1875663*
X977014D02*
X977468Y1876600D01*
X977695Y1878163*
X977695D02*
Y1879100D01*
X977468Y1880663*
X977468D02*
X977014Y1881600D01*
X976332Y1881913*
X976332D02*
X975877D01*
X979741Y1879725D02*
Y1875350D01*
Y1878475D02*
X980423Y1879413D01*
X980423D02*
X980877Y1879725D01*
X981559*
X982014Y1879413*
X982014D02*
X982241Y1878475D01*
Y1875350*
Y1878475D02*
X982923Y1879413D01*
X982923D02*
X983377Y1879725D01*
X984059*
X984514Y1879413*
X984514D02*
X984741Y1878475D01*
Y1875350*
X986786Y1879725D02*
Y1875350D01*
Y1878475D02*
X987468Y1879413D01*
X987468D02*
X987923Y1879725D01*
X988605*
X989059Y1879413*
X989059D02*
X989286Y1878475D01*
Y1875350*
Y1878475D02*
X989968Y1879413D01*
X989968D02*
X990423Y1879725D01*
X991105*
X991559Y1879413*
X991559D02*
X991786Y1878475D01*
Y1875350*
X547100Y1830900D02*
X954191D01*
X547100D02*
X557100Y1833400D01*
Y1828400*
X547100Y1830900*
X1401600D02*
X994509D01*
X1401600D02*
X1391600Y1828400D01*
Y1833400*
X1401600Y1830900*
X547100Y1556000D02*
Y1835900D01*
X1401600Y1555900D02*
Y1835900D01*
X957418Y1832150D02*
Y1832463D01*
X957418D02*
X957645Y1833088D01*
X957645D02*
X957873Y1833400D01*
X958327Y1833713*
X958327D02*
X959236D01*
X959236D02*
X959691Y1833400D01*
X959918Y1833088*
X959918D02*
X960145Y1832463D01*
X960145D02*
Y1831838D01*
X960145D02*
X959918Y1831213D01*
X959918D02*
X959464Y1830275D01*
X957191Y1827150*
X960373*
X962418Y1832463D02*
X962873Y1832775D01*
X963555Y1833713*
X963555D02*
Y1827150D01*
X968782Y1833713D02*
X966509Y1827150D01*
X965600Y1833713D02*
X968782D01*
X971055Y1827775D02*
X970827Y1827463D01*
X970827D02*
X971055Y1827150D01*
X971282Y1827463*
X971282D02*
X971055Y1827775D01*
X974691Y1833713D02*
X974009Y1833400D01*
X973555Y1832463*
X973555D02*
X973327Y1830900D01*
Y1829963*
X973327D02*
X973555Y1828400D01*
X974009Y1827463*
X974009D02*
X974691Y1827150D01*
X975145*
X975827Y1827463*
X975827D02*
X976282Y1828400D01*
X976509Y1829963*
X976509D02*
Y1830900D01*
X976282Y1832463*
X976282D02*
X975827Y1833400D01*
X975145Y1833713*
X975145D02*
X974691D01*
X978555Y1831525D02*
Y1827150D01*
Y1830275D02*
X979236Y1831213D01*
X979236D02*
X979691Y1831525D01*
X980373*
X980827Y1831213*
X980827D02*
X981055Y1830275D01*
Y1827150*
Y1830275D02*
X981736Y1831213D01*
X981736D02*
X982191Y1831525D01*
X982873*
X983327Y1831213*
X983327D02*
X983555Y1830275D01*
Y1827150*
X985600Y1831525D02*
Y1827150D01*
Y1830275D02*
X986282Y1831213D01*
X986282D02*
X986736Y1831525D01*
X987418*
X987873Y1831213*
X987873D02*
X988100Y1830275D01*
Y1827150*
Y1830275D02*
X988782Y1831213D01*
X988782D02*
X989236Y1831525D01*
X989918*
X990373Y1831213*
X990373D02*
X990600Y1830275D01*
Y1827150*
X455200Y1078500D02*
Y1308100D01*
Y1078500D02*
X452700Y1088500D01*
X457700*
X455200Y1078500*
Y1551200D02*
Y1321600D01*
Y1551200D02*
X457700Y1541200D01*
X452700*
X455200Y1551200*
X542100Y1078500D02*
X450200D01*
X542200Y1551200D02*
X450200D01*
X439064Y1316413D02*
X439518Y1316725D01*
X440200Y1317663*
X440200D02*
Y1311100D01*
X442473Y1316100D02*
Y1316413D01*
X442473D02*
X442700Y1317038D01*
X442700D02*
X442927Y1317350D01*
X443382Y1317663*
X443382D02*
X444291D01*
X444291D02*
X444745Y1317350D01*
X444973Y1317038*
X444973D02*
X445200Y1316413D01*
X445200D02*
Y1315788D01*
X445200D02*
X444973Y1315163D01*
X444973D02*
X444518Y1314225D01*
X442245Y1311100*
X445427*
X448836Y1317663D02*
X448155Y1317350D01*
X447700Y1316413*
X447700D02*
X447473Y1314850D01*
Y1313913*
X447473D02*
X447700Y1312350D01*
X448155Y1311413*
X448155D02*
X448836Y1311100D01*
X449291*
X449973Y1311413*
X449973D02*
X450427Y1312350D01*
X450655Y1313913*
X450655D02*
Y1314850D01*
X450427Y1316413*
X450427D02*
X449973Y1317350D01*
X449291Y1317663*
X449291D02*
X448836D01*
X452927Y1311725D02*
X452700Y1311413D01*
X452700D02*
X452927Y1311100D01*
X453155Y1311413*
X453155D02*
X452927Y1311725D01*
X455200Y1316413D02*
X455655Y1316725D01*
X456336Y1317663*
X456336D02*
Y1311100D01*
X458382Y1315475D02*
Y1311100D01*
Y1314225D02*
X459064Y1315163D01*
X459064D02*
X459518Y1315475D01*
X460200*
X460655Y1315163*
X460655D02*
X460882Y1314225D01*
Y1311100*
Y1314225D02*
X461564Y1315163D01*
X461564D02*
X462018Y1315475D01*
X462700*
X463155Y1315163*
X463155D02*
X463382Y1314225D01*
Y1311100*
X465427Y1315475D02*
Y1311100D01*
Y1314225D02*
X466109Y1315163D01*
X466109D02*
X466564Y1315475D01*
X467245*
X467700Y1315163*
X467700D02*
X467927Y1314225D01*
Y1311100*
Y1314225D02*
X468609Y1315163D01*
X468609D02*
X469064Y1315475D01*
X469745*
X470200Y1315163*
X470200D02*
X470427Y1314225D01*
Y1311100*
G54D129*
X1161856Y1227611D03*
Y1209107D03*
X1207131D03*
X1234691D03*
X790244Y1306217D03*
Y1324721D03*
X744969D03*
X717409D03*
X790244Y1203989D03*
Y1222493D03*
X744969D03*
X717409D03*
X790202Y1407324D03*
Y1425828D03*
X744926D03*
X717367D03*
X790244Y1453989D03*
Y1472493D03*
X744969D03*
X717409D03*
X790244Y1103989D03*
Y1122493D03*
X744969D03*
X717409D03*
X1161856Y1177611D03*
Y1159107D03*
X1207131D03*
X1234691D03*
X1161856Y1277611D03*
Y1259107D03*
X1207131D03*
X1234691D03*
X1161856Y1327611D03*
Y1309107D03*
X1207131D03*
X1234691D03*
X1161856Y1377611D03*
Y1359107D03*
X1207131D03*
X1234691D03*
X1161856Y1427611D03*
Y1409107D03*
X1207131D03*
X1234691D03*
X1161856Y1477611D03*
Y1459107D03*
X1207131D03*
X1234691D03*
X790244Y1153989D03*
Y1172493D03*
X744969D03*
X717409D03*
X790244Y1254489D03*
Y1272993D03*
X744969D03*
X717409D03*
X790244Y1353989D03*
Y1372493D03*
X744969D03*
X717409D03*
X1161856Y1127611D03*
Y1109107D03*
X1207131D03*
X1234691D03*
G54D199*
X1002422Y1530274D03*
X1086879D03*
X928420Y1666200D03*
X936983Y1710491D03*
X894817D03*
X1033420Y1666200D03*
X1041983Y1710491D03*
X999817D03*
X1013200Y1334700D03*
X928400D03*
G54D200*
X1002422Y1520274D03*
Y1510274D03*
Y1500274D03*
Y1490274D03*
Y1480274D03*
Y1470274D03*
Y1460274D03*
Y1450274D03*
Y1440274D03*
Y1430274D03*
Y1420274D03*
Y1410274D03*
X1086879D03*
Y1420274D03*
Y1430274D03*
Y1440274D03*
Y1450274D03*
Y1460274D03*
Y1470274D03*
Y1480274D03*
Y1490274D03*
Y1500274D03*
Y1510274D03*
Y1520274D03*
X923420Y1656200D03*
X918420Y1666200D03*
X913420Y1656200D03*
X908420Y1666200D03*
X903420Y1656200D03*
X898420Y1666200D03*
X893420Y1656200D03*
X926983Y1710491D03*
X884817D03*
X1028420Y1656200D03*
X1023420Y1666200D03*
X1018420Y1656200D03*
X1013420Y1666200D03*
X1008420Y1656200D03*
X1003420Y1666200D03*
X998420Y1656200D03*
X1031983Y1710491D03*
X989817D03*
X1013200Y1344700D03*
Y1354700D03*
Y1364700D03*
X928400Y1344700D03*
Y1354700D03*
Y1364700D03*
G54D201*
X565000Y1111100D03*
X564900Y1491000D03*
X1095300Y1073700D03*
G54D203*
X1054709Y1710502D03*
Y1704203D03*
X977787Y1704209D03*
Y1710508D03*
X949016Y1710489D03*
Y1704189D03*
X872168Y1710492D03*
Y1704193D03*
X916600Y1638855D03*
Y1632556D03*
X928423Y1638856D03*
Y1632556D03*
X937948Y1638856D03*
Y1632556D03*
X903446Y1638887D03*
Y1632588D03*
G54D204*
X891374Y1431914D03*
Y1438213D03*
X884574Y1431914D03*
Y1438213D03*
X1026818Y1516568D03*
Y1510269D03*
X938124Y1618957D03*
Y1625256D03*
X910060Y1638850D03*
Y1632551D03*
X874200Y1259950D03*
Y1253650D03*
X808700Y1502750D03*
Y1496450D03*
X949400Y1664950D03*
Y1658650D03*
G54D207*
X1014192Y1597800D03*
X1007893D03*
X1117435D03*
X1123735D03*
X1123574Y1100604D03*
X1129873D03*
X1123432Y1148811D03*
X1129731D03*
X1123484Y1298164D03*
X1129783D03*
X1123395Y1348509D03*
X1129695D03*
X1123711Y1399392D03*
X1130011D03*
X1123168Y1450640D03*
X1129467D03*
X826050Y1224500D03*
X819750D03*
X826150Y1274100D03*
X819850D03*
X826150Y1475400D03*
X819850D03*
X826150Y1324000D03*
X819850D03*
X826250Y1373700D03*
X819950D03*
X825919Y1425253D03*
X819620D03*
X1123550Y1199100D03*
X1129850D03*
X1123550Y1250500D03*
X1129850D03*
X826350Y1122400D03*
X820050D03*
X826250Y1173900D03*
X819950D03*
G54D210*
X826050Y1466700D03*
X819750D03*
X1136028Y1440301D03*
X1142327D03*
X1123550Y1109800D03*
X1129850D03*
X1123550Y1307800D03*
X1129850D03*
X1123550Y1358400D03*
X1129850D03*
X1123550Y1459100D03*
X1129850D03*
X1123550Y1158100D03*
X1129850D03*
X1123550Y1408500D03*
X1129850D03*
X826150Y1267500D03*
X819850D03*
X826150Y1316900D03*
X819850D03*
X826250Y1366800D03*
X819950D03*
X826050Y1418000D03*
X819750D03*
X1123550Y1257800D03*
X1129850D03*
X1123550Y1207800D03*
X1129850D03*
X826350Y1115900D03*
X820050D03*
X826250Y1167200D03*
X819950D03*
X826050Y1217200D03*
X819750D03*
G54D213*
X880408Y1679192D03*
X941392D03*
X985408D03*
X1046392D03*
G54D214*
X888400Y1691200D03*
X933400D03*
X993400D03*
X1038400D03*
G54D215*
X1104291Y1597800D03*
X1072795D03*
X1028895D03*
X1060391D03*
G54D226*
X569528Y1111100D02*
G75*
G03X569528I-4528J0D01*
G01X569428Y1491000D02*
G03X569428I-4528J0D01*
G01X1099828Y1073700D02*
G03X1099828I-4528J0D01*
G01X569528Y1111100D02*
G03X569528I-4528J0D01*
G01X569428Y1491000D02*
G03X569428I-4528J0D01*
G01X1099828Y1073700D02*
G03X1099828I-4528J0D01*
G01X560493Y1111532D02*
X569507D01*
X560962Y1109051D02*
X569038D01*
X561533Y1114012D02*
X568467D01*
X560393Y1491432D02*
X569407D01*
X560862Y1488951D02*
X568938D01*
X561433Y1493912D02*
X568367D01*
X1090793Y1074132D02*
X1099807D01*
X1091262Y1071651D02*
X1099338D01*
X1091833Y1076612D02*
X1098767D01*
G54D236*
X970221Y1431913D03*
Y1439787D03*
Y1447661D03*
Y1455535D03*
Y1463409D03*
Y1471283D03*
Y1479157D03*
Y1487031D03*
Y1494905D03*
Y1502779D03*
Y1510653D03*
Y1518527D03*
Y1526401D03*
Y1534275D03*
X863921D03*
Y1526401D03*
Y1518527D03*
Y1510653D03*
Y1502779D03*
Y1494905D03*
Y1487031D03*
Y1479157D03*
Y1471283D03*
Y1463409D03*
Y1455535D03*
Y1447661D03*
Y1439787D03*
Y1431913D03*
G54D239*
X1015200Y1517778D03*
Y1510297D03*
X884900Y1259940D03*
Y1252460D03*
G54D243*
X826486Y1458067D03*
X818886D03*
X826964Y1409658D03*
X819364D03*
X826800Y1108150D03*
X819200D03*
X1122900Y1166350D03*
X1130500D03*
X1122900Y1216450D03*
X1130500D03*
X1122900Y1265650D03*
X1130500D03*
X1122900Y1316050D03*
X1130500D03*
X1122900Y1365750D03*
X1130500D03*
X1122900Y1415950D03*
X1130500D03*
X1122900Y1466350D03*
X1130500D03*
X826800Y1158650D03*
X819200D03*
X826800Y1208650D03*
X819200D03*
X826800Y1258950D03*
X819200D03*
X826800Y1309850D03*
X819200D03*
X826800Y1358550D03*
X819200D03*
X1122900Y1117350D03*
X1130500D03*
G54D245*
X513307Y1218728D03*
Y1238413D03*
Y1258098D03*
Y1277783D03*
Y1297468D03*
Y1317153D03*
Y1336838D03*
Y1356523D03*
X1446856Y1218728D03*
Y1238413D03*
Y1258098D03*
Y1277783D03*
Y1297468D03*
Y1317153D03*
Y1336838D03*
Y1356523D03*
X786000Y1544596D03*
X805685D03*
G54D246*
X902574Y1119840D03*
Y1129840D03*
Y1139840D03*
Y1149840D03*
Y1159840D03*
Y1169840D03*
Y1179840D03*
Y1189840D03*
Y1229840D03*
Y1239840D03*
Y1249840D03*
Y1259840D03*
X1044306Y1148080D03*
Y1158080D03*
Y1168080D03*
Y1178080D03*
Y1188080D03*
Y1198080D03*
Y1208080D03*
Y1218080D03*
Y1228080D03*
Y1238080D03*
X902574Y1199840D03*
Y1209840D03*
Y1219840D03*
G54D258*
X1261741Y1362237D03*
X1349930D03*
X605441D03*
X693630D03*
X605441Y1212237D03*
X693630D03*
X605441Y1162237D03*
X693630D03*
X605441Y1112237D03*
X693630D03*
X1261741Y1312237D03*
X1349930D03*
X1261741Y1162237D03*
X1349930D03*
X1261741Y1212237D03*
X1349930D03*
X1261741Y1262237D03*
X1349930D03*
X1261741Y1412237D03*
X1349930D03*
X1261741Y1462237D03*
X1349930D03*
X605441Y1262237D03*
X693630D03*
X605441Y1312237D03*
X693630D03*
X605441Y1412237D03*
X693630D03*
X605441Y1462237D03*
X693630D03*
X1261741Y1112237D03*
X1349930D03*
G54D260*
X822686Y1449161D03*
X823164Y1400752D03*
X823000Y1099244D03*
X1126700Y1175256D03*
Y1225356D03*
Y1274556D03*
Y1324956D03*
Y1374656D03*
Y1424856D03*
Y1475256D03*
X823000Y1149744D03*
Y1199744D03*
Y1250044D03*
Y1300944D03*
Y1349644D03*
X1126700Y1126256D03*
G54D261*
X625900Y1553600D03*
Y1530600D03*
X575900Y1553600D03*
Y1530600D03*
X1361000Y1553600D03*
Y1530600D03*
X1311000Y1553600D03*
Y1530600D03*
G54D265*
X1143581Y1374667D03*
Y1366399D03*
X1143591Y1324928D03*
Y1316660D03*
X808200Y1300966D03*
Y1309234D03*
Y1400766D03*
Y1409034D03*
X1143600Y1175234D03*
Y1166966D03*
Y1225334D03*
Y1217066D03*
Y1274534D03*
Y1266266D03*
Y1424834D03*
Y1416566D03*
Y1475234D03*
Y1466966D03*
X808200Y1199766D03*
Y1208034D03*
Y1250066D03*
Y1258334D03*
Y1349666D03*
Y1357934D03*
Y1449166D03*
Y1457434D03*
X1143600Y1126234D03*
Y1117966D03*
X808200Y1099266D03*
Y1107534D03*
Y1149766D03*
Y1158034D03*
G54D266*
Y1116446D03*
Y1122154D03*
Y1319046D03*
Y1324754D03*
Y1368646D03*
Y1374354D03*
Y1418546D03*
Y1424254D03*
Y1469146D03*
Y1474854D03*
X1143600Y1107854D03*
Y1102146D03*
Y1157354D03*
Y1151646D03*
Y1207654D03*
Y1201946D03*
X808200Y1167646D03*
Y1173354D03*
X1143600Y1257454D03*
Y1251746D03*
Y1407554D03*
Y1401846D03*
Y1457354D03*
Y1451646D03*
Y1306754D03*
Y1301046D03*
X808200Y1217946D03*
Y1223654D03*
X1143600Y1357554D03*
Y1351846D03*
X808200Y1268546D03*
Y1274254D03*
G74*
X0Y0D02*
M02*
