%
T1C.012F095S3
X0765Y11625
X07868Y156052
X07868Y159052
X07868Y162052
X07868Y165052
X07868Y171052
X08175Y16823
X08168Y165052
X08168Y162052
X08168Y159052
X08121Y15344
X08292Y153216
X07939Y1521
X08292Y150216
X08148Y1488
X08025Y148
X08292Y144216
X08133Y143696
X08025Y143
X08139Y13862
X08292Y138216
X08025Y138
X08292Y135216
X08136Y13373
X08025Y133
X08138Y13202
X08292Y129216
X08136Y12874
X08025Y128
X08134Y12369
X08292Y123216
X08025Y123
X08292Y120216
X0813Y11811
X08025Y118
X08292Y114216
X08094Y11419
X08025Y11275
X08136Y11148
X08085Y10822
X08292Y108216
X08592Y108216
X08592Y111216
X08592Y114216
X08768Y120052
X08468Y126052
X087Y12725
X08468Y132052
X08575Y14125
X0845Y14925
X08468Y156052
X08468Y159052
X08468Y162052
X08468Y165052
X08468Y171052
X09068Y168052
X09068Y165052
X08886Y15966
X09368Y156052
X09059Y15326
X08892Y153216
X09375Y15275
X08892Y150216
X09192Y150216
X0935Y14875
X0896Y14785
X09192Y147216
X09375Y1464
X093Y1455
X08925Y145
X09192Y141216
X08892Y141216
X09192Y138216
X08892Y138216
X09192Y135216
X08892Y135216
X09192Y132216
X08892Y132216
X08892Y129216
X09192Y126216
X09192Y123216
X08892Y123216
X09192Y117216
X08892Y114216
X09192Y114216
X08892Y111216
X09192Y111216
X08892Y108216
X09492Y108216
X09792Y108216
X09492Y111216
X09792Y111216
X09492Y114216
X09792Y117216
X09492Y120216
X09792Y120216
X09492Y123216
X09792Y123216
X09492Y126216
X09792Y126216
X09792Y129216
X09492Y129216
X09792Y132216
X09492Y132216
X09492Y135216
X09792Y135216
X09792Y138216
X09492Y138216
X09492Y141216
X09825Y14125
X09492Y144216
X09492Y147216
X09398Y15023
X09668Y156052
X09668Y159052
X09456Y16173
X09668Y165052
X09668Y168052
X09668Y171052
X09968Y168052
X10268Y168052
X09968Y165052
X10268Y165052
X09968Y162052
X10268Y162052
X09968Y159052
X10268Y159052
X09968Y156052
X09968Y153052
X099Y1445
X10268Y144052
X10092Y141216
X10092Y138216
X10092Y132216
X10092Y129216
X10092Y126216
X10092Y123216
X10092Y120216
X10092Y117216
X10092Y114216
X10092Y111216
X10092Y108216
X10692Y108216
X10392Y111216
X10692Y111216
X10392Y114216
X10692Y114216
X10392Y117216
X10692Y117216
X10392Y120216
X10392Y123216
X10392Y126216
X10692Y126216
X10692Y129216
X10692Y132216
X10392Y132216
X10692Y135216
X10692Y138216
X10692Y141216
X10692Y144216
X10692Y147216
X10392Y147216
X10692Y150216
X10436Y15059
X10392Y153216
X10692Y153216
X10868Y159052
X10568Y159052
X10868Y162052
X10568Y162052
X10868Y165052
X10568Y165052
X10868Y168052
X10646Y16809
X10868Y171052
X11168Y171052
X11168Y168052
X11168Y165052
X11168Y162052
X10975Y1585
X11292Y153216
X10992Y153216
X10992Y150216
X11292Y150216
X10992Y147216
X10992Y144216
X11292Y144216
X10992Y141216
X11292Y138216
X10992Y138216
X10992Y135216
X10992Y129216
X11292Y129216
X10992Y126216
X11292Y123216
X10992Y120216
X10992Y117216
X10992Y114216
X11292Y114216
X10992Y111216
X11292Y108216
X10992Y108216
X115Y1095
X11468Y111052
X115Y1145
X115Y1195
X115Y1245
X11468Y126052
X115Y12925
X115Y1345
X115Y1395
X11468Y141052
X115Y1445
X11468Y156052
X11468Y159052
X11468Y162052
X11468Y165052
X11468Y168052
X11468Y171052
T2C.03F197S55
X090257Y111984
X090257Y112984
X090257Y113984
X090257Y114984
X090257Y115984
X090257Y116984
X090257Y117984
X090257Y118984
X090257Y119984
X090257Y120984
X090257Y121984
X090257Y122984
X090257Y123984
X090257Y124984
X090257Y125984
X104431Y123808
X104431Y122808
X104431Y121808
X104431Y120808
X104431Y119808
X104431Y118808
X104431Y117808
X104431Y116808
X104431Y115808
X104431Y114808
T3C.0315F197S55
X071741Y112249
X071741Y117249
X071741Y122249
X071741Y127299
X071741Y132472
X071741Y137249
X071737Y142583
X071741Y147249
X074497Y147249
X079024Y147249
X079024Y145399
X074493Y142583
X07902Y142583
X07902Y140732
X074497Y137249
X079024Y137249
X079024Y135399
X079024Y132472
X074497Y132472
X079024Y130622
X074497Y127299
X079024Y127299
X079024Y125449
X079024Y122249
X074497Y122249
X079024Y120399
X074497Y117249
X079024Y117249
X079024Y115399
X079024Y112249
X074497Y112249
X079024Y110399
X116186Y110911
X116186Y112761
X116186Y115911
X116186Y117761
X116186Y120911
X116186Y122761
X116186Y125911
X116186Y127761
X116186Y130911
X116186Y132761
X116186Y135911
X116186Y137761
X116186Y140911
X116186Y142761
X116186Y145911
X116186Y147761
X120713Y145911
X123469Y145911
X123469Y140911
X120713Y140911
X123469Y135911
X120713Y135911
X120713Y130911
X123469Y130911
X123469Y125911
X120713Y125911
X120713Y120911
X123469Y120911
X120713Y115911
X123469Y115911
X120713Y110911
X123469Y110911
T4C.035F197S55
X09284Y13347
X09284Y13447
X09284Y13547
X09284Y13647
X10132Y13647
X10132Y13547
X10132Y13447
X10132Y13347
T5C.03543F197S55
X090342Y16562
X089342Y16562
X089842Y16662
X090842Y16662
X088482Y171049
X089482Y171049
X093698Y171049
X092698Y171049
X099982Y171049
X098982Y171049
X091842Y16662
X092842Y16662
X100342Y16662
X100842Y16562
X099842Y16562
X091342Y16562
X092342Y16562
X102842Y16562
X101842Y16562
X102342Y16662
X103342Y16662
X101342Y16662
X103198Y171049
X104198Y171049
T6C.037F197S55
X100242Y141027
X100242Y142027
X100242Y143027
X100242Y144027
X100242Y145027
X100242Y146027
X100242Y147027
X100242Y148027
X100242Y149027
X100242Y150027
X100242Y151027
X100242Y152027
X100242Y153027
X108688Y153027
X108688Y152027
X108688Y151027
X108688Y150027
X108688Y149027
X108688Y148027
X108688Y147027
X108688Y146027
X108688Y145027
X108688Y144027
X108688Y143027
X108688Y142027
X108688Y141027
T7C.03937F197S55
X086392Y143191
X086392Y143979
X086392Y144766
X086392Y145554
X086392Y146341
X086392Y147128
X086392Y147916
X086392Y148703
X086392Y149491
X086392Y150278
X086392Y151065
X086392Y151853
X086392Y15264
X086392Y153428
X097022Y153428
X097022Y15264
X097022Y151853
X097022Y151065
X097022Y150278
X097022Y149491
X097022Y148703
X097022Y147916
X097022Y147128
X097022Y146341
X097022Y145554
X097022Y144766
X097022Y143979
X097022Y143191
T8C.05118F107S55
X051331Y121873
X051331Y123841
X051331Y12581
X051331Y127778
X051331Y129747
X051331Y131715
X051331Y133684
X051331Y135652
X0786Y15446
X080569Y15446
X144686Y121873
X144686Y123841
X144686Y12581
X144686Y127778
X144686Y129747
X144686Y131715
X144686Y133684
X144686Y135652
T9C.05512F107S55
X060544Y111224
X060544Y116224
X060544Y121224
X060544Y126224
X060544Y131224
X060544Y136224
X060544Y141224
X060544Y146224
X069363Y146224
X069363Y141224
X069363Y136224
X069363Y131224
X069363Y126224
X069363Y121224
X069363Y116224
X069363Y111224
X126174Y111224
X126174Y116224
X126174Y121224
X126174Y126224
X126174Y131224
X126174Y136224
X126174Y141224
X126174Y146224
X134993Y146224
X134993Y141224
X134993Y136224
X134993Y131224
X134993Y126224
X134993Y121224
X134993Y116224
X134993Y111224
T10C.06693F089S55
X088041Y167919
X094139Y167919
X098541Y167919
X104639Y167919
T11C.1F069S658
X075Y15175
X07025Y153
X06575Y153
X1255Y153
X11925Y1485
X12875Y153
T12C.13386F035S794
X08884Y16912
X09334Y16912
X09934Y16912
X10384Y16912
T13C.17717F035S1033
X054724Y107874
X054724Y155118
X090927Y129335
X103761Y129335
X103761Y108627
X090927Y108627
X140157Y107874
X140157Y155118
M30
